<svg width="24" height="24" viewBox="0 0 24 24" fill="none" xmlns="http://www.w3.org/2000/svg">
<path d="M7.803 5.73096C8.392 5.73096 8.922 5.78196 9.408 5.88596C9.891 5.98896 10.303 6.15896 10.651 6.39396C10.994 6.62896 11.262 6.94096 11.455 7.33296C11.642 7.71996 11.735 8.20396 11.735 8.77596C11.735 9.39596 11.595 9.91396 11.314 10.327C11.031 10.741 10.614 11.08 10.058 11.342C10.815 11.561 11.376 11.944 11.748 12.488C12.122 13.037 12.305 13.694 12.305 14.464C12.305 15.089 12.186 15.626 11.947 16.077C11.707 16.535 11.378 16.906 10.973 17.191C10.565 17.48 10.097 17.692 9.574 17.831C9.055 17.968 8.517 18.037 7.965 18.037H2V5.73096H7.803ZM7.452 10.703C7.932 10.703 8.33 10.589 8.644 10.358C8.956 10.13 9.107 9.75396 9.107 9.23896C9.107 8.95296 9.056 8.71696 8.956 8.53196C8.853 8.34896 8.714 8.20496 8.539 8.10396C8.365 7.99896 8.17 7.92796 7.942 7.88896C7.719 7.84496 7.485 7.82796 7.245 7.82796H4.71V10.703H7.452ZM7.603 15.942C7.87 15.942 8.124 15.919 8.363 15.865C8.604 15.813 8.818 15.729 9 15.604C9.182 15.484 9.332 15.321 9.44 15.113C9.549 14.907 9.602 14.638 9.602 14.315C9.602 13.681 9.423 13.23 9.069 12.957C8.714 12.687 8.238 12.553 7.655 12.553H4.71V15.943L7.603 15.942ZM16.168 15.901C16.535 16.259 17.064 16.439 17.752 16.439C18.245 16.439 18.671 16.314 19.03 16.066C19.384 15.817 19.6 15.551 19.683 15.276H21.838C21.492 16.348 20.967 17.114 20.249 17.575C19.54 18.038 18.677 18.268 17.669 18.268C16.967 18.268 16.335 18.155 15.769 17.931C15.202 17.704 14.727 17.387 14.33 16.973C13.941 16.557 13.64 16.066 13.425 15.488C13.212 14.914 13.105 14.278 13.105 13.589C13.105 12.923 13.216 12.3 13.434 11.725C13.657 11.148 13.963 10.65 14.368 10.232C14.773 9.81196 15.253 9.48096 15.812 9.23796C16.371 8.99696 16.987 8.87596 17.67 8.87596C18.424 8.87596 19.083 9.02196 19.649 9.31596C20.212 9.60796 20.675 10.003 21.039 10.498C21.402 10.991 21.661 11.556 21.822 12.189C21.983 12.821 22.039 13.481 21.993 14.172H15.562C15.563 14.876 15.8 15.543 16.168 15.901ZM18.98 11.22C18.689 10.898 18.197 10.724 17.595 10.724C17.204 10.724 16.881 10.789 16.621 10.923C16.367 11.056 16.16 11.22 16.001 11.414C15.844 11.611 15.736 11.819 15.673 12.042C15.611 12.259 15.573 12.455 15.562 12.629H19.544C19.486 12.005 19.272 11.544 18.98 11.22ZM15.062 6.55696H20.051V7.77196H15.062V6.55696Z" fill="black"/>
</svg>
