<svg width="24" height="24" viewBox="0 0 24 24" fill="none" xmlns="http://www.w3.org/2000/svg">
<path fill-rule="evenodd" clip-rule="evenodd" d="M7.71429 6.28564C8.64661 6.28564 9.52678 6.50892 10.3042 6.90492C9.6856 7.6305 9.19666 8.47003 8.87327 9.38764C8.51906 9.23025 8.12688 9.14279 7.71429 9.14279C6.13633 9.14279 4.85714 10.422 4.85714 11.9999C4.85714 13.5779 6.13633 14.8571 7.71429 14.8571C9.29224 14.8571 10.5714 13.5779 10.5714 11.9999C10.5714 10.5507 11.1109 9.22752 12 8.22018C13.0471 7.03387 14.579 6.28564 16.2857 6.28564C19.4416 6.28564 22 8.84402 22 11.9999C22 15.1558 19.4416 17.7142 16.2857 17.7142C14.579 17.7142 13.0471 16.966 12 15.7797C10.9529 16.966 9.42099 17.7142 7.71429 17.7142C4.55837 17.7142 2 15.1558 2 11.9999C2 8.84402 4.55837 6.28564 7.71429 6.28564ZM13.4286 11.9999C13.4286 13.5779 14.7078 14.8571 16.2857 14.8571C17.8637 14.8571 19.1429 13.5779 19.1429 11.9999C19.1429 10.422 17.8637 9.14279 16.2857 9.14279C14.7078 9.14279 13.4286 10.422 13.4286 11.9999Z" fill="black"/>
</svg>
