<svg width="24" height="24" viewBox="0 0 24 24" fill="none" xmlns="http://www.w3.org/2000/svg">
<path fill-rule="evenodd" clip-rule="evenodd" d="M8.94492 2C6.76707 2 5 3.75746 5 5.92346C5 7.14825 5.56513 8.24236 6.44951 8.9618C5.56513 9.68123 5 10.7753 5 12.0001C5 13.2248 5.56506 14.3189 6.44936 15.0383C5.56507 15.7578 5 16.8518 5 18.0765C5 20.2425 6.76707 22 8.94492 22C11.1228 22 12.8898 20.2425 12.8898 18.0765V15.2798C13.5115 15.6867 14.2558 15.9236 15.0551 15.9236C17.2329 15.9236 19 14.1661 19 12.0001C19 10.7753 18.4349 9.68123 17.5505 8.9618C18.4349 8.24237 19 7.14825 19 5.92346C19 3.75746 17.2329 2 15.0551 2H8.94492ZM6.78001 5.92346C6.78001 4.73519 7.75014 3.77033 8.94492 3.77033H11.1098V8.07659H8.94492C7.75014 8.07659 6.78001 7.11174 6.78001 5.92346ZM17.22 5.92346C17.22 7.11174 16.2499 8.07659 15.0551 8.07659H12.8902V3.77033H15.0551C16.2499 3.77033 17.22 4.73519 17.22 5.92346ZM6.78001 12.0001C6.78001 10.8119 7.75014 9.847 8.94492 9.847H11.1098V14.1531H8.94451L8.9222 14.1531C7.73789 14.141 6.78001 13.1809 6.78001 12.0001ZM12.8902 12.0001C12.8902 10.8119 13.8603 9.847 15.0551 9.847C16.2499 9.847 17.22 10.8119 17.22 12.0001C17.22 13.1884 16.2499 14.1533 15.0551 14.1533C13.8603 14.1533 12.8902 13.1884 12.8902 12.0001ZM6.78001 18.0765C6.78001 16.8958 7.73788 15.9356 8.9222 15.9235L8.94492 15.9236H11.1098V18.0765C11.1098 19.2648 10.1397 20.2297 8.94492 20.2297C7.75014 20.2297 6.78001 19.2648 6.78001 18.0765Z" fill="black"/>
</svg>
