<svg width="24" height="24" viewBox="0 0 24 24" fill="none" xmlns="http://www.w3.org/2000/svg">
<path d="M19.361 3.00806H4.638C3.737 3.00806 3.008 3.73706 3.008 4.63806V19.3621C3.008 20.2621 3.737 20.9931 4.638 20.9931H19.362C20.262 20.9931 20.993 20.2631 20.993 19.3621V4.63806C20.992 3.73606 20.262 3.00806 19.361 3.00806ZM9.018 6.50506C9.615 6.50506 10.116 6.97706 10.116 7.58306C10.116 8.19906 9.615 8.66306 9.018 8.66306V8.68506C8.414 8.68506 7.928 8.19906 7.928 7.59706C7.928 6.99206 8.414 6.50506 9.018 6.50506ZM16.372 16.8571C15.26 16.8571 14.721 16.1951 14.721 15.2911C14.721 15.0311 14.754 14.7581 14.835 14.4791L15.363 12.5731C15.431 12.3651 15.449 12.1681 15.449 11.9921C15.449 11.3771 15.074 11.0081 14.478 11.0081C13.717 11.0081 13.218 11.5511 12.958 12.6061L11.925 16.7521H10.114L10.441 15.4491C9.907 16.3221 9.17 16.8611 8.258 16.8611C7.156 16.8611 6.641 16.2291 6.641 15.2771C6.647 15.0051 6.676 14.7311 6.737 14.4661L7.563 11.1001H6.285L6.673 9.67006H9.748L8.532 14.4741C8.452 14.7831 8.422 15.0331 8.422 15.2121C8.422 15.5191 8.57 15.6081 8.807 15.6641C8.953 15.6941 10.102 15.6751 10.725 14.2881L11.523 11.1001H10.229L10.62 9.69606H13.407L13.048 11.3131C13.532 10.4141 14.5 9.55106 15.454 9.55106C16.466 9.55106 17.309 10.2791 17.309 11.6621C17.309 12.0621 17.246 12.4581 17.129 12.8421L16.609 14.7001C16.566 14.8881 16.534 15.0471 16.534 15.1921C16.534 15.5181 16.67 15.6761 16.902 15.6761C17.14 15.6761 17.455 15.4951 17.801 14.5041L18.509 14.7761C18.095 16.2491 17.327 16.8571 16.372 16.8571Z" fill="black"/>
</svg>
