<svg width="24" height="24" viewBox="0 0 24 24" fill="none" xmlns="http://www.w3.org/2000/svg">
<path d="M19.3611 3.00806H4.63806C3.73706 3.00806 3.00806 3.73706 3.00806 4.63806V19.3621C3.00806 20.2621 3.73706 20.9931 4.63806 20.9931H19.3621C20.2621 20.9931 20.9931 20.2631 20.9931 19.3621V4.63806C20.9921 3.73606 20.2621 3.00806 19.3611 3.00806ZM9.01806 6.50506C9.61506 6.50506 10.1161 6.97706 10.1161 7.58306C10.1161 8.19906 9.61506 8.66306 9.01806 8.66306V8.68506C8.41406 8.68506 7.92806 8.19906 7.92806 7.59706C7.92806 6.99206 8.41406 6.50506 9.01806 6.50506ZM16.3721 16.8571C15.2601 16.8571 14.7211 16.1951 14.7211 15.2911C14.7211 15.0311 14.7541 14.7581 14.8351 14.4791L15.3631 12.5731C15.4311 12.3651 15.4491 12.1681 15.4491 11.9921C15.4491 11.3771 15.0741 11.0081 14.4781 11.0081C13.7171 11.0081 13.2181 11.5511 12.9581 12.6061L11.9251 16.7521H10.1141L10.4411 15.4491C9.90706 16.3221 9.17006 16.8611 8.25806 16.8611C7.15606 16.8611 6.64106 16.2291 6.64106 15.2771C6.64706 15.0051 6.67606 14.7311 6.73706 14.4661L7.56306 11.1001H6.28506L6.67306 9.67006H9.74806L8.53206 14.4741C8.45206 14.7831 8.42206 15.0331 8.42206 15.2121C8.42206 15.5191 8.57006 15.6081 8.80706 15.6641C8.95306 15.6941 10.1021 15.6751 10.7251 14.2881L11.5231 11.1001H10.2291L10.6201 9.69606H13.4071L13.0481 11.3131C13.5321 10.4141 14.5001 9.55106 15.4541 9.55106C16.4661 9.55106 17.3091 10.2791 17.3091 11.6621C17.3091 12.0621 17.2461 12.4581 17.1291 12.8421L16.6091 14.7001C16.5661 14.8881 16.5341 15.0471 16.5341 15.1921C16.5341 15.5181 16.6701 15.6761 16.9021 15.6761C17.1401 15.6761 17.4551 15.4951 17.8011 14.5041L18.5091 14.7761C18.0951 16.2491 17.3271 16.8571 16.3721 16.8571Z" fill="#2E3A59"/>
</svg>
