<svg width="24" height="24" viewBox="0 0 24 24" fill="none" xmlns="http://www.w3.org/2000/svg">
<path d="M19.554 9.48797C19.675 10.051 19.66 10.734 19.514 11.539C18.932 14.517 17.037 16.005 13.831 16.005H13.389C13.221 16.005 13.075 16.061 12.945 16.171C12.819 16.281 12.737 16.424 12.706 16.598L12.665 16.787L12.112 20.266L12.091 20.417C12.058 20.592 11.976 20.733 11.844 20.843C11.714 20.954 11.566 21.009 11.397 21.009H8.87399C8.73199 21.009 8.62199 20.96 8.54299 20.859C8.46299 20.757 8.43299 20.638 8.45299 20.496C8.51399 20.123 8.60099 19.558 8.71999 18.807C8.83699 18.057 8.92599 17.493 8.98699 17.118C9.04799 16.743 9.13699 16.18 9.25899 15.433C9.37999 14.685 9.47099 14.123 9.52999 13.748C9.56299 13.5 9.70899 13.377 9.96299 13.377H11.279C12.172 13.39 12.961 13.32 13.654 13.166C14.826 12.904 15.788 12.422 16.54 11.717C17.225 11.08 17.743 10.255 18.1 9.24397C18.262 8.77397 18.377 8.32697 18.452 7.90597C18.458 7.86497 18.466 7.83997 18.477 7.83197C18.485 7.82097 18.499 7.81797 18.512 7.82097C18.524 7.82497 18.544 7.83697 18.574 7.85597C19.098 8.25397 19.428 8.79697 19.554 9.48797ZM17.826 6.65197C17.826 7.36897 17.672 8.15997 17.361 9.02597C16.824 10.588 15.814 11.644 14.324 12.194C13.566 12.463 12.722 12.602 11.789 12.619C11.789 12.625 11.488 12.626 10.885 12.626L9.98199 12.619C9.30999 12.619 8.91499 12.939 8.79499 13.583C8.78199 13.636 8.49699 15.413 7.93999 18.912C7.93199 18.978 7.89199 19.014 7.81899 19.014H4.85399C4.70599 19.014 4.58299 18.959 4.48499 18.849C4.38699 18.737 4.34999 18.608 4.36999 18.459L6.70199 3.66397C6.73399 3.46897 6.82699 3.30997 6.97799 3.18097C7.12899 3.05397 7.30299 2.99097 7.49699 2.99097H13.511C13.739 2.99097 14.066 3.03497 14.49 3.12197C14.918 3.20597 15.291 3.31597 15.613 3.44297C16.331 3.71697 16.879 4.13097 17.258 4.67997C17.637 5.23197 17.826 5.88697 17.826 6.65197Z" fill="#2E3A59"/>
</svg>
