<svg width="24" height="24" viewBox="0 0 24 24" fill="none" xmlns="http://www.w3.org/2000/svg">
<path d="M12.166 3C12.962 3 15.661 3.223 16.935 6.073C17.361 7.032 17.259 8.662 17.175 9.971L17.173 10.018C17.162 10.164 17.155 10.296 17.149 10.428C17.21 10.465 17.313 10.5 17.471 10.5C17.712 10.487 18.001 10.404 18.302 10.259C18.435 10.189 18.578 10.175 18.675 10.175C18.821 10.175 18.964 10.198 19.084 10.247C19.445 10.367 19.674 10.632 19.674 10.921C19.687 11.282 19.361 11.596 18.699 11.86C18.628 11.883 18.53 11.921 18.423 11.956C18.06 12.065 17.506 12.245 17.35 12.607C17.278 12.788 17.301 13.028 17.448 13.304L17.46 13.317C17.508 13.426 18.688 16.112 21.314 16.546C21.518 16.581 21.663 16.763 21.651 16.955C21.651 17.015 21.638 17.074 21.615 17.136C21.422 17.593 20.592 17.931 19.085 18.157C19.038 18.23 18.989 18.459 18.953 18.616C18.931 18.76 18.893 18.905 18.846 19.06C18.785 19.278 18.629 19.385 18.4 19.385H18.376C18.269 19.385 18.125 19.362 17.943 19.326C17.654 19.265 17.329 19.218 16.919 19.218C16.679 19.218 16.439 19.23 16.187 19.278C15.704 19.362 15.283 19.651 14.801 19.988C14.114 20.469 13.332 21.024 12.152 21.024C12.104 21.024 12.056 21.012 12.006 21.012H11.887C10.706 21.012 9.93599 20.469 9.24999 19.976C8.76899 19.638 8.35999 19.35 7.87699 19.265C7.62499 19.23 7.37099 19.205 7.13199 19.205C6.69699 19.205 6.36099 19.277 6.10899 19.325C5.93899 19.36 5.79499 19.384 5.67399 19.384C5.37299 19.384 5.25399 19.205 5.20399 19.047C5.15599 18.893 5.13299 18.734 5.09699 18.591C5.05899 18.445 5.01199 18.195 4.96399 18.133C3.42099 17.954 2.59099 17.616 2.39899 17.147C2.37399 17.096 2.35699 17.027 2.35499 16.966C2.34199 16.771 2.48799 16.592 2.69199 16.557C5.31699 16.123 6.49699 13.438 6.54599 13.325L6.55899 13.302C6.70399 13.025 6.73899 12.782 6.65499 12.603C6.49899 12.254 5.94399 12.074 5.58499 11.953C5.48699 11.93 5.39099 11.893 5.30599 11.857C4.41599 11.507 4.29499 11.109 4.34399 10.833C4.41599 10.449 4.88499 10.196 5.28299 10.196C5.39999 10.196 5.49999 10.219 5.59099 10.256C5.92799 10.411 6.22599 10.497 6.47899 10.497C6.66699 10.497 6.78799 10.449 6.85199 10.412L6.81099 9.954C6.73099 8.647 6.62899 7.019 7.05799 6.065C8.29399 3.229 10.987 3.011 11.782 3.011L12.117 3H12.166Z" fill="black"/>
</svg>
