<svg width="24" height="24" viewBox="0 0 24 24" fill="none" xmlns="http://www.w3.org/2000/svg">
<path d="M12.01 2.01904C6.51498 2.01904 2.01898 6.51504 2.01898 12.01C2.01898 17.504 6.51498 22 12.01 22C17.504 22 22 17.504 22 12.01C22 6.51504 17.554 2.01904 12.01 2.01904ZM16.605 16.455C16.406 16.754 16.056 16.855 15.755 16.656C13.406 15.206 10.459 14.906 6.96198 15.705C6.61398 15.807 6.31398 15.557 6.21398 15.256C6.11298 14.906 6.36298 14.608 6.66398 14.507C10.459 13.657 13.757 14.008 16.354 15.607C16.704 15.756 16.754 16.155 16.605 16.455ZM17.805 13.708C17.554 14.057 17.105 14.207 16.754 13.957C14.057 12.311 9.96198 11.809 6.81498 12.809C6.41698 12.91 5.96498 12.709 5.86598 12.311C5.76498 11.909 5.96598 11.459 6.36498 11.359C10.011 10.261 14.508 10.811 17.604 12.71C17.904 12.859 18.054 13.358 17.805 13.708ZM17.904 10.909C14.707 9.01204 9.36198 8.81204 6.31398 9.76304C5.81498 9.91104 5.31398 9.61204 5.16598 9.16304C5.01598 8.66104 5.31398 8.16204 5.76498 8.01204C9.31198 6.96304 15.157 7.16204 18.854 9.36304C19.303 9.61204 19.453 10.212 19.203 10.661C18.953 11.011 18.354 11.159 17.904 10.909Z" fill="black"/>
</svg>
