<svg width="24" height="24" viewBox="0 0 24 24" fill="none" xmlns="http://www.w3.org/2000/svg">
<path fill-rule="evenodd" clip-rule="evenodd" d="M12 2C6.47936 2 2 6.47936 2 12C2 17.5206 6.47936 22 12 22C17.5099 22 22 17.5208 22 12C22 6.47922 17.5099 2 12 2ZM13.2489 8.5232C12.0921 6.42196 10.8514 4.66061 10.3687 3.99325C10.8926 3.89007 11.4384 3.83829 12 3.83829C14.0117 3.83829 15.8577 4.56889 17.2836 5.77585C16.9212 6.23032 15.6989 7.56779 13.2489 8.5232ZM11.2461 9.14209C7.90603 9.99802 4.94487 10.083 4.04692 10.0912C4.61822 7.7174 6.23488 5.74138 8.37644 4.67675C8.76767 5.21642 10.0278 7.01343 11.2461 9.14209ZM14.0743 10.1131C16.6374 9.02737 18.0135 7.57672 18.4747 7.02872C19.4803 8.33061 20.0969 9.94409 20.1663 11.6876C19.3988 11.5471 17.0565 11.1728 14.6631 11.4476C14.6493 11.414 14.6359 11.3802 14.6221 11.3453C14.5979 11.2845 14.5724 11.2202 14.5411 11.1471C14.3962 10.803 14.2363 10.452 14.0743 10.1131ZM3.81702 12.0106V11.9548C4.74682 11.9609 8.3688 11.898 12.1236 10.7986C12.3027 11.149 12.4709 11.5054 12.6327 11.8637C12.5941 11.8748 12.5554 11.8859 12.5179 11.8972L12.514 11.8985C8.60725 13.159 6.33316 16.3573 5.74256 17.275C4.54612 15.8558 3.81702 14.0137 3.81702 12.0106ZM16.8074 18.6068C16.6495 17.7579 16.2069 15.6608 15.307 13.1376C17.5091 12.8423 19.437 13.3066 20.0299 13.4771C19.6584 15.5753 18.4706 17.3968 16.8074 18.6068ZM7.11387 18.5583C7.49182 17.8659 9.22299 15.1039 13.3748 13.6118C14.4282 16.3827 14.8979 18.7205 15.0547 19.5891C14.108 19.9759 13.078 20.183 12 20.183C10.1683 20.183 8.47363 19.5784 7.11387 18.5583ZM13.5201 13.5591L13.5231 13.5577L13.5213 13.5587L13.5201 13.5591Z" fill="#2E3A59"/>
</svg>
