<svg width="24" height="24" viewBox="0 0 24 24" fill="none" xmlns="http://www.w3.org/2000/svg">
<path d="M21.593 7.20301C21.363 6.34501 20.688 5.66801 19.831 5.43701C18.265 5.00701 12 5.00001 12 5.00001C12 5.00001 5.73596 4.99301 4.16896 5.40401C3.32896 5.63301 2.63496 6.32501 2.40296 7.18201C1.98996 8.74801 1.98596 11.996 1.98596 11.996C1.98596 11.996 1.98196 15.26 2.39196 16.81C2.62196 17.667 3.29696 18.344 4.15496 18.575C5.73696 19.005 11.985 19.012 11.985 19.012C11.985 19.012 18.25 19.019 19.816 18.609C20.672 18.379 21.35 17.703 21.583 16.846C21.997 15.281 22 12.034 22 12.034C22 12.034 22.02 8.76901 21.593 7.20301ZM9.99596 15.005L10.001 9.00501L15.208 12.01L9.99596 15.005Z" fill="#2E3A59"/>
</svg>
