<svg width="24" height="24" viewBox="0 0 24 24" fill="none" xmlns="http://www.w3.org/2000/svg">
<path fill-rule="evenodd" clip-rule="evenodd" d="M19.9276 8.65196C19.9307 8.66123 19.9338 8.67057 19.937 8.68C19.965 8.764 19.982 8.85 19.987 8.938C19.9879 8.94813 19.9907 8.95762 19.9935 8.96697C19.9968 8.97792 20 8.98867 20 9V20C20 21.103 19.103 22 18 22H6C4.897 22 4 21.103 4 20V4C4 2.897 4.897 2 6 2H13C13.0113 2 13.0221 2.0032 13.033 2.00647C13.0424 2.00925 13.0519 2.01208 13.062 2.013C13.151 2.018 13.237 2.036 13.321 2.064C13.331 2.06743 13.3409 2.07056 13.3509 2.07368C13.3727 2.08057 13.3943 2.08736 13.415 2.097C13.521 2.146 13.622 2.207 13.708 2.293L19.708 8.293C19.794 8.379 19.855 8.48 19.904 8.586C19.9132 8.60787 19.9204 8.62974 19.9276 8.65196ZM14 8H16.586L14 5.414V8ZM6 4V20H18.002L18 10H13C12.447 10 12 9.553 12 9V4H6Z" fill="#2E3A59"/>
<path d="M13 12H11V14H9V16H11V18H13V16H15V14H13V12Z" fill="#2E3A59"/>
</svg>
