<svg width="24" height="24" viewBox="0 0 24 24" fill="none" xmlns="http://www.w3.org/2000/svg">
<path d="M10.4269 7.44769C9.97079 8.41507 9.5011 9.42282 9.06404 10.407C8.61551 9.41865 8.14492 8.41643 7.68114 7.44096C7.65809 7.38953 7.61992 7.32266 7.54524 7.27836C7.47343 7.23577 7.39777 7.2326 7.34946 7.2326H5.91613C5.83082 7.2326 5.73544 7.27397 5.68195 7.36345C5.62312 7.46188 5.64098 7.57015 5.6933 7.65128L7.84983 11.9645L5.62117 16.2265C5.58062 16.2849 5.54771 16.3735 5.5786 16.4709C5.62106 16.6049 5.74555 16.6502 5.84113 16.6502H7.21613C7.27596 16.6502 7.34167 16.6386 7.40478 16.6C7.46515 16.5631 7.506 16.512 7.53591 16.4639L7.54156 16.4548L7.54622 16.4452C8.02059 15.4631 8.50817 14.4214 8.96223 13.4139C9.31543 14.1593 9.66232 14.8746 10.0045 15.5803C10.1435 15.8669 10.2818 16.152 10.4194 16.4368L10.4204 16.439C10.4483 16.495 10.49 16.5606 10.5631 16.6058C10.6362 16.6509 10.7133 16.6586 10.7745 16.6586H12.2245C12.3339 16.6586 12.4364 16.5967 12.4774 16.4868C12.5127 16.3924 12.4903 16.2975 12.4492 16.2272L10.1663 11.8241L12.3243 7.63874C12.36 7.57765 12.3938 7.47892 12.3476 7.37588C12.2945 7.25747 12.1791 7.22424 12.0995 7.22424H10.7578C10.677 7.22424 10.601 7.24658 10.5367 7.30191C10.4908 7.34144 10.4588 7.3934 10.4422 7.42051L10.438 7.42727L10.4319 7.43716L10.4269 7.44769Z" fill="#2E3A59"/>
<path fill-rule="evenodd" clip-rule="evenodd" d="M16.5411 7.2326C16.4015 7.2326 16.2578 7.34353 16.2578 7.51625V9.51872C16.1867 9.51629 16.1164 9.51629 16.0263 9.51629H16.0245C14.9471 9.51629 14.0575 9.91773 13.4383 10.5851C12.8206 11.2508 12.4828 12.1693 12.4828 13.1878C12.4828 14.363 12.817 15.2674 13.4114 15.8777C14.0061 16.4882 14.8376 16.78 15.7833 16.7757C16.5117 16.7756 17.2745 16.619 18.0024 16.271L18.0058 16.2693C18.0313 16.2565 18.086 16.229 18.127 16.1756C18.1752 16.1126 18.1828 16.045 18.1828 15.9985V15.9851L18.181 15.9718C18.1413 15.6772 18.1411 15.4052 18.1411 15.1787V7.49952C18.1411 7.45764 18.1337 7.37109 18.0599 7.3032C17.9916 7.24034 17.9077 7.2326 17.8578 7.2326H16.5411ZM14.8416 11.6661C15.1159 11.3424 15.5046 11.1627 15.9745 11.1627C16.0856 11.1627 16.1809 11.1743 16.2578 11.1919V15.0414C16.1488 15.0668 16.0168 15.0791 15.8828 15.0791C15.4572 15.0791 15.0939 14.9407 14.834 14.6452C14.5713 14.3464 14.3911 13.8604 14.3911 13.1209C14.3911 12.4825 14.5648 11.9927 14.8416 11.6661Z" fill="#2E3A59"/>
<path fill-rule="evenodd" clip-rule="evenodd" d="M18 4H6C4.89543 4 4 4.89543 4 6V18C4 19.1046 4.89543 20 6 20H18C19.1046 20 20 19.1046 20 18V6C20 4.89543 19.1046 4 18 4ZM6 2C3.79086 2 2 3.79086 2 6V18C2 20.2091 3.79086 22 6 22H18C20.2091 22 22 20.2091 22 18V6C22 3.79086 20.2091 2 18 2H6Z" fill="#2E3A59"/>
</svg>
