<svg width="24" height="24" viewBox="0 0 24 24" fill="none" xmlns="http://www.w3.org/2000/svg">
<path d="M18 22H6C4.89543 22 4 21.1046 4 20V4.00002C4 2.89545 4.89543 2.00002 6 2.00002H13C13.009 1.99886 13.018 1.99886 13.027 2.00002H13.033C13.0424 2.00298 13.0522 2.00498 13.062 2.00602C13.1502 2.01167 13.2373 2.02882 13.321 2.05702H13.336H13.351H13.363C13.3815 2.06994 13.3988 2.08432 13.415 2.10002C13.5239 2.14844 13.6232 2.2162 13.708 2.30002L19.708 8.30002C19.7918 8.3848 19.8596 8.48407 19.908 8.59302C19.917 8.61502 19.924 8.63602 19.931 8.65902L19.941 8.68702C19.9689 8.77041 19.9854 8.8572 19.99 8.94502C19.9909 8.95498 19.9932 8.96475 19.997 8.97402V8.98002C19.9986 8.98657 19.9996 8.99327 20 9.00002V20C20 20.5305 19.7893 21.0392 19.4142 21.4142C19.0391 21.7893 18.5304 22 18 22ZM15.5 14C15.0461 13.9756 14.6102 14.1802 14.339 14.545C14.0466 15.0059 13.9066 15.5471 13.939 16.092V16.968C13.9107 17.5067 14.0627 18.0394 14.371 18.482C14.661 18.8312 15.0987 19.0231 15.552 19C15.8315 19.0028 16.1088 18.9505 16.368 18.846L16.381 18.841L16.365 18.848C16.6095 18.7467 16.8257 18.5875 16.995 18.384V16.373H15.486V17.115H16.109V18.008L16.031 18.068C15.9044 18.1507 15.7551 18.1916 15.604 18.185C15.3662 18.2029 15.1382 18.0873 15.012 17.885C14.8732 17.5818 14.812 17.2488 14.834 16.916V16.033C14.8156 15.7156 14.8725 15.3983 15 15.107C15.1027 14.9163 15.3067 14.8024 15.523 14.815C15.6866 14.8017 15.8472 14.8648 15.958 14.986C16.0745 15.1761 16.1351 15.3951 16.133 15.618H17C17.0025 15.1728 16.8533 14.7401 16.577 14.391C16.2902 14.113 15.8983 13.9708 15.5 14V14ZM7 17.4C6.99378 17.6963 7.06258 17.9894 7.2 18.252C7.32645 18.4858 7.51734 18.6785 7.75 18.807C7.98706 18.936 8.25311 19.0025 8.523 19C8.8888 19.0191 9.24693 18.8905 9.517 18.643C9.77111 18.3769 9.90361 18.0174 9.883 17.65C9.89568 17.3093 9.79239 16.9744 9.59 16.7C9.3393 16.4113 9.01725 16.1934 8.656 16.068C8.46566 15.9897 8.29167 15.8764 8.143 15.734C8.05048 15.6343 7.99936 15.5031 8 15.367C7.99242 15.2198 8.03862 15.0748 8.13 14.959C8.22087 14.8546 8.35475 14.7978 8.493 14.805C8.64125 14.7974 8.78323 14.8656 8.87 14.986C8.96683 15.1392 9.01236 15.3192 9 15.5H9.886C9.89027 15.2295 9.83138 14.9618 9.714 14.718C9.60755 14.4969 9.43812 14.3121 9.227 14.187C9.00802 14.0597 8.75826 13.995 8.505 14C8.13551 13.9887 7.77637 14.123 7.505 14.374C7.23968 14.6318 7.09675 14.9904 7.112 15.36C7.10581 15.6786 7.20846 15.9897 7.403 16.242C7.66072 16.5345 7.9877 16.7576 8.354 16.891C8.53988 16.9628 8.70979 17.0705 8.854 17.208C8.955 17.3346 9.00463 17.4945 8.993 17.656C8.993 18.017 8.836 18.2 8.528 18.2C8.3457 18.2168 8.16622 18.1463 8.044 18.01C7.93085 17.8269 7.879 17.6126 7.896 17.398L7 17.4ZM10.182 14.068L11.442 18.934H12.367L13.636 14.068H12.645L11.9 17.6L11.163 14.071L10.182 14.068ZM13 4.00002V9.00002H18L13 4.00002Z" fill="black"/>
</svg>
