<svg width="24" height="24" viewBox="0 0 24 24" fill="none" xmlns="http://www.w3.org/2000/svg">
<path d="M20 17.5556V6.44444C20 4.03556 16.337 2 12 2C7.663 2 4 4.03556 4 6.44444V17.5556C4 19.9644 7.663 22 12 22C16.337 22 20 19.9644 20 17.5556ZM12 4.22222C15.691 4.22222 17.931 5.89667 18 6.43778C17.931 6.99222 15.691 8.66667 12 8.66667C8.309 8.66667 6.069 6.99222 6 6.45111C6.069 5.89667 8.309 4.22222 12 4.22222ZM6 9.34111C7.479 10.2822 9.637 10.8889 12 10.8889C14.363 10.8889 16.521 10.2822 18 9.34111V11.9933C17.931 12.5478 15.691 14.2222 12 14.2222C8.309 14.2222 6.069 12.5478 6 12V9.34111ZM6 17.5556V14.8967C7.479 15.8378 9.637 16.4444 12 16.4444C14.363 16.4444 16.521 15.8378 18 14.8967V17.5489C17.931 18.1033 15.691 19.7778 12 19.7778C8.309 19.7778 6.069 18.1033 6 17.5556Z" fill="#2E3A59"/>
</svg>
