<svg width="24" height="24" viewBox="0 0 24 24" fill="none" xmlns="http://www.w3.org/2000/svg">
<g id="Navigation / Building_04">
<path id="Vector" d="M2 20H4M4 20H14M4 20V6.2002C4 5.08009 4 4.51962 4.21799 4.0918C4.40973 3.71547 4.71547 3.40973 5.0918 3.21799C5.51962 3 6.08009 3 7.2002 3H10.8002C11.9203 3 12.4796 3 12.9074 3.21799C13.2837 3.40973 13.5905 3.71547 13.7822 4.0918C14 4.5192 14 5.07899 14 6.19691V12M14 20H20M14 20V12M20 20H22M20 20V12C20 11.0681 19.9999 10.6024 19.8477 10.2349C19.6447 9.74481 19.2557 9.35523 18.7656 9.15224C18.3981 9 17.9316 9 16.9997 9C16.0679 9 15.6019 9 15.2344 9.15224C14.7443 9.35523 14.3552 9.74481 14.1522 10.2349C14 10.6024 14 11.0681 14 12M7 10H11M7 7H11" stroke="currentColor" stroke-width="2" stroke-linecap="round" stroke-linejoin="round"/>
</g>
</svg>
