<svg width="24" height="24" viewBox="0 0 24 24" fill="none" xmlns="http://www.w3.org/2000/svg">
<g id="Navigation / Building_03">
<path id="Vector" d="M2 20H4M4 20H15M4 20V14.3682C4 13.8428 4 13.58 4.063 13.335C4.11883 13.1178 4.21073 12.9118 4.33496 12.7252C4.47505 12.5147 4.67114 12.3384 5.06152 11.9877L7.3631 9.91997C8.11784 9.24192 8.49549 8.90264 8.92249 8.77393C9.29894 8.66045 9.7007 8.66045 10.0771 8.77393C10.5045 8.90275 10.8827 9.2422 11.6387 9.92139L13.9387 11.9877C14.3295 12.3388 14.5245 12.5146 14.6647 12.7252C14.7889 12.9118 14.8807 13.1178 14.9365 13.335C14.9995 13.58 15 13.8428 15 14.3682V20M15 20H20M20 20H22M20 20V7.19691C20 6.07899 20 5.5192 19.7822 5.0918C19.5905 4.71547 19.2837 4.40973 18.9074 4.21799C18.4796 4 17.9203 4 16.8002 4H10.2002C9.08009 4 8.51962 4 8.0918 4.21799C7.71547 4.40973 7.40973 4.71547 7.21799 5.0918C7 5.51962 7 6.08009 7 7.2002V10.0002" stroke="currentColor" stroke-width="2" stroke-linecap="round" stroke-linejoin="round"/>
</g>
</svg>
