<svg width="24" height="24" viewBox="0 0 24 24" fill="none" xmlns="http://www.w3.org/2000/svg">
<g id="Navigation / House_Check">
<path id="Vector" d="M15 11.0001L11 15.0001L9 13.0001M4 16.8002V11.4522C4 10.9179 4 10.6506 4.06497 10.4019C4.12255 10.1816 4.21779 9.97307 4.3457 9.78464C4.49004 9.57201 4.69064 9.39569 5.09277 9.04383L9.89436 4.84244C10.6398 4.19014 11.0126 3.86397 11.4324 3.73982C11.8026 3.63035 12.1972 3.63035 12.5674 3.73982C12.9875 3.86406 13.3608 4.19054 14.1074 4.84383L18.9074 9.04383C19.3096 9.39569 19.5102 9.57201 19.6546 9.78464C19.7825 9.97307 19.877 10.1816 19.9346 10.4019C19.9995 10.6506 20 10.9179 20 11.4522V16.8037C20 17.9216 20 18.4811 19.7822 18.9086C19.5905 19.2849 19.2837 19.5906 18.9074 19.7823C18.48 20.0001 17.921 20.0001 16.8031 20.0001H7.19691C6.07899 20.0001 5.5192 20.0001 5.0918 19.7823C4.71547 19.5906 4.40973 19.2849 4.21799 18.9086C4 18.4807 4 17.9203 4 16.8002Z" stroke="currentColor" stroke-width="2" stroke-linecap="round" stroke-linejoin="round"/>
</g>
</svg>
