<svg width="24" height="24" viewBox="0 0 24 24" fill="none" xmlns="http://www.w3.org/2000/svg">
<g id="Navigation / House_03">
<path id="Vector" d="M2 20.0001H4M4 20.0001H10M4 20.0001V11.4522C4 10.9179 4 10.6506 4.06497 10.4019C4.12255 10.1816 4.21779 9.97307 4.3457 9.78464C4.49004 9.57201 4.69064 9.39569 5.09277 9.04383L9.89436 4.84244C10.6398 4.19014 11.0126 3.86397 11.4324 3.73982C11.8026 3.63035 12.1972 3.63035 12.5674 3.73982C12.9875 3.86406 13.3608 4.19054 14.1074 4.84383L18.9074 9.04383C19.3095 9.39568 19.5102 9.57202 19.6546 9.78464C19.7825 9.97307 19.877 10.1816 19.9346 10.4019C19.9995 10.6506 20 10.9179 20 11.4522V20.0001M10 20.0001H14M10 20.0001V16.0001C10 14.8955 10.8954 14.0001 12 14.0001C13.1046 14.0001 14 14.8955 14 16.0001V20.0001M14 20.0001H20M20 20.0001H22" stroke="currentColor" stroke-width="2" stroke-linecap="round" stroke-linejoin="round"/>
</g>
</svg>
