<svg width="24" height="24" viewBox="0 0 24 24" fill="none" xmlns="http://www.w3.org/2000/svg">
<path d="M12 22C6.47715 22 2 17.5228 2 12C2 6.47715 6.47715 2 12 2C17.5228 2 22 6.47715 22 12C21.9939 17.5203 17.5203 21.9939 12 22ZM7.12 18.545L7.115 18.555C9.39805 20.2653 12.4093 20.6571 15.054 19.588C14.6749 17.5493 14.113 15.5489 13.375 13.611C11.6799 14.202 10.1302 15.1473 8.829 16.384C8.18773 16.9912 7.63257 17.6833 7.179 18.441L7.172 18.452V18.442L7.154 18.477L7.142 18.497L7.135 18.51L7.118 18.546L7.12 18.545ZM16.779 13.045C16.2867 13.0457 15.7949 13.0791 15.307 13.145C15.9442 14.9255 16.4456 16.7517 16.807 18.608C18.5064 17.383 19.6615 15.5438 20.027 13.481C18.969 13.1891 17.8765 13.0414 16.779 13.042V13.045ZM3.817 11.955V12.011C3.81882 13.9376 4.50052 15.8017 5.742 17.275C7.35028 14.7905 9.72927 12.9023 12.514 11.9L12.633 11.866C12.456 11.475 12.29 11.126 12.124 10.8C9.45593 11.5481 6.6999 11.9365 3.929 11.955H3.817ZM16.466 11.349C17.7068 11.3536 18.9449 11.4667 20.166 11.687C20.1024 9.99541 19.5107 8.3662 18.474 7.028C17.2642 8.38093 15.7585 9.43634 14.074 10.112L14.103 10.1L14.072 10.113C14.251 10.486 14.408 10.835 14.539 11.146C14.57 11.22 14.596 11.284 14.62 11.346L14.661 11.446C15.2603 11.3795 15.863 11.3471 16.466 11.349ZM8.377 4.677C6.20231 5.75037 4.61618 7.73358 4.047 10.091C6.37738 10.055 8.69657 9.76053 10.962 9.213H10.975H10.99L11 9.2L11.054 9.187H11.06L11.1 9.179H11.109H11.116L11.137 9.173L11.177 9.163L11.2 9.153L11.222 9.147H11.232H11.242C9.909 6.8 8.529 4.887 8.376 4.677H8.377ZM12 3.83897C11.4526 3.83762 10.9063 3.88953 10.369 3.994C11.4166 5.44558 12.3779 6.95753 13.248 8.522C14.8061 7.96705 16.1958 7.02157 17.284 5.776C15.8067 4.5266 13.9348 3.84041 12 3.83897Z" fill="black"/>
</svg>
