<svg width="24" height="24" viewBox="0 0 24 24" fill="none" xmlns="http://www.w3.org/2000/svg">
<path d="M12 22.001L10.8 21.995C7.075 21.955 4.818 21.695 3.562 20.439C2.306 19.183 2.047 16.924 2.006 13.201L2 11.691L2.006 10.801C1.97819 9.23319 2.09536 7.66619 2.356 6.11998C2.49496 5.12098 2.9506 4.19288 3.656 3.47198C4.973 2.25398 7.293 2.02098 11.388 2.00098L13.2 2.00598C17.161 2.04898 19.4 2.33098 20.615 3.75398C21.793 5.12798 22 7.50798 22 12.001L21.995 13.201C21.952 17.162 21.67 19.401 20.246 20.616C18.872 21.793 16.492 22.001 12 22.001ZM7.667 7.00098C7.33632 7.00122 7.05543 7.24301 7.006 7.56998L7 7.66698V11.333C7.00108 11.6628 7.24203 11.9428 7.568 11.993L7.668 12H8.25C10.245 11.9981 11.8926 13.5579 12 15.55V15.75V16.332C12.0018 16.6617 12.2423 16.9415 12.568 16.993L12.668 17H16.335C16.6653 16.9992 16.9456 16.7576 16.995 16.431L17.002 16.331V15.749C17.0035 11.0153 13.2397 7.13895 8.508 7.00098H8.25H7.667Z" fill="black"/>
</svg>
