<svg width="24" height="24" viewBox="0 0 24 24" fill="none" xmlns="http://www.w3.org/2000/svg">
<path d="M12.0101 22C7.96879 22.0053 4.3234 19.5723 2.77773 15.8383C1.23206 12.1042 2.0914 7.80657 4.9541 4.954C7.47327 2.42574 11.151 1.43555 14.599 2.35723C18.047 3.2789 20.7402 5.97206 21.6619 9.42008C22.5836 12.8681 21.5934 16.5458 19.0651 19.065C17.1998 20.9462 14.6594 22.0031 12.0101 22ZM10.5281 15.272C12.3658 15.2337 14.1772 15.7133 15.7551 16.656C15.8524 16.7213 15.9669 16.7561 16.0841 16.756C16.2976 16.7506 16.494 16.6378 16.6061 16.456C16.6934 16.2875 16.7085 16.0909 16.6481 15.911C16.597 15.7742 16.4906 15.6653 16.3551 15.611C14.5785 14.5542 12.5408 14.0175 10.4741 14.062C9.19183 14.0718 7.91451 14.2224 6.6651 14.511C6.33753 14.5983 6.13836 14.9298 6.2151 15.26C6.29244 15.5265 6.5291 15.7155 6.8061 15.732C6.85926 15.7318 6.91212 15.7241 6.9631 15.709C8.13144 15.431 9.3272 15.2844 10.5281 15.272ZM10.3381 12.296C12.5864 12.2695 14.8011 12.8429 16.7541 13.957C16.8654 14.0379 16.9995 14.0813 17.1371 14.081C17.4066 14.0705 17.6548 13.9319 17.8051 13.708C17.9225 13.5367 17.9591 13.3226 17.9051 13.122C17.8685 12.9481 17.7594 12.7982 17.6051 12.71C15.3968 11.4347 12.887 10.7748 10.3371 10.799C8.99286 10.7908 7.65467 10.9794 6.3651 11.359C5.96886 11.4894 5.74759 11.9107 5.8651 12.311C5.9632 12.6345 6.26848 12.8499 6.6061 12.834C6.67787 12.8347 6.74944 12.8263 6.8191 12.809C7.95889 12.4587 9.14575 12.2857 10.3381 12.296ZM10.5271 9.208C13.0911 9.13404 15.6311 9.71938 17.9041 10.908C18.0573 10.9917 18.2295 11.0348 18.4041 11.033C18.7142 11.0395 19.0097 10.9017 19.2041 10.66C19.325 10.4388 19.3565 10.1797 19.2921 9.936C19.2319 9.69286 19.0742 9.48526 18.8561 9.362C16.2929 7.99965 13.4209 7.32309 10.5191 7.398C8.91233 7.38147 7.31104 7.58811 5.7611 8.012C5.32574 8.14664 5.05581 8.58113 5.12799 9.03109C5.20018 9.48105 5.59247 9.8093 6.0481 9.801C6.13681 9.80108 6.22507 9.78828 6.3101 9.763C7.68138 9.37421 9.10191 9.18691 10.5271 9.207V9.208Z" fill="black"/>
</svg>
