<svg width="24" height="24" viewBox="0 0 24 24" fill="none" xmlns="http://www.w3.org/2000/svg">
<path d="M13.4472 20.9051C13.786 20.7376 14 20.3951 14 20.0204V14.6999C14 14.4376 14.1054 14.186 14.2929 14.0005L20.414 7.94576C20.789 7.57483 21 7.07135 21 6.54611V3.98915C21 3.44215 20.553 3 20 3H4C3.447 3 3 3.44215 3 3.98915V6.54611C3 7.07135 3.211 7.57483 3.586 7.94576L9.70711 14.0005C9.89464 14.186 10 14.4376 10 14.6999V21.0096C10 21.7449 10.7823 22.2231 11.4472 21.8943L13.4472 20.9051Z" fill="black"/>
</svg>
