<svg width="24" height="24" viewBox="0 0 24 24" fill="none" xmlns="http://www.w3.org/2000/svg">
<g id="System / Bar_Top">
<path id="Vector" d="M4 9H20M4 9V16.8002C4 17.9203 4 18.4796 4.21799 18.9074C4.40973 19.2837 4.71547 19.5905 5.0918 19.7822C5.5192 20 6.07901 20 7.19692 20H16.8031C17.921 20 18.48 20 18.9074 19.7822C19.2837 19.5905 19.5905 19.2837 19.7822 18.9074C20 18.48 20 17.921 20 16.8031V9M4 9V7.2002C4 6.08009 4 5.51962 4.21799 5.0918C4.40973 4.71547 4.71547 4.40973 5.0918 4.21799C5.51962 4 6.08009 4 7.2002 4H16.8002C17.9203 4 18.4796 4 18.9074 4.21799C19.2837 4.40973 19.5905 4.71547 19.7822 5.0918C20 5.5192 20 6.07899 20 7.19691V9" stroke="currentColor" stroke-width="2" stroke-linecap="round" stroke-linejoin="round"/>
</g>
</svg>
