<svg width="24" height="24" viewBox="0 0 24 24" fill="none" xmlns="http://www.w3.org/2000/svg">
<g id="System / Devices">
<path id="Vector" d="M6 7.5002V7.2002C6 6.08009 6 5.51962 6.21799 5.0918C6.40973 4.71547 6.71547 4.40973 7.0918 4.21799C7.51962 4 8.08009 4 9.2002 4H17.8002C18.9203 4 19.4796 4 19.9074 4.21799C20.2837 4.40973 20.5905 4.71547 20.7822 5.0918C21 5.5192 21 6.07899 21 7.19691V13.8031C21 14.921 21 15.48 20.7822 15.9074C20.5905 16.2837 20.2839 16.5905 19.9076 16.7822C19.4802 17 18.921 17 17.8031 17H10.5M3 16.8002V11.2002C3 10.0801 3 9.51962 3.21799 9.0918C3.40973 8.71547 3.71547 8.40973 4.0918 8.21799C4.51962 8 5.08009 8 6.2002 8H6.80019C7.9203 8 8.47957 8 8.9074 8.21799C9.28372 8.40973 9.59048 8.71547 9.78223 9.0918C10 9.5192 10 10.079 10 11.1969V16.8031C10 17.921 10 18.48 9.78223 18.9074C9.59048 19.2837 9.28372 19.5905 8.9074 19.7822C8.47999 20 7.921 20 6.80309 20H6.19691C5.07899 20 4.5192 20 4.0918 19.7822C3.71547 19.5905 3.40973 19.2837 3.21799 18.9074C3 18.4796 3 17.9203 3 16.8002Z" stroke="currentColor" stroke-width="2" stroke-linecap="round" stroke-linejoin="round"/>
</g>
</svg>
