<svg width="24" height="24" viewBox="0 0 24 24" fill="none" xmlns="http://www.w3.org/2000/svg">
<g id="System / Tablet_Button">
<path id="Vector" d="M3 6.2002V17.8002C3 18.9203 3 19.4801 3.21799 19.9079C3.40973 20.2842 3.71547 20.5905 4.0918 20.7822C4.5192 21 5.07899 21 6.19691 21H17.8031C18.921 21 19.48 21 19.9074 20.7822C20.2837 20.5905 20.5905 20.2842 20.7822 19.9079C21 19.4805 21 18.9215 21 17.8036V6.19691C21 5.07899 21 4.5192 20.7822 4.0918C20.5905 3.71547 20.2837 3.40973 19.9074 3.21799C19.4796 3 18.9203 3 17.8002 3H6.2002C5.08009 3 4.51962 3 4.0918 3.21799C3.71547 3.40973 3.40973 3.71547 3.21799 4.0918C3 4.51962 3 5.08009 3 6.2002Z" stroke="currentColor" stroke-width="2" stroke-linecap="round" stroke-linejoin="round"/>
</g>
</svg>
