<svg width="24" height="24" viewBox="0 0 24 24" fill="none" xmlns="http://www.w3.org/2000/svg">
<g id="System / Tablet">
<path id="Vector" d="M4 6.2002V17.8002C4 18.9203 4 19.4801 4.21799 19.9079C4.40973 20.2842 4.71547 20.5905 5.0918 20.7822C5.5192 21 6.07899 21 7.19691 21H16.8031C17.921 21 18.48 21 18.9074 20.7822C19.2837 20.5905 19.5905 20.2842 19.7822 19.9079C20 19.4805 20 18.9215 20 17.8036V6.19691C20 5.07899 20 4.5192 19.7822 4.0918C19.5905 3.71547 19.2837 3.40973 18.9074 3.21799C18.4796 3 17.9203 3 16.8002 3H7.2002C6.08009 3 5.51962 3 5.0918 3.21799C4.71547 3.40973 4.40973 3.71547 4.21799 4.0918C4 4.51962 4 5.08009 4 6.2002Z" stroke="currentColor" stroke-width="2" stroke-linecap="round" stroke-linejoin="round"/>
</g>
</svg>
