<svg width="24" height="24" viewBox="0 0 24 24" fill="none" xmlns="http://www.w3.org/2000/svg">
<g id="System / Window">
<path id="Vector" d="M3 6H3.01919M3.01919 6H20.9809M3.01919 6C3 6.31438 3 6.70191 3 7.2002V16.8002C3 17.9203 3 18.4796 3.21799 18.9074C3.40973 19.2837 3.71547 19.5905 4.0918 19.7822C4.51921 20 5.079 20 6.19694 20L17.8031 20C18.921 20 19.48 20 19.9074 19.7822C20.2837 19.5905 20.5905 19.2837 20.7822 18.9074C21 18.48 21 17.921 21 16.8031L21 7.19691C21 6.70021 21 6.31368 20.9809 6M3.01919 6C3.04314 5.60768 3.09697 5.3293 3.21799 5.0918C3.40973 4.71547 3.71547 4.40973 4.0918 4.21799C4.51962 4 5.08009 4 6.2002 4H17.8002C18.9203 4 19.4796 4 19.9074 4.21799C20.2837 4.40973 20.5905 4.71547 20.7822 5.0918C20.9032 5.3293 20.957 5.60768 20.9809 6M20.9809 6H21" stroke="currentColor" stroke-width="2" stroke-linecap="round" stroke-linejoin="round"/>
</g>
</svg>
