<svg width="24" height="24" viewBox="0 0 24 24" fill="none" xmlns="http://www.w3.org/2000/svg">
<g id="User / User_Card_ID">
<path id="Vector" d="M6 18C6.06366 18 6.12926 18 6.19691 18H12M6 18C5.01173 17.9992 4.49334 17.9868 4.0918 17.7822C3.71547 17.5905 3.40973 17.2837 3.21799 16.9074C3 16.4796 3 15.9203 3 14.8002V9.2002C3 8.08009 3 7.51962 3.21799 7.0918C3.40973 6.71547 3.71547 6.40973 4.0918 6.21799C4.51962 6 5.08009 6 6.2002 6H17.8002C18.9203 6 19.4796 6 19.9074 6.21799C20.2837 6.40973 20.5905 6.71547 20.7822 7.0918C21 7.5192 21 8.07899 21 9.19691V14.8031C21 15.921 21 16.48 20.7822 16.9074C20.5905 17.2837 20.2837 17.5905 19.9074 17.7822C19.48 18 18.921 18 17.8031 18H12M6 18C6.00004 16.8954 7.34317 16 9 16C10.6569 16 12 16.8954 12 18M6 18C6 18 6 17.9999 6 18ZM18 14H14M18 11H15M9 13C7.89543 13 7 12.1046 7 11C7 9.89543 7.89543 9 9 9C10.1046 9 11 9.89543 11 11C11 12.1046 10.1046 13 9 13Z" stroke="currentColor" stroke-width="2" stroke-linecap="round" stroke-linejoin="round"/>
</g>
</svg>
