<svg width="24" height="24" viewBox="0 0 24 24" fill="none" xmlns="http://www.w3.org/2000/svg">
<g id="User / User_Voice">
<path id="Vector" d="M15 19C15 16.7909 12.3137 15 9 15C5.68629 15 3 16.7909 3 19M16.8281 5.17188C17.1996 5.54331 17.4942 5.98427 17.6952 6.46957C17.8962 6.95487 17.9999 7.47533 17.9999 8.00062C17.9999 8.52591 17.8963 9.04497 17.6953 9.53027C17.4943 10.0156 17.1996 10.457 16.8281 10.8285M19 3C19.6566 3.65661 20.1775 4.43612 20.5328 5.29402C20.8882 6.15192 21.0718 7.07127 21.0718 7.99985C21.0718 8.92844 20.8886 9.84815 20.5332 10.7061C20.1778 11.564 19.6566 12.3435 19 13.0001M9 12C6.79086 12 5 10.2091 5 8C5 5.79086 6.79086 4 9 4C11.2091 4 13 5.79086 13 8C13 10.2091 11.2091 12 9 12Z" stroke="currentColor" stroke-width="2" stroke-linecap="round" stroke-linejoin="round"/>
</g>
</svg>
