<svg width="24" height="24" viewBox="0 0 24 24" fill="none" xmlns="http://www.w3.org/2000/svg">
<path d="M10 2H12.9996C12.3719 2.83566 12 3.87439 12 5C12 5.255 12.0191 5.50554 12.0559 5.75027L12 5.75C9 5.75 8 8.02 8 10.5V17H16V10.5C16 10.2968 15.9933 10.095 15.9793 9.89574C16.3088 9.96408 16.6502 10 17 10C17.3373 10 17.6667 9.96661 17.9853 9.90295C17.9951 10.0996 18 10.2987 18 10.5V16L20 17V19H4V17L6 16V10.5C6 7.42 7.14 4.86 10 4.18V2Z" fill="black"/>
<path d="M14 5C14 4.72521 14.0369 4.45905 14.1061 4.20621C14.4542 2.93457 15.6179 2 17 2C18.6569 2 20 3.34315 20 5C20 6.42229 19.0102 7.61341 17.6819 7.92216C17.4628 7.97308 17.2346 8 17 8C16.3719 8 15.7889 7.80699 15.3071 7.47706C14.9122 7.20667 14.5853 6.84432 14.3572 6.42088C14.1293 5.99795 14 5.51408 14 5Z" fill="black"/>
<path d="M12 22C13.1 22 14 21.1 14 20H10C10 21.1 10.9 22 12 22Z" fill="black"/>
</svg>
