<svg width="24" height="24" viewBox="0 0 24 24" fill="none" xmlns="http://www.w3.org/2000/svg">
<path d="M12 22C6.47715 22 2 17.5228 2 12C2 6.47715 6.47715 2 12 2C17.5228 2 22 6.47715 22 12C21.9939 17.5203 17.5203 21.9939 12 22ZM11 4.062C7.72604 4.47603 5.04227 6.85789 4.24231 10.0595C3.44234 13.2611 4.69036 16.6254 7.38479 18.5307C10.0792 20.436 13.6671 20.4913 16.419 18.67L16.319 18.741L16.413 18.676L16.472 18.635L16.536 18.59L16.552 18.579L16.561 18.572L11.433 13.442C11.1544 13.1585 10.9988 12.7765 11 12.379V4.062ZM13.829 13L18.056 17.227L18.063 17.219L18.068 17.213L18.058 17.224C19.0896 16.0335 19.744 14.5633 19.938 13H13.829ZM13 4.062V11H19.938C19.4815 7.37411 16.6259 4.51851 13 4.062Z" fill="black"/>
</svg>
