<svg width="24" height="24" viewBox="0 0 24 24" fill="none" xmlns="http://www.w3.org/2000/svg">
<path d="M12 4.00002C7.12099 4.00002 2.99999 8.12102 2.99999 13C2.99999 17.879 7.12099 22 12 22C16.879 22 21 17.879 21 13C21 8.12102 16.879 4.00002 12 4.00002ZM12 20C8.20599 20 4.99999 16.794 4.99999 13C4.99999 9.20602 8.20599 6.00002 12 6.00002C15.794 6.00002 19 9.20602 19 13C19 16.794 15.794 20 12 20Z" fill="black"/>
<path d="M13 8.00001H11V12H6.99999V14H11V18H13V14H17V12H13V8.00001Z" fill="black"/>
<path d="M20.2924 6.70772L17.2823 3.7074L18.6942 2.29089L21.7043 5.29122L20.2924 6.70772Z" fill="black"/>
<path d="M5.28241 2.29414L6.69863 3.70635L3.70826 6.70518L2.29205 5.29297L5.28241 2.29414Z" fill="black"/>
</svg>
