<svg width="24" height="24" viewBox="0 0 24 24" fill="none" xmlns="http://www.w3.org/2000/svg">
<path fill-rule="evenodd" clip-rule="evenodd" d="M12.065 2C17.5542 2.035 22 6.5025 22 12C22 17.5192 17.5192 22 12 22C6.48083 22 2 17.5192 2 12C5.23917 12.9058 8.15667 10.0058 7 7C10.3358 7.58917 12.655 4.73167 12.065 2ZM13.25 16.1667C13.94 16.1667 14.5 16.7267 14.5 17.4167C14.5 18.1067 13.94 18.6667 13.25 18.6667C12.56 18.6667 12 18.1067 12 17.4167C12 16.7267 12.56 16.1667 13.25 16.1667ZM7.5525 13.6667C8.4725 13.6667 9.21917 14.4133 9.21917 15.3333C9.21917 16.2533 8.4725 17 7.5525 17C6.6325 17 5.88583 16.2533 5.88583 15.3333C5.88583 14.4133 6.6325 13.6667 7.5525 13.6667ZM17 11.1667C17.92 11.1667 18.6667 11.9133 18.6667 12.8333C18.6667 13.7533 17.92 14.5 17 14.5C16.08 14.5 15.3333 13.7533 15.3333 12.8333C15.3333 11.9133 16.08 11.1667 17 11.1667ZM12 10.3333C12.46 10.3333 12.8333 10.7067 12.8333 11.1667C12.8333 11.6267 12.46 12 12 12C11.54 12 11.1667 11.6267 11.1667 11.1667C11.1667 10.7067 11.54 10.3333 12 10.3333ZM4.5 7.83333C4.96 7.83333 5.33333 8.20667 5.33333 8.66667C5.33333 9.12667 4.96 9.5 4.5 9.5C4.04 9.5 3.66667 9.12667 3.66667 8.66667C3.66667 8.20667 4.04 7.83333 4.5 7.83333ZM15.75 6.16667C16.44 6.16667 17 6.72667 17 7.41667C17 8.10667 16.44 8.66667 15.75 8.66667C15.06 8.66667 14.5 8.10667 14.5 7.41667C14.5 6.72667 15.06 6.16667 15.75 6.16667ZM3.25 4.5C3.94 4.5 4.5 5.06 4.5 5.75C4.5 6.44 3.94 7 3.25 7C2.56 7 2 6.44 2 5.75C2 5.06 2.56 4.5 3.25 4.5ZM8.25 2.83333C8.94 2.83333 9.5 3.39333 9.5 4.08333C9.5 4.77333 8.94 5.33333 8.25 5.33333C7.56 5.33333 7 4.77333 7 4.08333C7 3.39333 7.56 2.83333 8.25 2.83333ZM5.33333 2C5.79333 2 6.16667 2.37333 6.16667 2.83333C6.16667 3.29333 5.79333 3.66667 5.33333 3.66667C4.87333 3.66667 4.5 3.29333 4.5 2.83333C4.5 2.37333 4.87333 2 5.33333 2Z" fill="black"/>
</svg>
