<svg width="24" height="24" viewBox="0 0 24 24" fill="none" xmlns="http://www.w3.org/2000/svg">
<path d="M12.7071 15.5355L14.1213 16.9497L12 19.0711C10.0474 21.0237 6.88153 21.0237 4.92891 19.0711C2.97628 17.1184 2.97628 13.9526 4.92891 12L7.05023 9.87867L8.46444 11.2929L6.34312 13.4142C5.17155 14.5858 5.17155 16.4853 6.34312 17.6568C7.51469 18.8284 9.41419 18.8284 10.5858 17.6568L12.7071 15.5355Z" fill="black"/>
<path d="M11.2929 8.46445L9.87865 7.05024L12 4.92892C13.9526 2.9763 17.1184 2.9763 19.071 4.92892C21.0237 6.88154 21.0237 10.0474 19.071 12L16.9497 14.1213L15.5355 12.7071L17.6568 10.5858C18.8284 9.4142 18.8284 7.51471 17.6568 6.34313C16.4853 5.17156 14.5858 5.17156 13.4142 6.34313L11.2929 8.46445Z" fill="black"/>
<path d="M14.8284 7.75735L7.75733 14.8284L9.17155 16.2426L16.2426 9.17156L14.8284 7.75735Z" fill="black"/>
</svg>
