<svg width="24" height="24" viewBox="0 0 24 24" fill="none" xmlns="http://www.w3.org/2000/svg">
<path d="M17.707 12.293C17.316 11.902 16.684 11.902 16.293 12.293L14.699 13.887C13.96 13.667 12.581 13.167 11.707 12.293C10.833 11.419 10.333 10.04 10.113 9.30101L11.707 7.70701C12.098 7.31601 12.098 6.68401 11.707 6.29301L7.70703 2.29301C7.31603 1.90201 6.68403 1.90201 6.29303 2.29301L3.58103 5.00501C3.20103 5.38501 2.98703 5.90701 2.99503 6.44001C3.01803 7.86401 3.39503 12.81 7.29303 16.708C11.191 20.606 16.137 20.982 17.562 21.006C17.567 21.006 17.585 21.006 17.59 21.006C18.118 21.006 18.617 20.798 18.995 20.42L21.707 17.708C22.098 17.317 22.098 16.685 21.707 16.294L17.707 12.293ZM17.58 19.005C16.332 18.984 12.062 18.649 8.70703 15.293C5.34103 11.927 5.01503 7.64201 4.99503 6.41901L7.00003 4.41401L9.58603 7.00001L8.29303 8.29301C8.05403 8.53101 7.95203 8.87501 8.02103 9.20501C8.04503 9.32001 8.63203 12.047 10.292 13.707C11.952 15.367 14.679 15.954 14.794 15.978C15.127 16.049 15.468 15.946 15.706 15.707L17 14.414L19.586 17L17.58 19.005Z" fill="black"/>
</svg>
