<svg width="24" height="24" viewBox="0 0 24 24" fill="none" xmlns="http://www.w3.org/2000/svg">
<path fill-rule="evenodd" clip-rule="evenodd" d="M13 12C11.1362 12 9.57006 10.7252 9.12602 9H2V7H9.12602C9.57006 5.27477 11.1362 4 13 4C15.2091 4 17 5.79086 17 8C17 10.2091 15.2091 12 13 12ZM15 8C15 9.10457 14.1046 10 13 10C11.8954 10 11 9.10457 11 8C11 6.89543 11.8954 6 13 6C14.1046 6 15 6.89543 15 8Z" fill="black"/>
<path d="M18 7H22V9H18V7Z" fill="black"/>
<path fill-rule="evenodd" clip-rule="evenodd" d="M8 20C6.13616 20 4.57006 18.7252 4.12602 17H2V15H4.12602C4.57006 13.2748 6.13616 12 8 12C10.2091 12 12 13.7909 12 16C12 18.2091 10.2091 20 8 20ZM10 16C10 17.1046 9.10457 18 8 18C6.89543 18 6 17.1046 6 16C6 14.8954 6.89543 14 8 14C9.10457 14 10 14.8954 10 16Z" fill="black"/>
<path d="M13 17H22V15H13V17Z" fill="black"/>
</svg>
