<svg width="24" height="24" viewBox="0 0 24 24" fill="none" xmlns="http://www.w3.org/2000/svg">
<path d="M6.99299 12C6.99299 14.761 9.23899 17.007 12 17.007C14.761 17.007 17.007 14.761 17.007 12C17.007 9.239 14.761 6.993 12 6.993C9.23899 6.993 6.99299 9.239 6.99299 12ZM12 8.993C13.658 8.993 15.007 10.342 15.007 12C15.007 13.658 13.658 15.007 12 15.007C10.342 15.007 8.99299 13.658 8.99299 12C8.99299 10.342 10.342 8.993 12 8.993ZM10.998 19H12.998V22H10.998V19ZM10.998 2H12.998V5H10.998V2ZM1.99799 11H4.99799V13H1.99799V11ZM18.998 11H21.998V13H18.998V11Z" fill="black"/>
<path d="M4.21903 18.3634L6.33972 16.2414L7.75435 17.6552L5.63366 19.7772L4.21903 18.3634Z" fill="black"/>
<path d="M16.2402 6.34358L18.3622 4.22152L19.7765 5.63571L17.6545 7.75777L16.2402 6.34358Z" fill="black"/>
<path d="M6.34172 7.75858L4.22103 5.63663L5.63566 4.22284L7.75635 6.34479L6.34172 7.75858Z" fill="black"/>
<path d="M19.7758 18.3635L18.3616 19.7778L16.2395 17.6558L17.6537 16.2415L19.7758 18.3635Z" fill="black"/>
</svg>
