<svg width="24" height="24" viewBox="0 0 24 24" fill="none" xmlns="http://www.w3.org/2000/svg">
<g clip-path="url(#clip0)">
<path d="M10.0687 10.0688C10.8497 9.28778 10.8497 8.02145 10.0687 7.2404C9.28761 6.45935 8.02128 6.45935 7.24023 7.2404C6.45919 8.02145 6.45919 9.28778 7.24023 10.0688C8.02128 10.8499 9.28761 10.8499 10.0687 10.0688Z" fill="black"/>
<path fill-rule="evenodd" clip-rule="evenodd" d="M3.64804 13.5477C3.2352 13.1349 3.02337 12.5622 3.06814 11.9801L3.57322 5.4141C3.64888 4.43054 4.43038 3.64904 5.41394 3.57338L11.9799 3.06831C12.5621 3.02353 13.1347 3.23536 13.5475 3.6482L21.3824 11.483C22.1634 12.2641 22.1634 13.5304 21.3824 14.3115L14.3113 21.3825C13.5303 22.1636 12.2639 22.1636 11.4829 21.3825L3.64804 13.5477ZM12.1333 5.06242L19.9682 12.8973L12.8971 19.9683L5.06225 12.1335L5.56733 5.56749L12.1333 5.06242Z" fill="black"/>
</g>
<defs>
<clipPath id="clip0">
<rect width="24" height="24" fill="white"/>
</clipPath>
</defs>
</svg>
