<svg width="24" height="24" viewBox="0 0 24 24" fill="none" xmlns="http://www.w3.org/2000/svg">
<path d="M12 22C6.47715 22 2 17.5228 2 12C2 6.47715 6.47715 2 12 2C17.5228 2 22 6.47715 22 12C21.9939 17.5203 17.5203 21.9939 12 22ZM7.727 14.787C7.598 14.7878 7.46951 14.8032 7.344 14.833L7.194 14.874L6.6 15.891C6.37467 16.2669 6.48338 16.7534 6.84727 16.9976C7.21116 17.2418 7.70258 17.158 7.965 16.807L8.027 16.714L8.817 15.343C8.55744 14.9959 8.15043 14.7901 7.717 14.787H7.727ZM13.211 8.66C12.8999 8.95227 12.6936 9.33883 12.624 9.76C12.5125 10.3407 12.6193 10.9422 12.924 11.449L15.964 16.715C16.1125 16.9661 16.3823 17.1204 16.674 17.121C16.7991 17.1206 16.9225 17.0919 17.035 17.037C17.4205 16.8469 17.5948 16.3921 17.435 15.993L17.386 15.893L16.586 14.502H17.776C18.2084 14.4984 18.5642 14.1608 18.5906 13.7291C18.6169 13.2975 18.3047 12.9192 17.876 12.863L17.776 12.857H15.636L13.442 9.057L13.213 8.657L13.211 8.66ZM6.26 12.85C6.15402 12.8501 6.04908 12.8708 5.951 12.911C5.85161 12.9525 5.76126 13.013 5.685 13.089C5.53094 13.2435 5.4446 13.4528 5.445 13.671C5.44514 14.0854 5.753 14.4352 6.164 14.488L6.264 14.493H13.744C13.9118 14.1556 13.9055 13.7578 13.727 13.426C13.575 13.1149 13.2773 12.9005 12.934 12.855L12.813 12.849H10.262L13.79 6.74C13.8987 6.55063 13.9281 6.326 13.872 6.115C13.8162 5.90362 13.6778 5.72349 13.488 5.615C13.131 5.40943 12.677 5.49912 12.425 5.825L12.363 5.917L12 6.551L11.641 5.917C11.4925 5.66592 11.2227 5.51164 10.931 5.511C10.8056 5.51145 10.6818 5.54016 10.569 5.595C10.1837 5.78588 10.0097 6.24065 10.169 6.64L10.218 6.74L11.048 8.2L8.363 12.85H6.26Z" fill="black"/>
</svg>
