<svg width="24" height="24" viewBox="0 0 24 24" fill="none" xmlns="http://www.w3.org/2000/svg">
<path d="M17.669 18.268C17.0201 18.2761 16.3755 18.1617 15.769 17.931C15.2256 17.7197 14.7346 17.3928 14.33 16.973C13.9314 16.544 13.6236 16.0389 13.425 15.488C13.2069 14.8786 13.0989 14.2352 13.106 13.588C13.1014 12.9519 13.2125 12.3203 13.434 11.724C13.6405 11.168 13.9583 10.6599 14.368 10.231C14.7788 9.80741 15.2696 9.46955 15.812 9.23701C16.3995 8.98849 17.0322 8.86488 17.67 8.87401C18.3555 8.85936 19.0343 9.0103 19.649 9.31401C20.1977 9.59543 20.6735 10.0004 21.039 10.497C21.4077 11.0043 21.6737 11.5787 21.822 12.188C21.9838 12.8357 22.0416 13.5051 21.993 14.171H15.562C15.5364 14.8035 15.7532 15.4219 16.168 15.9C16.6038 16.2823 17.1736 16.4758 17.752 16.438C18.2063 16.4486 18.6527 16.3183 19.03 16.065C19.3295 15.8822 19.5594 15.6044 19.683 15.276H21.838C21.5938 16.2047 21.0319 17.0185 20.25 17.576C19.4761 18.0547 18.5786 18.2953 17.669 18.268ZM17.6 10.724C17.264 10.7114 16.9299 10.78 16.626 10.924C16.3884 11.0438 16.1775 11.2105 16.006 11.414C15.8551 11.5989 15.7435 11.8126 15.678 12.042C15.6203 12.2332 15.583 12.43 15.567 12.629H19.549C19.5203 12.1104 19.3226 11.6156 18.986 11.22C18.6135 10.8684 18.111 10.6885 17.6 10.724ZM7.97 18.036H2V5.73101H7.8C8.3373 5.7263 8.8736 5.77826 9.4 5.88601C9.84587 5.97305 10.2707 6.14556 10.651 6.39401C10.9945 6.63244 11.2702 6.956 11.451 7.33301C11.6507 7.78714 11.7463 8.28015 11.731 8.77601C11.7527 9.32461 11.6073 9.86686 11.314 10.331C10.9931 10.7741 10.5594 11.1232 10.058 11.342C10.7393 11.5123 11.3382 11.9187 11.748 12.489C12.1287 13.0758 12.3213 13.7648 12.3 14.464C12.3145 15.0232 12.1916 15.5774 11.942 16.078C11.7117 16.522 11.3776 16.9038 10.968 17.191C10.5434 17.4864 10.0692 17.7032 9.568 17.831C9.04477 17.9684 8.50598 18.0377 7.965 18.037L7.97 18.036ZM4.71 12.553V15.943H7.6C7.85541 15.9458 8.11033 15.9199 8.36 15.866C8.58857 15.8219 8.80611 15.7328 9 15.604C9.18672 15.4812 9.33834 15.312 9.44 15.113C9.5579 14.8634 9.61349 14.5888 9.602 14.313C9.65047 13.8011 9.45215 13.2968 9.068 12.955C8.65353 12.6697 8.15651 12.5291 7.654 12.555L4.71 12.553ZM4.71 7.82801V10.703H7.452C7.87616 10.7197 8.29433 10.5987 8.644 10.358C8.97362 10.0843 9.14719 9.66568 9.108 9.23901C9.11645 8.99409 9.06423 8.75088 8.956 8.53101C8.85824 8.35327 8.71413 8.20535 8.539 8.10301C8.35458 7.99364 8.15091 7.92066 7.939 7.88801C7.70824 7.84474 7.47377 7.82431 7.239 7.82701L4.71 7.82801ZM20.051 7.77201H15.061V6.55701H20.051V7.77101V7.77201Z" fill="black"/>
</svg>
