<svg width="24" height="24" viewBox="0 0 24 24" fill="none" xmlns="http://www.w3.org/2000/svg">
<path d="M18 22C15.8082 21.9947 14.0267 20.2306 14 18.039V16H9.99996V18.02C9.98892 20.2265 8.19321 22.0073 5.98669 22C3.78017 21.9926 1.99635 20.1999 2.00001 17.9934C2.00367 15.7868 3.79343 14 5.99996 14H7.99996V9.99999H5.99996C3.79343 9.99997 2.00367 8.21315 2.00001 6.00663C1.99635 3.8001 3.78017 2.00736 5.98669 1.99999C8.19321 1.99267 9.98892 3.77349 9.99996 5.97999V7.99999H14V5.99999C14 3.79085 15.7908 1.99999 18 1.99999C20.2091 1.99999 22 3.79085 22 5.99999C22 8.20913 20.2091 9.99999 18 9.99999H16V14H18C20.2091 14 22 15.7909 22 18C22 20.2091 20.2091 22 18 22ZM16 16V18C16 19.1046 16.8954 20 18 20C19.1045 20 20 19.1046 20 18C20 16.8954 19.1045 16 18 16H16ZM5.99996 16C4.89539 16 3.99996 16.8954 3.99996 18C3.99996 19.1046 4.89539 20 5.99996 20C6.53211 20.0057 7.04412 19.7968 7.42043 19.4205C7.79674 19.0442 8.00563 18.5321 7.99996 18V16H5.99996ZM9.99996 9.99999V14H14V9.99999H9.99996ZM18 3.99999C17.4678 3.99431 16.9558 4.2032 16.5795 4.57952C16.2032 4.95583 15.9943 5.46784 16 5.99999V7.99999H18C18.5321 8.00567 19.0441 7.79678 19.4204 7.42047C19.7967 7.04416 20.0056 6.53215 20 5.99999C20.0056 5.46784 19.7967 4.95583 19.4204 4.57952C19.0441 4.2032 18.5321 3.99431 18 3.99999ZM5.99996 3.99999C5.4678 3.99431 4.95579 4.2032 4.57948 4.57952C4.20317 4.95583 3.99428 5.46784 3.99996 5.99999C3.99428 6.53215 4.20317 7.04416 4.57948 7.42047C4.95579 7.79678 5.4678 8.00567 5.99996 7.99999H7.99996V5.99999C8.00563 5.46784 7.79674 4.95583 7.42043 4.57952C7.04412 4.2032 6.53211 3.99431 5.99996 3.99999Z" fill="black"/>
</svg>
