<svg width="24" height="24" viewBox="0 0 24 24" fill="none" xmlns="http://www.w3.org/2000/svg">
<path d="M18 22H6C4.89543 22 4 21.1046 4 20V4.00002C4 2.89545 4.89543 2.00002 6 2.00002H7V4.00002H9V6.00002H7V8.00002H9V10H7V17H11V12H9V10H11V8.00002H9V6.00002H11V4.00002H9V2.00002H13C13.009 1.99886 13.018 1.99886 13.027 2.00002H13.033C13.0424 2.00298 13.0522 2.00498 13.062 2.00602C13.1502 2.01167 13.2373 2.02882 13.321 2.05702H13.336H13.351H13.363C13.3815 2.06994 13.3988 2.08432 13.415 2.10002C13.5239 2.14844 13.6232 2.2162 13.708 2.30002L19.708 8.30002C19.7918 8.3848 19.8596 8.48407 19.908 8.59302C19.917 8.61502 19.924 8.63602 19.931 8.65902L19.941 8.68702C19.9689 8.77041 19.9854 8.8572 19.99 8.94502C19.9909 8.95498 19.9932 8.96475 19.997 8.97402V8.98002C19.9986 8.98657 19.9996 8.99327 20 9.00002V20C20 20.5305 19.7893 21.0392 19.4142 21.4142C19.0391 21.7893 18.5304 22 18 22ZM13 4.00002V9.00002H18L13 4.00002ZM10 16H8V14H10V16Z" fill="black"/>
</svg>
