<svg width="24" height="24" viewBox="0 0 24 24" fill="none" xmlns="http://www.w3.org/2000/svg">
<path d="M13 22H10V19H13V22ZM13 17H10V16.993C10 15.343 10 13.918 10.672 12.92C11.1948 12.2574 11.8453 11.7065 12.585 11.3C12.919 11.086 13.234 10.883 13.499 10.672C14.6604 9.77306 15.1826 8.27392 14.831 6.84799C14.2747 5.51815 12.8593 4.76357 11.4451 5.04296C10.0309 5.32236 9.00877 6.55851 9 7.99999H6C6 4.68629 8.68629 1.99997 12 1.99997C14.3053 1.99307 16.4134 3.29894 17.434 5.36599C18.3507 7.47212 17.9883 9.91642 16.5 11.666C16.0475 12.1675 15.5396 12.616 14.986 13.003C14.5016 13.3371 14.0597 13.729 13.67 14.17C13.1193 15.0045 12.8819 16.0071 13 17Z" fill="black"/>
</svg>
