<svg width="24" height="24" viewBox="0 0 24 24" fill="none" xmlns="http://www.w3.org/2000/svg">
<path d="M20 20H4C2.93052 20.032 2.03642 19.1933 2 18.124V5.875C2.03641 4.80581 2.93068 3.96743 4 4H20C21.0693 3.96743 21.9636 4.80581 22 5.875V18.125C21.963 19.1939 21.0691 20.032 20 20ZM4 6V17.989L20 18V6.011L4 6ZM13.43 16H6C6.07353 15.1721 6.46534 14.4049 7.093 13.86C7.79183 13.1667 8.73081 12.7692 9.715 12.75C10.6992 12.7692 11.6382 13.1667 12.337 13.86C12.9645 14.4051 13.3563 15.1721 13.43 16ZM18 15H15V13H18V15ZM9.715 12C9.17907 12.0186 8.65947 11.8139 8.28029 11.4347C7.9011 11.0555 7.69638 10.5359 7.715 10C7.69668 9.46416 7.9015 8.94474 8.28062 8.56562C8.65974 8.1865 9.17916 7.98168 9.715 8C10.2508 7.98168 10.7703 8.1865 11.1494 8.56562C11.5285 8.94474 11.7333 9.46416 11.715 10C11.7336 10.5359 11.5289 11.0555 11.1497 11.4347C10.7705 11.8139 10.2509 12.0186 9.715 12ZM18 11H14V9H18V11Z" fill="black"/>
</svg>
