<svg width="24" height="24" viewBox="0 0 24 24" fill="none" xmlns="http://www.w3.org/2000/svg">
<path d="M19.3618 20.9931H4.63781C3.73766 20.992 3.00836 20.2622 3.00781 19.3621V4.63806C3.00891 3.73829 3.73805 3.00916 4.63781 3.00806H19.3608C20.2609 3.00916 20.9906 3.73797 20.9928 4.63806V19.3621C20.9917 20.2624 20.2621 20.992 19.3618 20.9931ZM6.67281 9.67006L6.28481 11.1001H7.56281L6.73681 14.4661C6.67611 14.7323 6.64261 15.004 6.63681 15.2771C6.59033 15.7164 6.74758 16.1529 7.06359 16.4617C7.37961 16.7705 7.81961 16.9177 8.25781 16.8611C9.18758 16.8207 10.0228 16.2805 10.4408 15.4491L10.1138 16.7491H11.9248L12.9578 12.6081C13.2178 11.5481 13.7298 11.0081 14.4768 11.0081C14.7422 10.9883 15.003 11.086 15.1899 11.2755C15.3768 11.4649 15.4711 11.7269 15.4478 11.9921C15.4505 12.189 15.4218 12.3851 15.3628 12.5731L14.8348 14.4791C14.7587 14.743 14.7203 15.0164 14.7208 15.2911C14.6922 15.7298 14.8602 16.1586 15.1792 16.4611C15.4982 16.7637 15.9352 16.9088 16.3718 16.8571C17.4018 16.8571 18.1198 16.1571 18.5088 14.7761L17.8018 14.5031C17.5258 15.2921 17.2318 15.6761 16.9018 15.6761C16.6608 15.6761 16.5338 15.5091 16.5338 15.1921C16.5406 15.0258 16.5658 14.8608 16.6088 14.7001L17.1288 12.8421C17.2467 12.4598 17.3074 12.0621 17.3088 11.6621C17.3683 11.1305 17.2009 10.5984 16.8479 10.1966C16.4948 9.79477 15.9886 9.56041 15.4538 9.55106C14.4056 9.69421 13.5006 10.357 13.0478 11.3131L13.4078 9.69606H10.6198L10.2288 11.0961H11.5228L10.7228 14.2841C10.4435 15.0673 9.7264 15.6103 8.89681 15.6671C8.866 15.6675 8.8352 15.6652 8.80481 15.6601C8.56181 15.6031 8.42081 15.5101 8.42081 15.2081C8.42648 14.9584 8.46343 14.7105 8.53081 14.4701L9.74681 9.67006H6.67281ZM9.01781 6.50806C8.62839 6.50806 8.26855 6.71581 8.07384 7.05306C7.87914 7.3903 7.87914 7.80581 8.07384 8.14306C8.26855 8.4803 8.62839 8.68806 9.01781 8.68806V8.66306C9.30936 8.66542 9.59004 8.55257 9.79881 8.34906C10.0035 8.14695 10.1178 7.8707 10.1158 7.58306C10.1081 6.98357 9.61733 6.50305 9.01781 6.50806Z" fill="black"/>
</svg>
