<svg width="24" height="24" viewBox="0 0 24 24" fill="none" xmlns="http://www.w3.org/2000/svg">
<path fill-rule="evenodd" clip-rule="evenodd" d="M18.248 16.9972C18.1656 16.9991 18.0829 17 18 17C11.9249 17 7 12.0751 7 5.99999C7 5.91709 7.00092 5.8344 7.00275 5.75192C5.17211 7.21851 4 9.47339 4 12C4 16.4182 7.58172 20 12 20C14.5266 20 16.7814 18.8279 18.248 16.9972ZM19.4661 14.8812C18.989 14.9593 18.4992 15 18 15C13.0294 15 9 10.9706 9 5.99999C9 5.50074 9.04065 5.01099 9.11882 4.53386C9.25094 3.72745 9.49024 2.9571 9.82162 2.23792C8.96026 2.42928 8.14073 2.73173 7.37882 3.12946C4.18215 4.79821 2 8.14425 2 12C2 17.5228 6.47715 22 12 22C15.8557 22 19.2017 19.8178 20.8705 16.6212C21.2682 15.8593 21.5707 15.0397 21.762 14.1784C21.0429 14.5098 20.2725 14.7491 19.4661 14.8812Z" fill="black"/>
</svg>
