<svg width="24" height="24" viewBox="0 0 24 24" fill="none" xmlns="http://www.w3.org/2000/svg">
<path d="M5.39997 21C5.2294 21.0028 5.05982 20.9736 4.89997 20.914L12.954 12.857L15.62 15.526L6.36497 20.726C6.0718 20.8979 5.73969 20.9922 5.39997 21ZM4.23597 20.335C4.07225 20.0385 3.99077 19.7036 3.99997 19.365V4.66004C3.99862 4.43682 4.03236 4.21478 4.09997 4.00204L12.333 12.237L4.23297 20.337L4.23597 20.335ZM16.415 15.077L13.574 12.238L16.707 9.10604L19.49 10.669C20.0242 10.9081 20.3816 11.4239 20.418 12.008C20.3818 12.5928 20.0239 13.1091 19.489 13.348L16.415 15.077ZM12.954 11.614L4.61397 3.27504C4.84295 3.10572 5.12018 3.01424 5.40497 3.01404C5.74131 3.02598 6.06944 3.12116 6.35997 3.29104L15.911 8.65904L12.955 11.614H12.954Z" fill="black"/>
</svg>
