<svg width="24" height="24" viewBox="0 0 24 24" fill="none" xmlns="http://www.w3.org/2000/svg">
<path d="M14.6411 22.024C13.4806 22.0201 12.5416 21.0785 12.5411 19.918V17.811H14.6411C15.8048 17.811 16.7481 18.7543 16.7481 19.918C16.7481 21.0816 15.8048 22.025 14.6411 22.025V22.024ZM9.3591 22.024C8.19856 22.0201 7.25964 21.0785 7.2591 19.918V14.644C7.2591 13.8925 7.66002 13.1981 8.31085 12.8223C8.96167 12.4465 9.76352 12.4465 10.4143 12.8223C11.0652 13.1981 11.4661 13.8925 11.4661 14.644V19.918C11.4655 21.0813 10.5224 22.024 9.3591 22.024ZM19.9091 16.751H14.6411C13.4777 16.751 12.5346 15.8079 12.5346 14.6445C12.5346 13.4811 13.4777 12.538 14.6411 12.538H19.9091C21.0725 12.538 22.0156 13.4811 22.0156 14.6445C22.0156 15.8079 21.0725 16.751 19.9091 16.751ZM4.0921 16.751C2.92871 16.751 1.9856 15.8079 1.9856 14.6445C1.9856 13.4811 2.92871 12.538 4.0921 12.538H6.1921V14.644C6.1921 15.8069 5.24998 16.7499 4.0871 16.751H4.0921ZM19.9091 11.462H17.8091V9.35598C17.8124 8.19697 18.7541 7.25978 19.9131 7.26198C21.0721 7.26419 22.0102 8.20496 22.0091 9.36398C22.008 10.523 21.0681 11.462 19.9091 11.462ZM14.6411 11.462C13.4806 11.4581 12.5416 10.5165 12.5411 9.35598V4.08198C12.5411 3.33047 12.942 2.63605 13.5928 2.2603C14.2437 1.88454 15.0455 1.88454 15.6963 2.2603C16.3472 2.63605 16.7481 3.33047 16.7481 4.08198V9.35598C16.7475 10.5193 15.8044 11.462 14.6411 11.462ZM9.3591 11.462H4.0921C2.92871 11.462 1.9856 10.5189 1.9856 9.35548C1.9856 8.19209 2.92871 7.24898 4.0921 7.24898H9.3591C10.5225 7.24898 11.4656 8.19209 11.4656 9.35548C11.4656 10.5189 10.5225 11.462 9.3591 11.462ZM11.4591 6.18899H9.3591C8.50685 6.19141 7.73715 5.67995 7.40923 4.89331C7.08131 4.10667 7.25982 3.19994 7.86145 2.5963C8.46308 1.99267 9.36922 1.81114 10.1569 2.13644C10.9447 2.46174 11.4587 3.22973 11.4591 4.08198V6.18798V6.18899Z" fill="black"/>
</svg>
