<svg width="24" height="24" viewBox="0 0 24 24" fill="none" xmlns="http://www.w3.org/2000/svg">
<path d="M16.935 6.073C17.2802 7.34302 17.3619 8.67024 17.175 9.973V10.02C17.164 10.166 17.157 10.298 17.151 10.43C17.2499 10.4826 17.3611 10.5075 17.473 10.502C17.7629 10.4756 18.045 10.3938 18.304 10.261C18.4199 10.2037 18.5478 10.1749 18.677 10.177C18.8167 10.1748 18.9555 10.1993 19.086 10.249C19.4074 10.323 19.6452 10.5946 19.676 10.923C19.6893 11.2843 19.3643 11.5973 18.701 11.862C18.63 11.885 18.532 11.923 18.425 11.962C18.062 12.071 17.508 12.251 17.352 12.613C17.2802 12.8496 17.3168 13.1059 17.452 13.313L17.464 13.326C18.1761 14.9435 19.6008 16.1371 21.318 16.555C21.5175 16.5867 21.6621 16.7621 21.655 16.964C21.654 17.026 21.6418 17.0873 21.619 17.145C21.426 17.602 20.596 17.945 19.089 18.166C19.0287 18.3138 18.9844 18.4677 18.957 18.625C18.932 18.7754 18.8962 18.9237 18.85 19.069C18.803 19.2733 18.6128 19.4118 18.404 19.394H18.38C18.2342 19.3873 18.0893 19.3675 17.947 19.335C17.6105 19.2624 17.2672 19.2262 16.923 19.227C16.6777 19.2236 16.4325 19.2437 16.191 19.287C15.6829 19.4201 15.2099 19.6624 14.805 19.997C14.0596 20.6238 13.1271 20.9851 12.154 21.024C12.106 21.024 12.054 21.012 12.008 21.012H11.887C10.9173 20.9752 9.98884 20.6099 9.25401 19.976C8.85388 19.6414 8.38519 19.3987 7.88101 19.265C7.63432 19.2282 7.38541 19.2081 7.13601 19.205C6.79181 19.2101 6.44903 19.2503 6.11301 19.325C5.97025 19.3587 5.82457 19.3784 5.67801 19.384C5.46045 19.4001 5.26255 19.2582 5.20801 19.047C5.16001 18.893 5.13701 18.734 5.10101 18.591C5.0729 18.4341 5.02832 18.2806 4.96801 18.133C3.42501 17.954 2.59501 17.616 2.40301 17.147C2.37476 17.0905 2.3581 17.029 2.35401 16.966C2.34696 16.7641 2.49152 16.5887 2.69101 16.557C4.40902 16.1389 5.83399 14.9439 6.54501 13.325L6.55401 13.3C6.69425 13.0949 6.7312 12.8362 6.65401 12.6C6.49801 12.251 5.94301 12.071 5.58401 11.95C5.48836 11.9246 5.39503 11.8911 5.30501 11.85C4.41501 11.5 4.29401 11.102 4.34301 10.826C4.48483 10.4335 4.86619 10.1796 5.28301 10.2C5.38863 10.1995 5.49331 10.2199 5.59101 10.26C5.86687 10.4016 6.1694 10.4837 6.47901 10.501C6.60966 10.5049 6.73903 10.4742 6.85401 10.412L6.81301 9.954C6.62688 8.65482 6.7089 7.33127 7.05401 6.065C7.86552 4.18296 9.73275 2.97684 11.782 3.011L12.117 3H12.166C14.2281 2.97535 16.1054 4.18504 16.935 6.073Z" fill="black"/>
</svg>
