<svg width="24" height="24" viewBox="0 0 24 24" fill="none" xmlns="http://www.w3.org/2000/svg">
<path d="M12.8971 21.968C12.3664 21.9696 11.8572 21.7585 11.4831 21.382L3.64613 13.547C3.23261 13.1349 3.02061 12.5621 3.06613 11.98L3.56613 5.41401C3.63755 4.42569 4.42555 3.64068 5.41413 3.57301L11.9801 3.07301C12.0321 3.06201 12.0831 3.06201 12.1351 3.06201C12.6648 3.06138 13.1728 3.27234 13.5461 3.64801L21.3831 11.482C21.7584 11.8571 21.9692 12.3659 21.9692 12.8965C21.9692 13.4271 21.7584 13.9359 21.3831 14.311L14.3111 21.382C13.937 21.7583 13.4278 21.9693 12.8971 21.968ZM8.65413 6.65401C7.74896 6.65427 6.9568 7.26245 6.72273 8.13684C6.48866 9.01123 6.87105 9.93383 7.65505 10.3863C8.43904 10.8387 9.42917 10.7082 10.0691 10.068L10.0761 10.062L10.0831 10.055L10.0751 10.062C10.6436 9.48857 10.8114 8.62957 10.5007 7.88432C10.19 7.13907 9.46157 6.65377 8.65413 6.65401Z" fill="black"/>
</svg>
