<svg width="24" height="24" viewBox="0 0 24 24" fill="none" xmlns="http://www.w3.org/2000/svg">
<path d="M12 3.99999C7.12101 3.99999 3.00001 8.12099 3.00001 13C3.00001 17.879 7.12101 22 12 22C16.879 22 21 17.879 21 13C21 8.12099 16.879 3.99999 12 3.99999ZM12 20C8.20601 20 5.00001 16.794 5.00001 13C5.00001 9.20599 8.20601 5.99999 12 5.99999C15.794 5.99999 19 9.20599 19 13C19 16.794 15.794 20 12 20Z" fill="#2E3A59"/>
<path d="M13 12V7.99999H11V14H17V12H13Z" fill="#2E3A59"/>
<path d="M17.2839 3.70695L18.6961 2.29071L21.7056 5.29161L20.2934 6.70785L17.2839 3.70695Z" fill="#2E3A59"/>
<path d="M6.69793 3.707L3.70762 6.70587L2.29138 5.29369L5.28169 2.29481L6.69793 3.707Z" fill="#2E3A59"/>
</svg>
