<svg width="24" height="24" viewBox="0 0 24 24" fill="none" xmlns="http://www.w3.org/2000/svg">
<g id="Arrow / Arrow_Reload_02">
<path id="Vector" d="M14 16H19V21M10 8H5V3M19.4176 9.0034C18.8569 7.61566 17.9181 6.41304 16.708 5.53223C15.4979 4.65141 14.0652 4.12752 12.5723 4.02051C11.0794 3.9135 9.58606 4.2274 8.2627 4.92661C6.93933 5.62582 5.83882 6.68254 5.08594 7.97612M4.58203 14.9971C5.14272 16.3848 6.08146 17.5874 7.29157 18.4682C8.50169 19.3491 9.93588 19.8723 11.4288 19.9793C12.9217 20.0863 14.4138 19.7725 15.7371 19.0732C17.0605 18.374 18.1603 17.3175 18.9131 16.0239" stroke="currentColor" stroke-width="2" stroke-linecap="round" stroke-linejoin="round"/>
</g>
</svg>
