<svg width="24" height="24" viewBox="0 0 24 24" fill="none" xmlns="http://www.w3.org/2000/svg">
<g clip-path="url(#clip0)">
<path d="M18.9999 20H5.99992C2.87429 20.0018 0.270809 17.6038 0.0162787 14.4886C-0.238251 11.3733 1.94144 8.58453 5.02592 8.07899C6.44563 5.56188 9.11003 4.0035 11.9999 3.99993C13.8019 3.99312 15.5524 4.60129 16.9619 5.72399C18.346 6.82185 19.33 8.34497 19.7619 10.058C22.3458 10.455 24.1877 12.7755 23.9879 15.3821C23.7882 17.9887 21.6141 20.0014 18.9999 20ZM11.9999 5.99998C9.83163 6.00255 7.83259 7.17209 6.76792 9.06099L6.29992 9.89999L5.35091 10.055C3.3012 10.3984 1.85592 12.2543 2.02513 14.3257C2.19433 16.3971 3.92164 17.9938 5.99992 18H18.9999C20.5685 18.0016 21.8735 16.7946 21.9941 15.2307C22.1147 13.6667 21.0102 12.2739 19.4599 12.035L18.1439 11.835L17.8219 10.543C17.1572 7.8698 14.7545 5.99495 11.9999 5.99998ZM11.9999 16L7.99992 12H10.5499V8.99999H13.4499V12H15.9999L11.9999 16Z" fill="black"/>
</g>
<defs>
<clipPath id="clip0">
<rect width="24" height="24" fill="white"/>
</clipPath>
</defs>
</svg>
