<svg width="24" height="24" viewBox="0 0 24 24" fill="none" xmlns="http://www.w3.org/2000/svg">
<g clip-path="url(#clip0)">
<path d="M18.9699 21.971L16.9999 20H5.99992C2.87429 20.0019 0.270809 17.6038 0.0162787 14.4886C-0.238251 11.3734 1.94144 8.58454 5.02592 8.079L5.04492 8.045L1.99992 5L3.41492 3.586L20.3849 20.556L18.9709 21.97L18.9699 21.971ZM6.81292 9.814L5.34792 10.053C3.29204 10.391 1.83993 12.2506 2.0103 14.3271C2.18066 16.4036 3.91643 18.0016 5.99992 18H14.9999L6.81292 9.814ZM21.7999 19.144L20.3409 17.686C21.5097 17.1027 22.1667 15.8301 21.9654 14.5394C21.7641 13.2488 20.7508 12.2367 19.4599 12.037L18.1439 11.837L17.8219 10.546C17.3801 8.77672 16.1575 7.30443 14.4996 6.54492C12.8417 5.78541 10.9283 5.82113 9.29992 6.642L7.82892 5.173C10.0012 3.84531 12.6757 3.63082 15.0318 4.59533C17.3879 5.55985 19.1442 7.58819 19.7619 10.058C21.7954 10.3711 23.4295 11.8978 23.8798 13.9053C24.3301 15.9129 23.5048 17.9913 21.7999 19.143V19.144Z" fill="black"/>
</g>
<defs>
<clipPath id="clip0">
<rect width="24" height="24" fill="white"/>
</clipPath>
</defs>
</svg>
