<svg width="24" height="24" viewBox="0 0 24 24" fill="none" xmlns="http://www.w3.org/2000/svg">
<path d="M13.707 2.293C13.52 2.105 13.266 2 13 2H6C4.897 2 4 2.897 4 4V20C4 21.103 4.897 22 6 22H18C19.103 22 20 21.103 20 20V9C20 8.734 19.895 8.48 19.707 8.293L13.707 2.293ZM6 4H12.586L18 9.414L18.002 18.588L15.434 16.02C15.784 15.425 16 14.739 16 14C16 11.794 14.206 10 12 10C9.794 10 8 11.794 8 14C8 16.206 9.794 18 12 18C12.739 18 13.425 17.784 14.02 17.434L16.586 20H6V4ZM12 16C10.897 16 10 15.103 10 14C10 12.897 10.897 12 12 12C13.103 12 14 12.897 14 14C14 15.103 13.103 16 12 16Z" fill="black"/>
</svg>
