<svg width="24" height="24" viewBox="0 0 24 24" fill="none" xmlns="http://www.w3.org/2000/svg">
<path d="M19.937 8.68C19.926 8.648 19.917 8.617 19.904 8.586C19.855 8.48 19.794 8.379 19.708 8.293L13.708 2.293C13.622 2.207 13.521 2.146 13.415 2.097C13.385 2.083 13.353 2.075 13.321 2.064C13.237 2.036 13.151 2.018 13.062 2.013C13.04 2.011 13.021 2 13 2H6C4.897 2 4 2.897 4 4V20C4 21.103 4.897 22 6 22H18C19.103 22 20 21.103 20 20V9C20 8.979 19.989 8.96 19.987 8.938C19.982 8.85 19.965 8.764 19.937 8.68ZM16.586 8H14V5.414L16.586 8ZM6 20V4H12V9C12 9.553 12.447 10 13 10H18L18.002 20H6Z" fill="black"/>
</svg>
