<svg width="24" height="24" viewBox="0 0 24 24" fill="none" xmlns="http://www.w3.org/2000/svg">
<path d="M18 22H6C4.89543 22 4 21.1046 4 20V4.00002C4 2.89545 4.89543 2.00002 6 2.00002H13C13.009 1.99886 13.018 1.99886 13.027 2.00002H13.033C13.0424 2.00298 13.0522 2.00498 13.062 2.00602C13.1502 2.01167 13.2373 2.02882 13.321 2.05702H13.363C13.3815 2.06994 13.3988 2.08432 13.415 2.10002C13.5239 2.14844 13.6232 2.2162 13.708 2.30002L19.708 8.30002C19.7918 8.3848 19.8596 8.48407 19.908 8.59302C19.917 8.61502 19.924 8.63602 19.931 8.65902L19.941 8.68702C19.9689 8.77041 19.9854 8.8572 19.99 8.94502C19.9909 8.95498 19.9932 8.96475 19.997 8.97402V8.98002C19.9986 8.98657 19.9996 8.99327 20 9.00002V20C20 20.5305 19.7893 21.0392 19.4142 21.4142C19.0391 21.7893 18.5304 22 18 22ZM15.461 14C14.9993 13.9743 14.5547 14.1783 14.273 14.545C13.9754 15.0039 13.8331 15.5462 13.867 16.092V16.968C13.8384 17.5084 13.9947 18.0423 14.31 18.482C14.6102 18.8325 15.0561 19.0239 15.517 19C15.803 19.003 16.0868 18.9507 16.353 18.846H16.361H16.355C16.3643 18.8406 16.374 18.8359 16.384 18.832H16.389L16.405 18.824L16.426 18.814C16.6443 18.7136 16.8381 18.5669 16.994 18.384V16.373H15.45V17.115H16.087V18.008L16.007 18.068C15.8771 18.1507 15.7249 18.1915 15.571 18.185C15.3289 18.2041 15.0959 18.0889 14.964 17.885C14.8215 17.5829 14.7585 17.2493 14.781 16.916V16.033C14.7637 15.7153 14.823 15.398 14.954 15.108C15.0617 14.9162 15.2695 14.8028 15.489 14.816C15.656 14.8021 15.8201 14.8651 15.935 14.987C16.0542 15.1761 16.1167 15.3955 16.115 15.619H17C17.0018 15.1723 16.8488 14.7387 16.567 14.392C16.2696 14.1127 15.8679 13.9706 15.461 14ZM7 17.5C6.97854 17.8961 7.10068 18.2867 7.344 18.6C7.58813 18.8719 7.94207 19.0189 8.307 19C8.66938 19.0087 9.0159 18.8515 9.248 18.573C9.50316 18.2506 9.63283 17.8467 9.613 17.436V14.067H8.7V17.389C8.7 17.917 8.567 18.189 8.3 18.189C8.033 18.189 7.907 17.957 7.907 17.5H7ZM10.327 14.071V18.937H11.237V17.222H11.844C12.2495 17.2444 12.6456 17.094 12.934 16.808C13.2075 16.4972 13.3482 16.0915 13.326 15.678C13.3437 15.2535 13.2009 14.8379 12.926 14.514C12.6553 14.2138 12.2649 14.05 11.861 14.067L10.327 14.071ZM13 4.00002V9.00002H18L13 4.00002ZM11.862 16.4H11.237V14.885H11.872C12.0316 14.8857 12.1794 14.9694 12.262 15.106C12.3675 15.2797 12.4183 15.4811 12.408 15.684C12.4205 15.8731 12.3706 16.061 12.266 16.219C12.1685 16.3411 12.018 16.4086 11.862 16.4Z" fill="black"/>
</svg>
