<svg width="24" height="24" viewBox="0 0 24 24" fill="none" xmlns="http://www.w3.org/2000/svg">
<path d="M18 22H6C4.89543 22 4 21.1046 4 20V4.00002C4 2.89545 4.89543 2.00002 6 2.00002H13C13.009 1.99886 13.018 1.99886 13.027 2.00002H13.033C13.0424 2.00298 13.0522 2.00498 13.062 2.00602C13.1502 2.01167 13.2373 2.02882 13.321 2.05702H13.336H13.351H13.363C13.3815 2.06994 13.3988 2.08432 13.415 2.10002C13.5239 2.14844 13.6232 2.2162 13.708 2.30002L19.708 8.30002C19.7918 8.3848 19.8596 8.48407 19.908 8.59302C19.917 8.61502 19.924 8.63602 19.931 8.65902L19.941 8.68702C19.9689 8.77041 19.9854 8.8572 19.99 8.94502C19.9909 8.95498 19.9932 8.96475 19.997 8.97402V8.98002C19.9986 8.98657 19.9996 8.99327 20 9.00002V20C20 20.5305 19.7893 21.0392 19.4142 21.4142C19.0391 21.7893 18.5304 22 18 22ZM12.116 17.4C12.1102 17.6963 12.179 17.9893 12.316 18.252C12.4429 18.4855 12.6337 18.678 12.866 18.807C13.1027 18.936 13.3684 19.0024 13.638 19C14.0037 19.0188 14.3618 18.8902 14.632 18.643C14.8868 18.3772 15.0201 18.0177 15 17.65C15.0107 17.3085 14.9049 16.9735 14.7 16.7C14.4501 16.4113 14.1287 16.1933 13.768 16.068C13.5775 15.9894 13.4032 15.8761 13.254 15.734C13.1618 15.6351 13.1101 15.5052 13.109 15.37C13.1007 15.2227 13.147 15.0774 13.239 14.962C13.3296 14.8577 13.4631 14.8009 13.601 14.808C13.7497 14.7995 13.8924 14.8678 13.979 14.989C14.0768 15.143 14.123 15.324 14.111 15.506H15C15.0043 15.2355 14.9454 14.9678 14.828 14.724C14.7222 14.5028 14.5531 14.3179 14.342 14.193C14.1236 14.0636 13.8738 13.9968 13.62 14C13.2505 13.9885 12.8913 14.1228 12.62 14.374C12.355 14.632 12.2125 14.9906 12.228 15.36C12.2215 15.6784 12.3238 15.9896 12.518 16.242C12.7759 16.5342 13.1029 16.7573 13.469 16.891C13.6548 16.9629 13.8247 17.0706 13.969 17.208C14.07 17.3346 14.1196 17.4945 14.108 17.656C14.108 18.017 13.951 18.2 13.643 18.2C13.461 18.2166 13.2819 18.1461 13.16 18.01C13.0468 17.8269 12.995 17.6126 13.012 17.398L12.116 17.4ZM9 17.5C8.97845 17.8947 9.09711 18.2843 9.335 18.6C9.56974 18.8708 9.91611 19.0183 10.274 19C10.6297 19.0077 10.9688 18.85 11.192 18.573C11.4418 18.2482 11.568 17.8452 11.548 17.436V14.067H10.661V17.389C10.661 17.917 10.531 18.189 10.274 18.189C10.017 18.189 9.891 17.957 9.891 17.5H9ZM13 4.00002V9.00002H18L13 4.00002Z" fill="black"/>
</svg>
