<svg width="24" height="24" viewBox="0 0 24 24" fill="none" xmlns="http://www.w3.org/2000/svg">
<path fill-rule="evenodd" clip-rule="evenodd" d="M19.937 8.68L19.9276 8.65196C19.9204 8.62974 19.9132 8.60787 19.904 8.586C19.855 8.48 19.794 8.379 19.708 8.293L13.708 2.293C13.622 2.207 13.521 2.146 13.415 2.097C13.3943 2.08736 13.3727 2.08056 13.3508 2.07367C13.3409 2.07056 13.331 2.06742 13.321 2.064C13.237 2.036 13.151 2.018 13.062 2.013C13.0519 2.01208 13.0424 2.00925 13.033 2.00647C13.0221 2.0032 13.0113 2 13 2H6C4.897 2 4 2.897 4 4V20C4 21.103 4.897 22 6 22H18C19.103 22 20 21.103 20 20V9C20 8.98867 19.9968 8.97792 19.9935 8.96697C19.9907 8.95762 19.9879 8.94813 19.987 8.938C19.982 8.85 19.965 8.764 19.937 8.68ZM13 4V9H18L13 4ZM10 12.5C10 13.3284 9.32843 14 8.5 14C7.67157 14 7 13.3284 7 12.5C7 11.6716 7.67157 11 8.5 11C9.32843 11 10 11.6716 10 12.5ZM9 16L10 17L13 13L18 20H6L9 16Z" fill="black"/>
</svg>
