<svg width="24" height="24" viewBox="0 0 24 24" fill="none" xmlns="http://www.w3.org/2000/svg">
<path d="M16.707 7.85349L11 13.5605L7.29303 9.85349L8.70703 8.43948L11 10.7325L15.293 6.43948L16.707 7.85349Z" fill="black"/>
<path fill-rule="evenodd" clip-rule="evenodd" d="M5 3H19C20.103 3 21 3.897 21 5V15C21 16.103 20.103 17 19 17H8.9997C8.56694 17 8.14585 17.1404 7.79965 17.4L3 21V5C3 3.897 3.897 3 5 3ZM8.3336 15H19V5H5V17L7.1337 15.3999C7.47987 15.1403 7.9009 15 8.3336 15Z" fill="black"/>
</svg>
