<svg width="24" height="24" viewBox="0 0 24 24" fill="none" xmlns="http://www.w3.org/2000/svg">
<path fill-rule="evenodd" clip-rule="evenodd" d="M14.3764 12.4769C16.0464 10.1337 15.8302 6.85958 13.728 4.75736C11.3848 2.41421 7.58586 2.41421 5.24271 4.75736C2.89957 7.10051 2.89957 10.8995 5.24271 13.2426C7.34494 15.3449 10.619 15.561 12.9622 13.8911L18.6777 19.6066L20.092 18.1924L14.3764 12.4769ZM12.3138 6.17157C13.8759 7.73367 13.8759 10.2663 12.3138 11.8284C10.7517 13.3905 8.21902 13.3905 6.65692 11.8284C5.09483 10.2663 5.09483 7.73367 6.65692 6.17157C8.21902 4.60948 10.7517 4.60948 12.3138 6.17157Z" fill="black"/>
</svg>
