<svg width="24" height="24" viewBox="0 0 24 24" fill="none" xmlns="http://www.w3.org/2000/svg">
<path d="M12 22C16.5609 22 20 20.065 20 17.5V7H19.9529C19.9822 6.836 20 6.67 20 6.5C20 3.935 16.5609 2 12 2C7.74133 2 4.46222 3.688 4.04711 6H4V17.5C4 20.065 7.43911 22 12 22ZM12 20C8.20178 20 5.77778 18.52 5.77778 17.5V9.394C7.22044 10.387 9.432 11 12 11C14.568 11 16.7796 10.387 18.2222 9.394V17.5C18.2222 18.52 15.7982 20 12 20ZM12 4C15.7982 4 18.2222 5.48 18.2222 6.5C18.2222 7.52 15.7982 9 12 9C8.20178 9 5.77778 7.52 5.77778 6.5C5.77778 5.48 8.20178 4 12 4Z" fill="#2E3A59"/>
</svg>
