<svg width="24" height="24" viewBox="0 0 24 24" fill="none" xmlns="http://www.w3.org/2000/svg">
<path d="M12 4.00002C7.12105 4.00002 3.00005 8.12102 3.00005 13C3.00005 17.879 7.12105 22 12 22C16.879 22 21 17.879 21 13C21 8.12102 16.879 4.00002 12 4.00002ZM12 20C8.20605 20 5.00005 16.794 5.00005 13C5.00005 9.20602 8.20605 6.00002 12 6.00002C15.794 6.00002 19 9.20602 19 13C19 16.794 15.794 20 12 20Z" fill="#2E3A59"/>
<path d="M13 8.00001H11V12H7.00005V14H11V18H13V14H17V12H13V8.00001Z" fill="#2E3A59"/>
<path d="M20.2924 6.70772L17.2823 3.7074L18.6943 2.29089L21.7043 5.29122L20.2924 6.70772Z" fill="#2E3A59"/>
<path d="M5.28247 2.29414L6.69869 3.70635L3.70833 6.70518L2.29211 5.29297L5.28247 2.29414Z" fill="#2E3A59"/>
</svg>
