<svg width="24" height="24" viewBox="0 0 24 24" fill="none" xmlns="http://www.w3.org/2000/svg">
<path fill-rule="evenodd" clip-rule="evenodd" d="M16.0281 5.08657C15.7643 4.93254 15.4909 4.79318 15.209 4.6696L14.7971 2.7863C14.6966 2.32722 14.2901 2 13.8202 2H10.18C9.71003 2 9.30349 2.32722 9.20307 2.7863L8.79109 4.6696C8.52543 4.78606 8.2673 4.91655 8.01766 5.06011C7.7556 5.21016 7.50127 5.37551 7.25615 5.55576L5.41918 4.97089C4.97139 4.82831 4.48474 5.01677 4.24977 5.42375L2.42967 8.57627C2.1947 8.98324 2.27481 9.49893 2.62217 9.81544L4.04717 11.1139C4.01442 11.4092 3.99836 11.705 3.99864 12C3.99836 12.295 4.01442 12.5908 4.04717 12.8862L2.62217 14.1846C2.27481 14.5011 2.1947 15.0168 2.42967 15.4238L4.24977 18.5763C4.48474 18.9832 4.97139 19.1717 5.41918 19.0291L7.25614 18.4443C7.50398 18.6265 7.76124 18.7935 8.02638 18.9449C8.27331 19.0865 8.52852 19.2153 8.7911 19.3304L9.20307 21.2137C9.30349 21.6728 9.71003 22 10.18 22H13.8202C14.2901 22 14.6966 21.6728 14.7971 21.2137L15.209 19.3304C15.4877 19.2082 15.7581 19.0706 16.0191 18.9187C16.2682 18.7743 16.5102 18.6161 16.7438 18.4443L18.5808 19.0291C19.0286 19.1717 19.5152 18.9832 19.7502 18.5763L21.5703 15.4238C21.8052 15.0168 21.7251 14.5011 21.3778 14.1846L19.9528 12.8862C19.9856 12.5904 20.0016 12.2942 20.0013 11.9989C20.0015 11.7043 19.9855 11.4088 19.9528 11.1139L21.3778 9.81544C21.7251 9.49893 21.8052 8.98325 21.5703 8.57627L19.7502 5.42375C19.5152 5.01678 19.0286 4.82831 18.5808 4.97089L16.7438 5.55576C16.513 5.38604 16.274 5.22954 16.0281 5.08657ZM12 16C14.2091 16 16 14.2091 16 12C16 9.79086 14.2091 8 12 8C9.79086 8 8 9.79086 8 12C8 14.2091 9.79086 16 12 16Z" fill="#2E3A59"/>
</svg>
