<svg width="24" height="24" viewBox="0 0 24 24" fill="none" xmlns="http://www.w3.org/2000/svg">
<path d="M16.3725 11.6213C17.9412 11.6213 19 12.7132 19 14.3309C19 15.7868 17.7843 17 16.1373 17C14.3333 17 13 15.5441 13 13.3199C13 8.26471 16.6863 6.24265 19 6L19 8.22426C17.4314 8.50735 15.6667 10.0846 15.5882 11.8235C15.6667 11.7831 15.9804 11.6213 16.3725 11.6213Z" fill="black"/>
<path d="M8.37255 11.6213C9.94118 11.6213 11 12.7132 11 14.3309C11 15.7868 9.78431 17 8.13725 17C6.33333 17 5 15.5441 5 13.3199C5 8.26471 8.68627 6.24265 11 6V8.22426C9.43137 8.50735 7.66667 10.0846 7.58824 11.8235C7.66667 11.7831 7.98039 11.6213 8.37255 11.6213Z" fill="black"/>
</svg>
