<svg width="24" height="24" viewBox="0 0 24 24" fill="none" xmlns="http://www.w3.org/2000/svg">
<path d="M7 12C7 10.8954 7.89543 10 9 10V10C10.1046 10 11 10.8954 11 12V12C11 13.1046 10.1046 14 9 14V14C7.89543 14 7 13.1046 7 12V12ZM7 6C7 4.89543 7.89543 4 9 4V4C10.1046 4 11 4.89543 11 6V6C11 7.10457 10.1046 8 9 8V8C7.89543 8 7 7.10457 7 6V6ZM7 18C7 16.8954 7.89543 16 9 16V16C10.1046 16 11 16.8954 11 18V18C11 19.1046 10.1046 20 9 20V20C7.89543 20 7 19.1046 7 18V18ZM13 12C13 10.8954 13.8954 10 15 10V10C16.1046 10 17 10.8954 17 12V12C17 13.1046 16.1046 14 15 14V14C13.8954 14 13 13.1046 13 12V12ZM13 6C13 4.89543 13.8954 4 15 4V4C16.1046 4 17 4.89543 17 6V6C17 7.10457 16.1046 8 15 8V8C13.8954 8 13 7.10457 13 6V6ZM13 18C13 16.8954 13.8954 16 15 16V16C16.1046 16 17 16.8954 17 18V18C17 19.1046 16.1046 20 15 20V20C13.8954 20 13 19.1046 13 18V18Z" fill="black"/>
</svg>
