<svg width="24" height="24" viewBox="0 0 24 24" fill="none" xmlns="http://www.w3.org/2000/svg">
<path d="M12 22C7.439 22 4 20.065 4 17.5V5.99997H4.047C4.39672 4.70022 5.33486 3.63921 6.582 3.13297C8.27819 2.34776 10.1313 1.96024 12 1.99997C16.561 1.99997 20 3.93497 20 6.49997C19.999 6.66773 19.9829 6.83507 19.952 6.99997H20V17.5C20 20.065 16.561 22 12 22ZM5.777 9.39397V17.5C5.777 18.519 8.2 20 12 20C15.8 20 18.222 18.519 18.222 17.5V9.39397C16.3471 10.5202 14.1857 11.078 12 11C9.81398 11.0779 7.6523 10.52 5.777 9.39397ZM12 3.99997C8.2 3.99997 5.777 5.48097 5.777 6.49997C5.777 7.51897 8.2 8.99997 12 8.99997C15.8 8.99997 18.222 7.51897 18.222 6.49997C18.222 5.48097 15.8 3.99997 12 3.99997Z" fill="black"/>
</svg>
