<svg width="24" height="24" viewBox="0 0 24 24" fill="none" xmlns="http://www.w3.org/2000/svg">
<path d="M12 22C7.664 22 4 19.965 4 17.556V6.444C4 4.035 7.664 2 12 2C16.336 2 20 4.035 20 6.444V17.556C20 19.965 16.337 22 12 22ZM6 14.9V17.559C6.07 18.112 8.309 19.781 12 19.781C15.691 19.781 17.931 18.107 18 17.553V14.9C16.1794 15.9554 14.1039 16.4905 12 16.447C9.89606 16.4906 7.82058 15.9554 6 14.9ZM6 9.341V12C6.07 12.553 8.309 14.222 12 14.222C15.691 14.222 17.931 12.548 18 11.994V9.341C16.1795 10.3968 14.104 10.9323 12 10.889C9.89596 10.9323 7.82046 10.3968 6 9.341ZM12 4.222C8.308 4.222 6.069 5.896 6 6.451C6.07 7 8.311 8.666 12 8.666C15.689 8.666 17.931 6.992 18 6.438C17.93 5.887 15.689 4.222 12 4.222Z" fill="black"/>
</svg>
