<svg width="24" height="24" viewBox="0 0 24 24" fill="none" xmlns="http://www.w3.org/2000/svg">
<path d="M12.0503 8.5L17 13.4497L15.5858 14.864L12.0503 11.3284L8.51472 14.864L7.1005 13.4497L12.0503 8.5Z" fill="#2E3A59"/>
<path fill-rule="evenodd" clip-rule="evenodd" d="M12 22C6.47715 22 2 17.5228 2 12C2 6.47715 6.47715 2 12 2C17.5229 2 22 6.47715 22 12C22 17.5228 17.5228 22 12 22ZM12 20C7.58172 20 4 16.4183 4 12C4 7.58172 7.58172 4 12 4C16.4183 4 20 7.58172 20 12C20 16.4183 16.4183 20 12 20Z" fill="#2E3A59"/>
</svg>
