<svg width="24" height="24" viewBox="0 0 24 24" fill="none" xmlns="http://www.w3.org/2000/svg">
<path d="M10.6602 7.44769C10.2041 8.41507 9.73442 9.42282 9.29736 10.407C8.84883 9.41865 8.37824 8.41643 7.91446 7.44096C7.89141 7.38953 7.85324 7.32266 7.77856 7.27836C7.70675 7.23577 7.63109 7.2326 7.58278 7.2326H6.14945C6.06414 7.2326 5.96876 7.27397 5.91527 7.36345C5.85644 7.46188 5.8743 7.57015 5.92662 7.65128L8.08315 11.9645L5.85449 16.2265C5.81394 16.2849 5.78103 16.3735 5.81192 16.4709C5.85438 16.6049 5.97887 16.6502 6.07445 16.6502H7.44945C7.50928 16.6502 7.57499 16.6386 7.6381 16.6C7.69847 16.5631 7.73932 16.512 7.76923 16.4639L7.77488 16.4548L7.77954 16.4452C8.25391 15.4631 8.74149 14.4214 9.19555 13.4139C9.54875 14.1593 9.89564 14.8746 10.2378 15.5803C10.3769 15.8669 10.5151 16.152 10.6527 16.4368L10.6538 16.439C10.6816 16.495 10.7233 16.5606 10.7964 16.6058C10.8695 16.6509 10.9466 16.6586 11.0078 16.6586H12.4578C12.5672 16.6586 12.6697 16.5967 12.7108 16.4868C12.746 16.3924 12.7236 16.2975 12.6825 16.2272L10.3996 11.8241L12.5576 7.63874C12.5934 7.57765 12.6271 7.47892 12.5809 7.37588C12.5278 7.25747 12.4124 7.22424 12.3328 7.22424H10.9911C10.9104 7.22424 10.8344 7.24658 10.77 7.30191C10.7241 7.34144 10.6922 7.3934 10.6755 7.42051L10.6713 7.42727L10.6652 7.43716L10.6602 7.44769Z" fill="#2E3A59"/>
<path fill-rule="evenodd" clip-rule="evenodd" d="M16.7744 7.2326C16.6348 7.2326 16.4911 7.34353 16.4911 7.51625V9.51872C16.42 9.51629 16.3498 9.51629 16.2597 9.51629H16.2578C15.1804 9.51629 14.2908 9.91773 13.6716 10.5851C13.0539 11.2508 12.7161 12.1693 12.7161 13.1878C12.7161 14.363 13.0503 15.2674 13.6447 15.8777C14.2394 16.4882 15.0709 16.78 16.0166 16.7757C16.745 16.7756 17.5078 16.619 18.2357 16.271L18.2392 16.2693C18.2646 16.2565 18.3193 16.229 18.3603 16.1756C18.4086 16.1126 18.4161 16.045 18.4161 15.9985V15.9851L18.4143 15.9718C18.3747 15.6772 18.3744 15.4052 18.3744 15.1787V7.49952C18.3744 7.45764 18.367 7.37109 18.2932 7.3032C18.2249 7.24034 18.141 7.2326 18.0911 7.2326H16.7744ZM15.0749 11.6661C15.3493 11.3424 15.738 11.1627 16.2078 11.1627C16.3189 11.1627 16.4142 11.1743 16.4911 11.1919V15.0414C16.3821 15.0668 16.2502 15.0791 16.1161 15.0791C15.6905 15.0791 15.3272 14.9407 15.0674 14.6452C14.8047 14.3464 14.6244 13.8604 14.6244 13.1209C14.6244 12.4825 14.7981 11.9927 15.0749 11.6661Z" fill="#2E3A59"/>
<path fill-rule="evenodd" clip-rule="evenodd" d="M18 4H6C4.89543 4 4 4.89543 4 6V18C4 19.1046 4.89543 20 6 20H18C19.1046 20 20 19.1046 20 18V6C20 4.89543 19.1046 4 18 4ZM6 2C3.79086 2 2 3.79086 2 6V18C2 20.2091 3.79086 22 6 22H18C20.2091 22 22 20.2091 22 18V6C22 3.79086 20.2091 2 18 2H6Z" fill="#2E3A59"/>
</svg>
