<svg width="24" height="24" viewBox="0 0 24 24" fill="none" xmlns="http://www.w3.org/2000/svg">
<path d="M12 2C6.486 2 2 6.486 2 12C2 17.514 6.486 22 12 22C17.514 22 22 17.514 22 12C22 6.486 17.514 2 12 2ZM12 20C7.589 20 4 16.411 4 12C4 7.589 7.589 4 12 4C16.411 4 20 7.589 20 12C20 16.411 16.411 20 12 20Z" fill="#2E3A59"/>
<path d="M8.5 12C9.32843 12 10 11.3284 10 10.5C10 9.67157 9.32843 9 8.5 9C7.67157 9 7 9.67157 7 10.5C7 11.3284 7.67157 12 8.5 12Z" fill="#2E3A59"/>
<path d="M15.493 11.986C16.3176 11.986 16.986 11.3176 16.986 10.493C16.986 9.66844 16.3176 9 15.493 9C14.6684 9 14 9.66844 14 10.493C14 11.3176 14.6684 11.986 15.493 11.986Z" fill="#2E3A59"/>
<path fill-rule="evenodd" clip-rule="evenodd" d="M9.71092 14.6355C10.3148 14.2337 11.075 14 12 14C12.925 14 13.6852 14.2337 14.2891 14.6355C14.8867 15.0332 15.2726 15.5562 15.5194 16.0489C15.7643 16.5377 15.8817 17.0144 15.9395 17.3605C15.9688 17.5359 15.9838 17.6843 15.9916 17.7927C15.9955 17.8471 15.9976 17.8919 15.9987 17.9256C15.9993 17.9425 15.9996 17.9566 15.9998 17.9678L16 17.9824L16 17.988L16 17.9904L16 17.9915C16 17.992 16 17.9925 15 17.9925C14 17.9925 14 17.993 14 17.9934L14 17.9959L14 17.9982C14 17.9994 14 17.9999 14 18L13.9998 17.9921C13.9995 17.982 13.9987 17.9624 13.9967 17.9349C13.9927 17.8796 13.9843 17.794 13.9667 17.6887C13.9308 17.4734 13.8607 17.2015 13.7306 16.9417C13.6024 16.6858 13.4258 16.4603 13.1797 16.2965C12.9398 16.1369 12.575 15.9962 12 15.9962C11.425 15.9962 11.0602 16.1369 10.8203 16.2965C10.5742 16.4603 10.3976 16.6858 10.2694 16.9417C10.1393 17.2015 10.0692 17.4734 10.0333 17.6887C10.0157 17.794 10.0073 17.8796 10.0033 17.9349C10.0013 17.9624 10.0005 17.982 10.0002 17.9921L9.99996 18C9.99996 17.9999 9.99997 17.9994 9.99998 17.9982L9.99999 17.9959L10 17.9943C10 17.9938 10 17.9925 9 17.9925C8 17.9925 8 17.992 8 17.9915L8 17.9904L8.00001 17.988L8.00004 17.9824L8.00022 17.9678C8.0004 17.9566 8.00072 17.9425 8.00129 17.9256C8.00241 17.8919 8.00451 17.8471 8.0084 17.7927C8.01616 17.6843 8.03119 17.5359 8.06048 17.3605C8.11827 17.0144 8.23571 16.5377 8.48057 16.0489C8.72739 15.5562 9.11331 15.0332 9.71092 14.6355Z" fill="#2E3A59"/>
</svg>
