<svg width="24" height="24" viewBox="0 0 24 24" fill="none" xmlns="http://www.w3.org/2000/svg">
<path d="M12.01 2.01898C6.51504 2.01898 2.01904 6.51498 2.01904 12.01C2.01904 17.504 6.51504 22 12.01 22C17.504 22 22 17.504 22 12.01C22 6.51498 17.554 2.01898 12.01 2.01898ZM16.605 16.455C16.406 16.754 16.056 16.855 15.755 16.656C13.406 15.206 10.459 14.906 6.96204 15.705C6.61404 15.807 6.31404 15.557 6.21404 15.256C6.11304 14.906 6.36304 14.608 6.66404 14.507C10.459 13.657 13.757 14.008 16.354 15.607C16.704 15.756 16.754 16.155 16.605 16.455ZM17.805 13.708C17.554 14.057 17.105 14.207 16.754 13.957C14.057 12.311 9.96204 11.809 6.81504 12.809C6.41704 12.91 5.96504 12.709 5.86604 12.311C5.76504 11.909 5.96604 11.459 6.36504 11.359C10.011 10.261 14.508 10.811 17.604 12.71C17.904 12.859 18.054 13.358 17.805 13.708ZM17.904 10.909C14.707 9.01198 9.36204 8.81198 6.31404 9.76298C5.81504 9.91098 5.31404 9.61198 5.16604 9.16298C5.01604 8.66098 5.31404 8.16198 5.76504 8.01198C9.31204 6.96298 15.157 7.16198 18.854 9.36298C19.303 9.61198 19.453 10.212 19.203 10.661C18.953 11.011 18.354 11.159 17.904 10.909Z" fill="#2E3A59"/>
</svg>
