<svg width="24" height="24" viewBox="0 0 24 24" fill="none" xmlns="http://www.w3.org/2000/svg">
<path fill-rule="evenodd" clip-rule="evenodd" d="M12.2338 12.81C13.5287 10.8556 13.3151 8.19634 11.5931 6.47434C9.62732 4.50855 6.44014 4.50855 4.47434 6.47434C2.50855 8.44014 2.50855 11.6273 4.47434 13.5931C6.19634 15.3151 8.85557 15.5287 10.81 14.2338L16.5762 20L18 18.5762L12.2338 12.81ZM10.1694 7.8981C11.3488 9.07757 11.3488 10.9899 10.1694 12.1694C8.98988 13.3488 7.07757 13.3488 5.8981 12.1694C4.71862 10.9899 4.71862 9.07757 5.8981 7.8981C7.07757 6.71862 8.98988 6.71862 10.1694 7.8981Z" fill="black"/>
<path d="M17 7V5H19V7H21V9H19V11H17V9H15V7H17Z" fill="black"/>
</svg>
