<svg width="24" height="24" viewBox="0 0 24 24" fill="none" xmlns="http://www.w3.org/2000/svg">
<path d="M19.0414 13.2534C19.6091 12.9256 19.9587 12.32 19.9587 11.6646V6.44458C19.9587 5.78915 19.6091 5.1835 19.0415 4.85578L14.5208 2.24579C13.9532 1.91807 13.2538 1.91807 12.6862 2.24579L8.16559 4.85578C7.59796 5.1835 7.24829 5.78915 7.24829 6.44458L7.24829 11.6646C7.24829 12.32 7.59796 12.9256 8.16559 13.2534L12.6862 15.8634C13.2538 16.1911 13.9532 16.1911 14.5208 15.8634L19.0414 13.2534Z" fill="#2E3A59"/>
<path d="M4.95856 10.7467L6.3312 9.95416L6.3312 11.6646C6.3312 12.6477 6.85571 13.5562 7.70715 14.0478L12.2278 16.6578C13.0792 17.1494 14.1282 17.1494 14.9797 16.6578L16.7517 15.6347V17.5554C16.7517 18.2109 16.402 18.8165 15.8344 19.1442L11.3138 21.7542C10.7462 22.082 10.0468 22.082 9.47919 21.7542L4.95856 19.1442C4.39093 18.8165 4.04126 18.2109 4.04126 17.5554V12.3355C4.04126 11.68 4.39093 11.0744 4.95856 10.7467Z" fill="#2E3A59"/>
</svg>
