<svg width="24" height="24" viewBox="0 0 24 24" fill="none" xmlns="http://www.w3.org/2000/svg">
<path d="M12.1661 3C12.9621 3 15.6611 3.223 16.9351 6.073C17.3611 7.032 17.2591 8.662 17.1751 9.971L17.1731 10.018C17.1621 10.164 17.1551 10.296 17.1491 10.428C17.2101 10.465 17.3131 10.5 17.4711 10.5C17.7121 10.487 18.0011 10.404 18.3021 10.259C18.4351 10.189 18.5781 10.175 18.6751 10.175C18.8211 10.175 18.9641 10.198 19.0841 10.247C19.4451 10.367 19.6741 10.632 19.6741 10.921C19.6871 11.282 19.3611 11.596 18.6991 11.86C18.6281 11.883 18.5301 11.921 18.4231 11.956C18.0601 12.065 17.5061 12.245 17.3501 12.607C17.2781 12.788 17.3011 13.028 17.4481 13.304L17.4601 13.317C17.5081 13.426 18.6881 16.112 21.3141 16.546C21.5181 16.581 21.663 16.763 21.6511 16.955C21.6511 17.015 21.6381 17.074 21.6151 17.136C21.4221 17.593 20.5921 17.931 19.0851 18.157C19.038 18.23 18.989 18.459 18.9531 18.616C18.9311 18.76 18.8931 18.905 18.8461 19.06C18.7851 19.278 18.6291 19.385 18.4001 19.385H18.3761C18.2691 19.385 18.1251 19.362 17.9431 19.326C17.6541 19.265 17.3291 19.218 16.9191 19.218C16.6791 19.218 16.4391 19.23 16.1871 19.278C15.7041 19.362 15.2831 19.651 14.8011 19.988C14.1141 20.469 13.3321 21.024 12.1521 21.024C12.1041 21.024 12.0561 21.012 12.0061 21.012H11.8871C10.7061 21.012 9.93605 20.469 9.25005 19.976C8.76905 19.638 8.36005 19.35 7.87705 19.265C7.62505 19.23 7.37105 19.205 7.13205 19.205C6.69705 19.205 6.36105 19.277 6.10905 19.325C5.93905 19.36 5.79505 19.384 5.67405 19.384C5.37305 19.384 5.25405 19.205 5.20405 19.047C5.15605 18.893 5.13305 18.734 5.09705 18.591C5.05905 18.445 5.01205 18.195 4.96405 18.133C3.42105 17.954 2.59105 17.616 2.39905 17.147C2.37405 17.096 2.35705 17.027 2.35505 16.966C2.34205 16.771 2.48805 16.592 2.69205 16.557C5.31705 16.123 6.49705 13.438 6.54605 13.325L6.55905 13.302C6.70405 13.025 6.73905 12.782 6.65505 12.603C6.49905 12.254 5.94405 12.074 5.58505 11.953C5.48705 11.93 5.39105 11.893 5.30605 11.857C4.41605 11.507 4.29505 11.109 4.34405 10.833C4.41605 10.449 4.88505 10.196 5.28305 10.196C5.40005 10.196 5.50005 10.219 5.59105 10.256C5.92805 10.411 6.22605 10.497 6.47905 10.497C6.66705 10.497 6.78805 10.449 6.85205 10.412L6.81105 9.954C6.73105 8.647 6.62905 7.019 7.05805 6.065C8.29405 3.229 10.9871 3.011 11.7821 3.011L12.1171 3H12.1661Z" fill="#2E3A59"/>
</svg>
