<svg width="24" height="24" viewBox="0 0 24 24" fill="none" xmlns="http://www.w3.org/2000/svg">
<path d="M11.9999 4C7.12088 4 2.99988 8.121 2.99988 13C2.99988 17.879 7.12088 22 11.9999 22C16.8789 22 20.9999 17.879 20.9999 13C20.9999 8.121 16.8789 4 11.9999 4ZM11.9999 20C8.20588 20 4.99988 16.794 4.99988 13C4.99988 9.206 8.20588 6 11.9999 6C15.7939 6 18.9999 9.206 18.9999 13C18.9999 16.794 15.7939 20 11.9999 20Z" fill="black"/>
<path d="M12.9999 12V8H10.9999V14H16.9999V12H12.9999Z" fill="black"/>
<path d="M17.2837 3.70696L18.6959 2.29073L21.7054 5.29163L20.2932 6.70786L17.2837 3.70696Z" fill="black"/>
<path d="M6.6978 3.70701L3.7075 6.70589L2.29126 5.2937L5.28157 2.29482L6.6978 3.70701Z" fill="black"/>
</svg>
