<svg width="24" height="24" viewBox="0 0 24 24" fill="none" xmlns="http://www.w3.org/2000/svg">
<path d="M19.6649 16.811C19.3779 17.475 19.0379 18.086 18.6439 18.648C18.1069 19.415 17.6659 19.945 17.3279 20.24C16.8029 20.722 16.2389 20.97 15.6359 20.984C15.2039 20.984 14.6819 20.861 14.0739 20.611C13.4639 20.362 12.9039 20.24 12.3909 20.24C11.8539 20.24 11.2779 20.362 10.6609 20.611C10.0449 20.861 9.5469 20.992 9.1659 21.004C8.5889 21.029 8.0119 20.775 7.4369 20.24C7.0699 19.92 6.6109 19.37 6.0599 18.592C5.4699 17.763 4.9849 16.798 4.6049 15.701C4.1979 14.514 3.9939 13.366 3.9939 12.254C3.9939 10.981 4.2689 9.88202 4.8199 8.96202C5.2539 8.22202 5.8299 7.63902 6.5499 7.21102C7.2709 6.78202 8.0509 6.56302 8.8899 6.54902C9.3499 6.54902 9.9529 6.69102 10.6999 6.97102C11.4469 7.25102 11.9269 7.39302 12.1359 7.39302C12.2939 7.39302 12.8249 7.22602 13.7289 6.89502C14.5819 6.58802 15.3019 6.46102 15.8919 6.51102C17.4919 6.64002 18.6929 7.27002 19.4919 8.40602C18.0619 9.27302 17.3549 10.486 17.3689 12.043C17.3809 13.256 17.8219 14.265 18.6859 15.066C19.0779 15.438 19.5149 15.725 20.0009 15.929C19.8949 16.236 19.7829 16.529 19.6649 16.811ZM15.9979 2.38002C15.9979 3.33002 15.6499 4.21802 14.9589 5.03902C14.1229 6.01502 13.1129 6.58002 12.0179 6.49102C12.0039 6.37702 11.9969 6.25702 11.9969 6.13102C11.9969 5.21802 12.3929 4.24202 13.0999 3.44302C13.4519 3.03902 13.8999 2.70202 14.4429 2.43402C14.9849 2.17002 15.4969 2.02402 15.9789 1.99902C15.9919 2.12702 15.9979 2.25402 15.9979 2.38002Z" fill="black"/>
</svg>
