<svg width="24" height="24" viewBox="0 0 24 24" fill="none" xmlns="http://www.w3.org/2000/svg">
<path fill-rule="evenodd" clip-rule="evenodd" d="M21 20C21 20.5523 20.5523 21 20 21L4 21C3.44772 21 3 20.5523 3 20V12.7037C3 12.4154 3.12448 12.141 3.3415 11.9512L5 10.5V4C5 3.44772 5.44772 3 6 3H20C20.5523 3 21 3.44772 21 4V20ZM8.3415 7.57616L7 8.74997V5H19V19H15V12.7037C15 12.4154 14.8755 12.141 14.6585 11.9512L9.6585 7.57616C9.28148 7.24626 8.71852 7.24626 8.3415 7.57616ZM13 19V13.1575L9 9.6575L5 13.1575V19H8V16H10V19H13Z" fill="black"/>
</svg>
