<svg width="24" height="24" viewBox="0 0 24 24" fill="none" xmlns="http://www.w3.org/2000/svg">
<path d="M14.6293 14.1827L12.8292 12.3837L14.1999 11.0122L16 12.8113L14.6293 14.1827Z" fill="black"/>
<path d="M8.005 19V17.201L12.201 13.011L14 14.81L9.804 19H8.005Z" fill="black"/>
<path fill-rule="evenodd" clip-rule="evenodd" d="M19 4H17V2H15V4H9V2H7V4H5C3.897 4 3 4.897 3 6V20C3 21.103 3.897 22 5 22H19C20.103 22 21 21.103 21 20V6C21 4.897 20.103 4 19 4ZM5 20V10H19L19.002 20H5ZM19.0003 8L19 6H5V8H19.0003Z" fill="black"/>
</svg>
