<svg width="24" height="24" viewBox="0 0 24 24" fill="none" xmlns="http://www.w3.org/2000/svg">
<path d="M10.83 11H17V13H10.83L13.41 15.59L12 17L7 12L12 6.99997L13.41 8.40997L10.83 11Z" fill="black"/>
<path fill-rule="evenodd" clip-rule="evenodd" d="M22 12C22 17.5228 17.5228 22 12 22C6.47715 22 2 17.5228 2 12C2 6.47712 6.47715 1.99997 12 1.99997C17.5228 1.99997 22 6.47712 22 12ZM20 12C20 16.4182 16.4183 20 12 20C7.58172 20 4 16.4182 4 12C4 7.58169 7.58172 3.99997 12 3.99997C16.4183 3.99997 20 7.58169 20 12Z" fill="black"/>
</svg>
