<svg width="24" height="24" viewBox="0 0 24 24" fill="none" xmlns="http://www.w3.org/2000/svg">
<path fill-rule="evenodd" clip-rule="evenodd" d="M3.41421 3.58578L2 5L5.04463 8.04463L5.02529 8.07877C2.17514 8.54439 0 11.0182 0 14C0 17.3137 2.68629 20 6 20H17L18.9706 21.9706L20.3847 20.5563L3.41421 3.58578ZM6.81341 9.81341L15 18H6C3.79086 18 2 16.2091 2 14C2 12.0141 3.44924 10.3628 5.34774 10.0526L6.81341 9.81341Z" fill="black"/>
<path d="M7.82891 5.17209L9.29793 6.64111C10.1104 6.23071 11.0285 6 12 6C14.8087 6 17.1711 7.93171 17.822 10.5418L18.1442 11.8334L19.4601 12.0348C20.898 12.2548 22 13.5005 22 15C22 16.1748 21.3247 17.1919 20.3411 17.6843L21.799 19.1421L21.7939 19.1472C23.1248 18.2488 24 16.7266 24 15C24 12.4979 22.1621 10.425 19.7626 10.0578C18.8948 6.57805 15.7485 4 12 4C10.4717 4 9.04343 4.42857 7.82891 5.17209Z" fill="black"/>
</svg>
