<svg width="24" height="24" viewBox="0 0 24 24" fill="none" xmlns="http://www.w3.org/2000/svg">
<path d="M6 14C3.794 14 2 15.794 2 18C2 20.206 3.794 22 6 22C8.199 22 9.987 20.216 9.998 18.02H10V16H14V18.039H14.004C14.025 20.226 15.808 22 18 22C20.206 22 22 20.206 22 18C22 15.794 20.206 14 18 14H16V10H18C20.206 10 22 8.206 22 6C22 3.794 20.206 2 18 2C15.794 2 14 3.794 14 6V8H10V5.98H9.998C9.987 3.784 8.199 2 6 2C3.794 2 2 3.794 2 6C2 8.206 3.794 10 6 10H8V14H6ZM8 18C8 19.122 7.121 20 6 20C4.879 20 4 19.122 4 18C4 16.878 4.879 16 6 16H8V18ZM18 16C19.121 16 20 16.878 20 18C20 19.122 19.121 20 18 20C16.879 20 16 19.122 16 18V16H18ZM16 6C16 4.878 16.879 4 18 4C19.121 4 20 4.878 20 6C20 7.122 19.121 8 18 8H16V6ZM6 8C4.879 8 4 7.122 4 6C4 4.878 4.879 4 6 4C7.121 4 8 4.878 8 6V8H6ZM10 10H14V14H10V10Z" fill="black"/>
</svg>
