<svg width="24" height="24" viewBox="0 0 24 24" fill="none" xmlns="http://www.w3.org/2000/svg">
<path d="M6.16667 2.83333C6.16667 2.37333 5.79333 2 5.33333 2C4.87333 2 4.5 2.37333 4.5 2.83333C4.5 3.29333 4.87333 3.66667 5.33333 3.66667C5.79333 3.66667 6.16667 3.29333 6.16667 2.83333Z" fill="black"/>
<path d="M8.25 2.83333C8.94 2.83333 9.5 3.39333 9.5 4.08333C9.5 4.77333 8.94 5.33333 8.25 5.33333C7.56 5.33333 7 4.77333 7 4.08333C7 3.39333 7.56 2.83333 8.25 2.83333Z" fill="black"/>
<path d="M4.5 5.75C4.5 5.06 3.94 4.5 3.25 4.5C2.56 4.5 2 5.06 2 5.75C2 6.44 2.56 7 3.25 7C3.94 7 4.5 6.44 4.5 5.75Z" fill="black"/>
<path d="M5.33333 8.66667C5.33333 8.20667 4.96 7.83333 4.5 7.83333C4.04 7.83333 3.66667 8.20667 3.66667 8.66667C3.66667 9.12667 4.04 9.5 4.5 9.5C4.96 9.5 5.33333 9.12667 5.33333 8.66667Z" fill="black"/>
<path fill-rule="evenodd" clip-rule="evenodd" d="M22 12C22 6.5025 17.5542 2.035 12.065 2C12.655 4.73167 10.3358 7.58917 7 7C8.15667 10.0058 5.23917 12.9058 2 12C2 17.5192 6.48083 22 12 22C17.5192 22 22 17.5192 22 12ZM12.7636 18.5684C12.5329 18.4708 12.3376 18.3058 12.2022 18.0983C12.0743 17.9022 12 17.6681 12 17.4167C12 16.7267 12.56 16.1667 13.25 16.1667C13.5087 16.1667 13.7492 16.2454 13.9487 16.3802C14.0155 16.4253 14.0776 16.4767 14.1343 16.5335C14.3603 16.7597 14.5 17.072 14.5 17.4167C14.5 18.1067 13.94 18.6667 13.25 18.6667C13.0775 18.6667 12.9131 18.6317 12.7636 18.5684ZM6.90396 16.869C7.10334 16.9533 7.32252 17 7.55253 17C8.47253 17 9.2192 16.2534 9.2192 15.3334C9.2192 14.8685 9.02857 14.4479 8.72127 14.1455C8.57243 13.999 8.39622 13.8803 8.20104 13.7977C8.00167 13.7133 7.7825 13.6667 7.5525 13.6667C6.6325 13.6667 5.88583 14.4133 5.88583 15.3333C5.88583 15.7949 6.07375 16.2128 6.3772 16.5147C6.52741 16.6641 6.70592 16.7851 6.90396 16.869ZM16.3515 14.369C16.1587 14.2874 15.9845 14.1706 15.8368 14.0266C15.5263 13.7238 15.3333 13.301 15.3333 12.8333C15.3333 11.9133 16.08 11.1667 17 11.1667C17.345 11.1667 17.6656 11.2717 17.9316 11.4514C18.1199 11.5787 18.2808 11.7433 18.4037 11.9348C18.5701 12.1941 18.6667 12.5025 18.6667 12.8334C18.6667 13.7534 17.92 14.5 17 14.5C16.77 14.5 16.5508 14.4533 16.3515 14.369ZM12.3243 10.3989C12.2246 10.3567 12.115 10.3333 12 10.3333C11.54 10.3333 11.1667 10.7067 11.1667 11.1667C11.1667 11.4551 11.3134 11.7094 11.5363 11.859C11.6689 11.9481 11.8284 12 12 12C12.46 12 12.8334 11.6267 12.8334 11.1667C12.8334 10.9331 12.7371 10.7218 12.5821 10.5705C12.5081 10.4983 12.4208 10.4397 12.3243 10.3989ZM16.2364 6.26495C16.0869 6.20167 15.9225 6.16667 15.75 6.16667C15.06 6.16667 14.5 6.72667 14.5 7.41667C14.5 7.84927 14.7201 8.23077 15.0544 8.4552C15.2533 8.58875 15.4926 8.66669 15.75 8.66669C16.44 8.66669 17 8.10669 17 7.41669C17 7.07154 16.8599 6.75893 16.6335 6.53266C16.5204 6.41965 16.3858 6.32818 16.2364 6.26495Z" fill="black"/>
</svg>
