<svg width="24" height="24" viewBox="0 0 24 24" fill="none" xmlns="http://www.w3.org/2000/svg">
<path fill-rule="evenodd" clip-rule="evenodd" d="M7.71429 6.28571C8.64661 6.28571 9.52678 6.50898 10.3042 6.90498C9.6856 7.63056 9.19666 8.47009 8.87327 9.3877C8.51906 9.23031 8.12688 9.14285 7.71429 9.14285C6.13633 9.14285 4.85714 10.422 4.85714 12C4.85714 13.5779 6.13633 14.8571 7.71429 14.8571C9.29224 14.8571 10.5714 13.5779 10.5714 12C10.5714 10.5508 11.1109 9.22758 12 8.22024C13.0471 7.03393 14.579 6.28571 16.2857 6.28571C19.4416 6.28571 22 8.84408 22 12C22 15.1559 19.4416 17.7143 16.2857 17.7143C14.579 17.7143 13.0471 16.9661 12 15.7797C10.9529 16.9661 9.42099 17.7143 7.71429 17.7143C4.55837 17.7143 2 15.1559 2 12C2 8.84408 4.55837 6.28571 7.71429 6.28571ZM13.4286 12C13.4286 13.5779 14.7078 14.8571 16.2857 14.8571C17.8637 14.8571 19.1429 13.5779 19.1429 12C19.1429 10.422 17.8637 9.14285 16.2857 9.14285C14.7078 9.14285 13.4286 10.422 13.4286 12Z" fill="black"/>
</svg>
