<svg width="24" height="24" viewBox="0 0 24 24" fill="none" xmlns="http://www.w3.org/2000/svg">
<path d="M7.86217 16.4031H8.45455C8.61877 16.4031 8.74585 16.3418 8.83578 16.2193C8.92571 16.0967 8.97067 15.9184 8.97067 15.6845C8.97067 15.4416 8.92473 15.2489 8.83284 15.1063C8.74096 14.9615 8.61779 14.8879 8.46334 14.8857H7.86217V16.4031Z" fill="black"/>
<path fill-rule="evenodd" clip-rule="evenodd" d="M19.937 8.68L19.9276 8.65196C19.9204 8.62974 19.9132 8.60787 19.904 8.586C19.855 8.48 19.794 8.379 19.708 8.293L13.708 2.293C13.622 2.207 13.521 2.146 13.415 2.097C13.3943 2.08736 13.3727 2.08056 13.3508 2.07367C13.3409 2.07056 13.331 2.06742 13.321 2.064C13.237 2.036 13.151 2.018 13.062 2.013C13.0519 2.01208 13.0424 2.00925 13.033 2.00647C13.0221 2.0032 13.0113 2 13 2H6C4.897 2 4 2.897 4 4V20C4 21.103 4.897 22 6 22H18C19.103 22 20 21.103 20 20V9C20 8.98867 19.9968 8.97792 19.9935 8.96697C19.9907 8.95762 19.9879 8.94813 19.987 8.938C19.982 8.85 19.965 8.764 19.937 8.68ZM13 4V9H18L13 4ZM16.3871 18.8463C16.6295 18.7415 16.8338 18.5867 17 18.3817V16.373H15.5308V17.115H16.1349V18.0074L16.0587 18.0675C15.9531 18.1455 15.8152 18.1845 15.6452 18.1845C15.3793 18.1845 15.1877 18.0842 15.0704 17.8837C14.955 17.6809 14.8974 17.3578 14.8974 16.9144V16.0321C14.9013 15.6087 14.956 15.3001 15.0616 15.1063C15.1672 14.9124 15.3363 14.8155 15.5689 14.8155C15.7605 14.8155 15.9013 14.8723 15.9912 14.986C16.0811 15.0974 16.1378 15.3079 16.1613 15.6176H17C16.9629 15.0606 16.826 14.6517 16.5894 14.391C16.3548 14.1303 16.0059 14 15.5425 14C15.0499 14 14.6745 14.1816 14.4164 14.5448C14.1603 14.9057 14.0323 15.4216 14.0323 16.0922V16.9679C14.0401 17.6297 14.1799 18.1344 14.4516 18.482C14.7234 18.8273 15.1046 19 15.5953 19C15.8827 19 16.1466 18.9488 16.3871 18.8463ZM7.86217 17.2219V18.9332H7V14.0668H8.45455C8.87683 14.0668 9.2131 14.2161 9.46334 14.5147C9.71554 14.8133 9.84164 15.201 9.84164 15.6778C9.84164 16.1546 9.7175 16.5312 9.46921 16.8075C9.22092 17.0838 8.87683 17.2219 8.43695 17.2219H7.86217ZM13.4047 18.9332H12.5425L11.2815 15.7413V18.9332H10.4194V14.0668H11.2815L12.5455 17.262V14.0668H13.4047V18.9332Z" fill="black"/>
</svg>
