<svg width="24" height="24" viewBox="0 0 24 24" fill="none" xmlns="http://www.w3.org/2000/svg">
<path fill-rule="evenodd" clip-rule="evenodd" d="M19.937 8.68L19.9276 8.65196C19.9204 8.62974 19.9132 8.60787 19.904 8.586C19.855 8.48 19.794 8.379 19.708 8.293L13.708 2.293C13.622 2.207 13.521 2.146 13.415 2.097C13.3943 2.08736 13.3727 2.08056 13.3508 2.07367C13.3409 2.07056 13.331 2.06742 13.321 2.064C13.237 2.036 13.151 2.018 13.062 2.013C13.0519 2.01208 13.0424 2.00925 13.033 2.00647C13.0221 2.0032 13.0113 2 13 2H6C4.897 2 4 2.897 4 4V20C4 21.103 4.897 22 6 22H18C19.103 22 20 21.103 20 20V9C20 8.98867 19.9968 8.97792 19.9935 8.96697C19.9907 8.95762 19.9879 8.94813 19.987 8.938C19.982 8.85 19.965 8.764 19.937 8.68ZM13 4V9H18L13 4ZM10.1559 17.3122C10.1331 17.867 9.98786 18.287 9.7202 18.5722C9.45254 18.8574 9.0749 19 8.5873 19C8.0748 19 7.68161 18.8195 7.40772 18.4586C7.13591 18.0954 7 17.5784 7 16.9078V16.0889C7 15.4205 7.14109 14.9057 7.42328 14.5448C7.70547 14.1816 8.09762 14 8.59975 14C9.09358 14 9.4681 14.1482 9.72331 14.4445C9.9806 14.7409 10.1269 15.1664 10.1622 15.7213H9.24401C9.23571 15.3781 9.18591 15.1419 9.09462 15.0127C9.00539 14.8812 8.84044 14.8155 8.59975 14.8155C8.35491 14.8155 8.18166 14.908 8.07999 15.0929C7.97832 15.2756 7.92437 15.5775 7.91814 15.9987V16.9178C7.91814 17.4013 7.96794 17.7333 8.06754 17.9138C8.16921 18.0943 8.34246 18.1845 8.5873 18.1845C8.82799 18.1845 8.99398 18.1221 9.08528 17.9973C9.17657 17.8703 9.22845 17.6419 9.2409 17.3122H10.1559ZM12.6334 17.6564C12.6334 17.4581 12.5856 17.3088 12.4902 17.2086C12.3968 17.1061 12.2256 17.0002 11.9767 16.891C11.5223 16.7061 11.1955 16.49 10.9963 16.2426C10.7971 15.9931 10.6975 15.699 10.6975 15.3603C10.6975 14.9503 10.8323 14.6217 11.1021 14.3743C11.3739 14.1248 11.7183 14 12.1354 14C12.4134 14 12.6614 14.0635 12.8792 14.1905C13.0971 14.3153 13.2641 14.4924 13.3803 14.7219C13.4986 14.9514 13.5577 15.2121 13.5577 15.504H12.6458C12.6458 15.2767 12.6002 15.1041 12.5089 14.986C12.4196 14.8656 12.29 14.8055 12.1198 14.8055C11.9601 14.8055 11.8356 14.8567 11.7463 14.9592C11.6571 15.0595 11.6125 15.1954 11.6125 15.367C11.6125 15.5007 11.6623 15.6221 11.7619 15.7313C11.8615 15.8382 12.0379 15.9496 12.291 16.0655C12.733 16.2371 13.0535 16.4476 13.2527 16.6972C13.454 16.9467 13.5546 17.2643 13.5546 17.6497C13.5546 18.0731 13.4291 18.404 13.178 18.6424C12.927 18.8808 12.5856 19 12.1541 19C11.8615 19 11.5949 18.9354 11.3542 18.8062C11.1135 18.6769 10.9247 18.492 10.7877 18.2513C10.6529 18.0107 10.5854 17.7266 10.5854 17.3991H11.5036C11.5036 17.6798 11.5544 17.8837 11.6561 18.0107C11.7578 18.1377 11.9237 18.2012 12.1541 18.2012C12.4736 18.2012 12.6334 18.0196 12.6334 17.6564ZM15.9325 17.2086C16.0279 17.3088 16.0756 17.4581 16.0756 17.6564C16.0756 18.0196 15.9159 18.2012 15.5963 18.2012C15.366 18.2012 15.2 18.1377 15.0984 18.0107C14.9967 17.8837 14.9458 17.6798 14.9458 17.3991H14.0277C14.0277 17.7266 14.0951 18.0107 14.23 18.2513C14.3669 18.492 14.5558 18.6769 14.7965 18.8062C15.0371 18.9354 15.3038 19 15.5963 19C16.0279 19 16.3692 18.8808 16.6203 18.6424C16.8714 18.404 16.9969 18.0731 16.9969 17.6497C16.9969 17.2643 16.8963 16.9467 16.695 16.6972C16.4958 16.4476 16.1752 16.2371 15.7333 16.0655C15.4801 15.9496 15.3038 15.8382 15.2042 15.7313C15.1046 15.6221 15.0548 15.5007 15.0548 15.367C15.0548 15.1954 15.0994 15.0595 15.1886 14.9592C15.2778 14.8567 15.4023 14.8055 15.5621 14.8055C15.7322 14.8055 15.8619 14.8656 15.9511 14.986C16.0424 15.1041 16.0881 15.2767 16.0881 15.504H17C17 15.2121 16.9409 14.9514 16.8226 14.7219C16.7064 14.4924 16.5394 14.3153 16.3215 14.1905C16.1036 14.0635 15.8557 14 15.5777 14C15.1606 14 14.8162 14.1248 14.5444 14.3743C14.2746 14.6217 14.1397 14.9503 14.1397 15.3603C14.1397 15.699 14.2393 15.9931 14.4385 16.2426C14.6377 16.49 14.9645 16.7061 15.4189 16.891C15.6679 17.0002 15.8391 17.1061 15.9325 17.2086Z" fill="black"/>
</svg>
