<svg width="24" height="24" viewBox="0 0 24 24" fill="none" xmlns="http://www.w3.org/2000/svg">
<path d="M11.2371 16.4031H11.8623C12.0356 16.4031 12.1697 16.3418 12.2646 16.2193C12.3595 16.0967 12.407 15.9184 12.407 15.6845C12.407 15.4416 12.3585 15.2489 12.2615 15.1063C12.1646 14.9615 12.0346 14.8879 11.8716 14.8857H11.2371V16.4031Z" fill="black"/>
<path fill-rule="evenodd" clip-rule="evenodd" d="M19.937 8.68L19.9276 8.65196C19.9204 8.62974 19.9132 8.60787 19.904 8.586C19.855 8.48 19.794 8.379 19.708 8.293L13.708 2.293C13.622 2.207 13.521 2.146 13.415 2.097C13.3943 2.08736 13.3727 2.08056 13.3508 2.07367C13.3409 2.07056 13.331 2.06742 13.321 2.064C13.237 2.036 13.151 2.018 13.062 2.013C13.0519 2.01208 13.0424 2.00925 13.033 2.00647C13.0221 2.0032 13.0113 2 13 2H6C4.897 2 4 2.897 4 4V20C4 21.103 4.897 22 6 22H18C19.103 22 20 21.103 20 20V9C20 8.98867 19.9968 8.97792 19.9935 8.96697C19.9907 8.95762 19.9879 8.94813 19.987 8.938C19.982 8.85 19.965 8.764 19.937 8.68ZM13 4V9H18L13 4ZM16.3531 18.8463C16.609 18.7415 16.8246 18.5867 17 18.3817V16.373H15.4494V17.115H16.087V18.0074L16.0065 18.0675C15.8951 18.1455 15.7496 18.1845 15.5701 18.1845C15.2895 18.1845 15.0873 18.0842 14.9635 17.8837C14.8417 17.6809 14.7809 17.3578 14.7809 16.9144V16.0321C14.785 15.6087 14.8428 15.3001 14.9542 15.1063C15.0656 14.9124 15.2441 14.8155 15.4896 14.8155C15.6918 14.8155 15.8404 14.8723 15.9353 14.986C16.0302 15.0974 16.0901 15.3079 16.1148 15.6176H17C16.9608 15.0606 16.8164 14.6517 16.5667 14.391C16.3191 14.1303 15.9508 14 15.4618 14C14.9418 14 14.5457 14.1816 14.2733 14.5448C14.003 14.9057 13.8678 15.4216 13.8678 16.0922V16.9679C13.8761 17.6297 14.0236 18.1344 14.3104 18.482C14.5972 18.8273 14.9996 19 15.5175 19C15.8208 19 16.0994 18.9488 16.3531 18.8463ZM8.70226 14.0668H9.61219V17.4358C9.61219 17.9082 9.49046 18.287 9.24698 18.5722C9.00351 18.8574 8.68988 19 8.3061 19C7.89343 19 7.57258 18.8674 7.34355 18.6023C7.11452 18.3371 7 17.9684 7 17.496H7.91303C7.91303 17.955 8.04405 18.1845 8.3061 18.1845C8.57021 18.1845 8.70226 17.9193 8.70226 17.389V14.0668ZM11.2371 17.2219V18.9332H10.3271V14.0668H11.8623C12.308 14.0668 12.6628 14.2161 12.927 14.5147C13.1931 14.8133 13.3262 15.201 13.3262 15.6778C13.3262 16.1546 13.1952 16.5312 12.9331 16.8075C12.6711 17.0838 12.308 17.2219 11.8437 17.2219H11.2371Z" fill="black"/>
</svg>
