<svg width="24" height="24" viewBox="0 0 24 24" fill="none" xmlns="http://www.w3.org/2000/svg">
<path d="M8 11C6.34315 11 5 9.65685 5 8C5 6.34315 6.34315 5 8 5C9.65685 5 11 6.34315 11 8C11 9.65685 9.65685 11 8 11Z" fill="black"/>
<path d="M8 19C6.34315 19 5 17.6569 5 16C5 14.3431 6.34315 13 8 13C9.65685 13 11 14.3431 11 16C11 17.6569 9.65685 19 8 19Z" fill="black"/>
<path d="M13 16C13 17.6569 14.3431 19 16 19C17.6569 19 19 17.6569 19 16C19 14.3431 17.6569 13 16 13C14.3431 13 13 14.3431 13 16Z" fill="black"/>
<path d="M16 11C14.3431 11 13 9.65685 13 8C13 6.34315 14.3431 5 16 5C17.6569 5 19 6.34315 19 8C19 9.65685 17.6569 11 16 11Z" fill="black"/>
</svg>
