<svg width="24" height="24" viewBox="0 0 24 24" fill="none" xmlns="http://www.w3.org/2000/svg">
<path d="M6 18V11.5444L10.5 6.88039L11.9217 8.35391L13.3557 6.95974L11.2196 4.74584C10.8264 4.3383 10.1736 4.3383 9.78036 4.74584L4.28036 10.4462C4.10051 10.6327 4 10.8816 4 11.1406V19C4 19.5523 4.44772 20 5 20H16C16.5523 20 17 19.5523 17 19V18L6 18Z" fill="black"/>
<path d="M18.5858 8.92896L20 10.3432L17.8787 12.4645L20 14.5858L18.5858 16L16.4645 13.8787L14.3432 16L12.929 14.5858L15.0503 12.4645L12.929 10.3432L14.3432 8.92896L16.4645 11.0503L18.5858 8.92896Z" fill="black"/>
</svg>
