<svg width="24" height="24" viewBox="0 0 24 24" fill="none" xmlns="http://www.w3.org/2000/svg">
<path d="M19.3611 3.008H4.63806C3.73706 3.008 3.00806 3.737 3.00806 4.638V19.362C3.00806 20.262 3.73706 20.993 4.63806 20.993H19.3621C20.2621 20.993 20.9931 20.263 20.9931 19.362V4.638C20.9921 3.736 20.2621 3.008 19.3611 3.008ZM9.01806 6.505C9.61506 6.505 10.1161 6.977 10.1161 7.583C10.1161 8.199 9.61506 8.663 9.01806 8.663V8.685C8.41406 8.685 7.92806 8.199 7.92806 7.597C7.92806 6.992 8.41406 6.505 9.01806 6.505ZM16.3721 16.857C15.2601 16.857 14.7211 16.195 14.7211 15.291C14.7211 15.031 14.7541 14.758 14.8351 14.479L15.3631 12.573C15.4311 12.365 15.4491 12.168 15.4491 11.992C15.4491 11.377 15.0741 11.008 14.4781 11.008C13.7171 11.008 13.2181 11.551 12.9581 12.606L11.9251 16.752H10.1141L10.4411 15.449C9.90706 16.322 9.17006 16.861 8.25806 16.861C7.15606 16.861 6.64106 16.229 6.64106 15.277C6.64706 15.005 6.67606 14.731 6.73706 14.466L7.56306 11.1H6.28506L6.67306 9.67H9.74806L8.53206 14.474C8.45206 14.783 8.42206 15.033 8.42206 15.212C8.42206 15.519 8.57006 15.608 8.80706 15.664C8.95306 15.694 10.1021 15.675 10.7251 14.288L11.5231 11.1H10.2291L10.6201 9.696H13.4071L13.0481 11.313C13.5321 10.414 14.5001 9.551 15.4541 9.551C16.4661 9.551 17.3091 10.279 17.3091 11.662C17.3091 12.062 17.2461 12.458 17.1291 12.842L16.6091 14.7C16.5661 14.888 16.5341 15.047 16.5341 15.192C16.5341 15.518 16.6701 15.676 16.9021 15.676C17.1401 15.676 17.4551 15.495 17.8011 14.504L18.5091 14.776C18.0951 16.249 17.3271 16.857 16.3721 16.857Z" fill="black"/>
</svg>
