<svg width="24" height="24" viewBox="0 0 24 24" fill="none" xmlns="http://www.w3.org/2000/svg">
<path fill-rule="evenodd" clip-rule="evenodd" d="M2 9.13237C2 8.42984 2.3686 7.77883 2.97101 7.41738L10.971 2.61738C11.6044 2.23736 12.3956 2.23736 13.029 2.61738L21.029 7.41738C21.6314 7.77883 22 8.42984 22 9.13237V20C22 21.1046 21.1046 22 20 22H4C2.89543 22 2 21.1046 2 20V9.13237ZM20 9.8685V20H4V9.86851L12 15.2018L20 9.8685ZM18.6835 8.34247L12 4.33237L5.31649 8.34247L12 12.7981L18.6835 8.34247Z" fill="black"/>
</svg>
