<svg width="24" height="24" viewBox="0 0 24 24" fill="none" xmlns="http://www.w3.org/2000/svg">
<path fill-rule="evenodd" clip-rule="evenodd" d="M2 9.99997H4C4.15 7.34997 5.36999 4.88 7.38999 3.43L5.96999 2C3.57999 3.83 2.15 6.79997 2 9.99997ZM21.97 9.99997H19.97C19.82 7.34997 18.6 4.88 16.58 3.43L18 2C20.39 3.83 21.82 6.79997 21.97 9.99997ZM18 10.5C18 7.43 16.86 4.86 14 4.18V2H10V4.18C7.13001 4.86 6.00001 7.42 6.00001 10.5L6.00001 16L4.00001 17V19H20V17L18 16L18 10.5ZM12.4 21.96C12.27 21.99 12.14 22 12 22C10.89 22 10 21.1 9.99001 20H13.99C13.99 20.28 13.94 20.54 13.84 20.78C13.58 21.38 13.05 21.82 12.4 21.96Z" fill="black"/>
</svg>
