<svg width="24" height="24" viewBox="0 0 24 24" fill="none" xmlns="http://www.w3.org/2000/svg">
<path d="M7.857 14.07C7.233 14.642 6.41 15 5.5 15C3.57 15 2 13.43 2 11.5C2 9.57 3.57 8 5.5 8C6.729 8 7.808 8.64 8.433 9.602L14.117 6.353C14.048 6.078 14 5.796 14 5.5C14 3.57 15.57 2 17.5 2C19.43 2 21 3.57 21 5.5C21 7.43 19.43 9 17.5 9C16.59 9 15.767 8.642 15.142 8.07L8.991 11.585C8.986 11.851 8.946 12.106 8.883 12.353L15.143 15.93C15.767 15.358 16.59 15 17.5 15C19.43 15 21 16.57 21 18.5C21 20.43 19.43 22 17.5 22C15.57 22 14 20.43 14 18.5C14 18.204 14.048 17.922 14.117 17.647L7.857 14.07Z" fill="black"/>
</svg>
