<svg width="24" height="24" viewBox="0 0 24 24" fill="none" xmlns="http://www.w3.org/2000/svg">
<path d="M6.19406 14.644C6.19406 15.804 5.25106 16.751 4.09106 16.751C2.93306 16.751 1.98706 15.804 1.98706 14.644C1.98706 13.484 2.93306 12.538 4.09106 12.538H6.19406V14.644ZM7.25506 14.644C7.25506 13.484 8.19906 12.538 9.35906 12.538C10.5151 12.538 11.4621 13.484 11.4621 14.644V19.918C11.4621 21.078 10.5161 22.024 9.35906 22.024C8.19906 22.024 7.25506 21.078 7.25506 19.918V14.644ZM9.35906 6.18901C8.19906 6.18901 7.25506 5.24101 7.25506 4.08201C7.25506 2.92301 8.19906 1.97601 9.35906 1.97601C10.5151 1.97601 11.4621 2.92201 11.4621 4.08201V6.18901H9.35906ZM9.35906 7.24901C10.5151 7.24901 11.4621 8.19601 11.4621 9.35601C11.4621 10.516 10.5161 11.462 9.35906 11.462H4.09206C2.93406 11.462 1.98806 10.516 1.98806 9.35601C1.98806 8.19601 2.93406 7.24901 4.09206 7.24901H9.35906ZM17.8061 9.35601C17.8061 8.19601 18.7491 7.24901 19.9091 7.24901C21.0671 7.24901 22.0131 8.19601 22.0131 9.35601C22.0131 10.516 21.0671 11.462 19.9091 11.462H17.8061V9.35601ZM16.7451 9.35601C16.7451 10.516 15.8011 11.462 14.6411 11.462C13.4851 11.462 12.5381 10.516 12.5381 9.35601V4.08201C12.5381 2.92201 13.4841 1.97601 14.6411 1.97601C15.8011 1.97601 16.7451 2.92201 16.7451 4.08201V9.35601ZM14.6411 17.811C15.8011 17.811 16.7451 18.759 16.7451 19.918C16.7451 21.077 15.8011 22.024 14.6411 22.024C13.4851 22.024 12.5381 21.078 12.5381 19.918V17.811H14.6411ZM14.6411 16.751C13.4851 16.751 12.5381 15.804 12.5381 14.644C12.5381 13.484 13.4841 12.538 14.6411 12.538H19.9091C21.0671 12.538 22.0131 13.484 22.0131 14.644C22.0131 15.804 21.0671 16.751 19.9091 16.751H14.6411Z" fill="black"/>
</svg>
