<svg width="24" height="24" viewBox="0 0 24 24" fill="none" xmlns="http://www.w3.org/2000/svg">
<path d="M21.5931 7.20301C21.3631 6.34501 20.6881 5.66801 19.8311 5.43701C18.2651 5.00701 12.0001 5.00001 12.0001 5.00001C12.0001 5.00001 5.73609 4.99301 4.16909 5.40401C3.32909 5.63301 2.63509 6.32501 2.40309 7.18201C1.99009 8.74801 1.98609 11.996 1.98609 11.996C1.98609 11.996 1.98209 15.26 2.39209 16.81C2.62209 17.667 3.29709 18.344 4.15509 18.575C5.73709 19.005 11.9851 19.012 11.9851 19.012C11.9851 19.012 18.2501 19.019 19.8161 18.609C20.6721 18.379 21.3501 17.703 21.5831 16.846C21.9971 15.281 22.0001 12.034 22.0001 12.034C22.0001 12.034 22.0201 8.76901 21.5931 7.20301ZM9.99609 15.005L10.0011 9.00501L15.2081 12.01L9.99609 15.005Z" fill="black"/>
</svg>
