<svg width="24" height="24" viewBox="0 0 24 24" fill="none" xmlns="http://www.w3.org/2000/svg">
<g id="Interface / Chart_Line">
<path id="Vector" d="M3 15.0002V16.8C3 17.9201 3 18.4798 3.21799 18.9076C3.40973 19.2839 3.71547 19.5905 4.0918 19.7822C4.5192 20 5.07899 20 6.19691 20H21.0002M3 15.0002V5M3 15.0002L6.8534 11.7891L6.85658 11.7865C7.55366 11.2056 7.90288 10.9146 8.28154 10.7964C8.72887 10.6567 9.21071 10.6788 9.64355 10.8584C10.0105 11.0106 10.3323 11.3324 10.9758 11.9759L10.9822 11.9823C11.6357 12.6358 11.9633 12.9635 12.3362 13.1153C12.7774 13.2951 13.2685 13.3106 13.7207 13.1606C14.1041 13.0334 14.4542 12.7275 15.1543 12.115L21 7" stroke="currentColor" stroke-width="2" stroke-linecap="round" stroke-linejoin="round"/>
</g>
</svg>
