<svg width="24" height="24" viewBox="0 0 24 24" fill="none" xmlns="http://www.w3.org/2000/svg">
<g id="Interface / Lock_Open">
<path id="Vector" d="M9 9H7.2002C6.08009 9 5.51962 9 5.0918 9.21799C4.71547 9.40973 4.40973 9.71547 4.21799 10.0918C4 10.5196 4 11.0801 4 12.2002V17.8002C4 18.9203 4 19.4801 4.21799 19.9079C4.40973 20.2842 4.71547 20.5905 5.0918 20.7822C5.51921 21 6.07901 21 7.19694 21L16.8031 21C17.921 21 18.48 21 18.9074 20.7822C19.2837 20.5905 19.5905 20.2842 19.7822 19.9079C20 19.4805 20 18.9215 20 17.8036V12.1969C20 11.079 20 10.5192 19.7822 10.0918C19.5905 9.71547 19.2837 9.40973 18.9074 9.21799C18.4796 9 17.9203 9 16.8002 9H9ZM9 9V6.12012C9 4.39699 10.3 3 11.9037 3C12.7277 3 13.4708 3.36879 13.9993 3.96113" stroke="currentColor" stroke-width="2" stroke-linecap="round" stroke-linejoin="round"/>
</g>
</svg>
