<svg width="24" height="24" viewBox="0 0 24 24" fill="none" xmlns="http://www.w3.org/2000/svg">
<g id="Interface / Lock">
<path id="Vector" d="M9.23047 9H7.2002C6.08009 9 5.51962 9 5.0918 9.21799C4.71547 9.40973 4.40973 9.71547 4.21799 10.0918C4 10.5196 4 11.0801 4 12.2002V17.8002C4 18.9203 4 19.4801 4.21799 19.9079C4.40973 20.2842 4.71547 20.5905 5.0918 20.7822C5.5192 21 6.07902 21 7.19694 21H16.8031C17.921 21 18.48 21 18.9074 20.7822C19.2837 20.5905 19.5905 20.2842 19.7822 19.9079C20 19.4805 20 18.9215 20 17.8036V12.1969C20 11.079 20 10.5192 19.7822 10.0918C19.5905 9.71547 19.2837 9.40973 18.9074 9.21799C18.4796 9 17.9203 9 16.8002 9H14.7689M9.23047 9H14.7689M9.23047 9C9.10302 9 9 8.89668 9 8.76923V6C9 4.34315 10.3431 3 12 3C13.6569 3 15 4.34315 15 6V8.76923C15 8.89668 14.8964 9 14.7689 9" stroke="currentColor" stroke-width="2" stroke-linecap="round" stroke-linejoin="round"/>
</g>
</svg>
