<svg width="24" height="24" viewBox="0 0 24 24" fill="none" xmlns="http://www.w3.org/2000/svg">
<g id="Interface / Main_Component">
<g id="Vector">
<path d="M11.2348 2.37392C10.8672 2.52616 10.5377 2.85565 9.8788 3.51457C9.22003 4.17335 8.8904 4.50298 8.73818 4.87047C8.53519 5.36053 8.53519 5.91121 8.73818 6.40126C8.89042 6.76881 9.21989 7.09828 9.87883 7.75722C10.5374 8.41578 10.8673 8.74568 11.2347 8.89788C11.7248 9.10086 12.2755 9.10086 12.7655 8.89787C13.1331 8.74563 13.4625 8.41616 14.1215 7.75722C14.7804 7.09828 15.1089 6.76881 15.2612 6.40126C15.4641 5.91121 15.4641 5.36053 15.2612 4.87047C15.1089 4.50293 14.7804 4.17351 14.1215 3.51457C13.4625 2.85564 13.1331 2.52616 12.7655 2.37392C12.2755 2.17093 11.7248 2.17093 11.2348 2.37392Z" stroke="currentColor" stroke-width="2" stroke-linecap="round" stroke-linejoin="round"/>
<path d="M4.8705 8.73769C4.50296 8.88993 4.17348 9.21941 3.51455 9.87834C2.85579 10.5371 2.52614 10.8668 2.37392 11.2342C2.17093 11.7243 2.17093 12.275 2.37392 12.765C2.52616 13.1326 2.85564 13.4621 3.51457 14.121C4.17314 14.7796 4.50303 15.1094 4.87047 15.2616C5.36053 15.4646 5.91121 15.4646 6.40126 15.2616C6.76881 15.1094 7.09828 14.7799 7.75722 14.121C8.41616 13.4621 8.74466 13.1326 8.8969 12.765C9.09989 12.275 9.09989 11.7243 8.8969 11.2342C8.74466 10.8667 8.41616 10.5373 7.75722 9.87834C7.09828 9.2194 6.76881 8.88993 6.40126 8.73769C5.91121 8.5347 5.36056 8.5347 4.8705 8.73769Z" stroke="currentColor" stroke-width="2" stroke-linecap="round" stroke-linejoin="round"/>
<path d="M16.2431 9.87834C15.5843 10.5371 15.2547 10.8667 15.1024 11.2342C14.8994 11.7243 14.8994 12.275 15.1024 12.765C15.2547 13.1326 15.5842 13.462 16.2431 14.121C16.9016 14.7795 17.2316 15.1094 17.599 15.2616C18.089 15.4646 18.6397 15.4646 19.1298 15.2616C19.4973 15.1094 19.8268 14.7799 20.4857 14.121C21.1447 13.4621 21.4732 13.1326 21.6254 12.765C21.8284 12.275 21.8284 11.7243 21.6254 11.2342C21.4732 10.8667 21.1447 10.5373 20.4857 9.87834C19.8268 9.21941 19.4973 8.88993 19.1298 8.73769C18.6397 8.5347 18.0891 8.5347 17.599 8.73769C17.2315 8.88993 16.902 9.21941 16.2431 9.87834Z" stroke="currentColor" stroke-width="2" stroke-linecap="round" stroke-linejoin="round"/>
<path d="M11.2348 15.1019C10.8672 15.2542 10.5377 15.5837 9.8788 16.2426C9.22004 16.9014 8.8904 17.231 8.73818 17.5985C8.53519 18.0886 8.53519 18.6392 8.73818 19.1293C8.89042 19.4968 9.21989 19.8263 9.87883 20.4852C10.5374 21.1438 10.8673 21.4737 11.2347 21.6259C11.7248 21.8289 12.2755 21.8289 12.7655 21.6259C13.1331 21.4737 13.4625 21.1442 14.1215 20.4852C14.7804 19.8263 15.1089 19.4968 15.2612 19.1293C15.4641 18.6392 15.4641 18.0886 15.2612 17.5985C15.1089 17.231 14.7804 16.9015 14.1215 16.2426C13.4625 15.5837 13.1331 15.2542 12.7655 15.1019C12.2755 14.899 11.7248 14.899 11.2348 15.1019Z" stroke="currentColor" stroke-width="2" stroke-linecap="round" stroke-linejoin="round"/>
</g>
</g>
</svg>
