<svg width="24" height="24" viewBox="0 0 24 24" fill="none" xmlns="http://www.w3.org/2000/svg">
<g id="Interface / Shopping_Bag_01">
<path id="Vector" d="M9 8C9 9.65685 10.3431 11 12 11C13.6569 11 15 9.65685 15 8M3 16.8002V7.2002C3 6.08009 3 5.51962 3.21799 5.0918C3.40973 4.71547 3.71547 4.40973 4.0918 4.21799C4.51962 4 5.08009 4 6.2002 4H17.8002C18.9203 4 19.4796 4 19.9074 4.21799C20.2837 4.40973 20.5905 4.71547 20.7822 5.0918C21 5.5192 21 6.07899 21 7.19691V16.8036C21 17.9215 21 18.4805 20.7822 18.9079C20.5905 19.2842 20.2837 19.5905 19.9074 19.7822C19.48 20 18.921 20 17.8031 20H6.19691C5.07899 20 4.5192 20 4.0918 19.7822C3.71547 19.5905 3.40973 19.2842 3.21799 18.9079C3 18.4801 3 17.9203 3 16.8002Z" stroke="currentColor" stroke-width="2" stroke-linecap="round" stroke-linejoin="round"/>
</g>
</svg>
