<svg width="24" height="24" viewBox="0 0 24 24" fill="none" xmlns="http://www.w3.org/2000/svg">
<g id="Interface / Tag">
<g id="Vector">
<path d="M4.74791 7.64502L4.41669 11.2885C4.36763 11.8281 4.34289 12.1001 4.3878 12.3584C4.42792 12.5892 4.50806 12.8112 4.62496 13.0142C4.7563 13.2422 4.95043 13.4363 5.33647 13.8224L10.512 18.9979C11.299 19.7849 11.6927 20.1786 12.148 20.3265C12.5496 20.4571 12.983 20.4573 13.3847 20.3268C13.8414 20.1785 14.2382 19.7821 15.0302 18.9901L18.99 15.0303C19.7821 14.2382 20.1774 13.8424 20.3258 13.3857C20.4563 12.9841 20.4555 12.5511 20.325 12.1495C20.1766 11.6928 19.7819 11.297 18.9898 10.505L13.8271 5.34229C13.4375 4.95272 13.2427 4.75792 13.0136 4.62598C12.8107 4.50908 12.5886 4.4286 12.3579 4.38848C12.0974 4.3432 11.823 4.36809 11.2743 4.41797L7.64449 4.74796C6.69973 4.83384 6.22705 4.87698 5.85738 5.08255C5.53145 5.26379 5.26277 5.53248 5.08152 5.8584C4.87698 6.22623 4.83432 6.69555 4.74929 7.63092L4.74791 7.64502Z" stroke="currentColor" stroke-width="2" stroke-linecap="round" stroke-linejoin="round"/>
<path d="M9.71259 9.71297C10.1031 9.32244 10.1031 8.68928 9.71259 8.29876C9.32206 7.90823 8.68845 7.90823 8.29792 8.29876C7.9074 8.68928 7.90702 9.32229 8.29755 9.71282C8.68807 10.1033 9.32206 10.1035 9.71259 9.71297Z" stroke="currentColor" stroke-width="2" stroke-linecap="round" stroke-linejoin="round"/>
</g>
</g>
</svg>
