<svg width="24" height="24" viewBox="0 0 24 24" fill="none" xmlns="http://www.w3.org/2000/svg">
<path d="M17.2401 19.399V14.595H18.8401V21H4.3811V14.595H5.9791V19.399H17.2401ZM7.5821 17.8H15.6371V16.196H7.5821V17.8ZM7.7771 14.16L15.6361 15.801L15.9761 14.249L8.1151 12.607L7.7771 14.16ZM8.7951 10.366L16.0761 13.764L16.7541 12.301L9.4731 8.90202L8.7951 10.356V10.366ZM10.8321 6.77702L16.9981 11.919L18.0161 10.703L11.8541 5.56302L10.8381 6.77602L10.8321 6.77702ZM14.8141 2.99902L13.5031 3.96802L18.3061 10.422L19.6191 9.45102L14.8121 2.99902H14.8141Z" fill="#2E3A59"/>
</svg>
