<svg width="24" height="24" viewBox="0 0 24 24" fill="none" xmlns="http://www.w3.org/2000/svg">
<g id="Media / Chromecast">
<path id="Vector" d="M3 8.2502V8.2002C3 7.08009 3 6.51962 3.21799 6.0918C3.40973 5.71547 3.71547 5.40973 4.0918 5.21799C4.51962 5 5.08009 5 6.2002 5H17.8002C18.9203 5 19.4796 5 19.9074 5.21799C20.2837 5.40973 20.5905 5.71547 20.7822 6.0918C21 6.5192 21 7.07899 21 8.19691V15.8031C21 16.921 21 17.48 20.7822 17.9074C20.5905 18.2837 20.2839 18.5905 19.9076 18.7822C19.4802 19 18.921 19 17.8031 19H14M5 19C5 17.8954 4.10457 17 3 17M8 19C8 16.2386 5.76142 14 3 14M11 19C11 14.5817 7.41828 11 3 11" stroke="currentColor" stroke-width="2" stroke-linecap="round" stroke-linejoin="round"/>
</g>
</svg>
