<svg width="24" height="24" viewBox="0 0 24 24" fill="none" xmlns="http://www.w3.org/2000/svg">
<g id="Media / Skip_Forward">
<path id="Vector" d="M17 5V19M6 10.5713V13.4287C6 15.2557 6 16.1693 6.38355 16.6958C6.71806 17.1549 7.23174 17.4496 7.79688 17.5073C8.44484 17.5733 9.23434 17.113 10.8125 16.1924L13.2617 14.7637L13.2701 14.7588C14.8216 13.8537 15.5979 13.4009 15.8595 12.8105C16.0881 12.2946 16.0881 11.7062 15.8595 11.1902C15.5974 10.5988 14.8188 10.1446 13.2617 9.2363L10.8125 7.80762C9.23434 6.88702 8.44484 6.42651 7.79688 6.49256C7.23174 6.55017 6.71806 6.84556 6.38355 7.30469C6 7.83111 6 8.74424 6 10.5713Z" stroke="currentColor" stroke-width="2" stroke-linecap="round" stroke-linejoin="round"/>
</g>
</svg>
