<svg width="24" height="24" viewBox="0 0 24 24" fill="none" xmlns="http://www.w3.org/2000/svg">
<g id="Media / Volume_Off_02">
<path id="Vector" d="M10 9.18725H8.8125C8.0563 9.18725 7.6782 9.18725 7.37264 9.28819C6.77131 9.48684 6.2996 9.95855 6.10094 10.5599C6 10.8654 6 11.2435 6 11.9997C6 12.7559 6 13.134 6.10094 13.4396C6.2996 14.0409 6.77131 14.5127 7.37264 14.7113C7.6782 14.8122 8.0563 14.8122 8.8125 14.8122H10.2358C10.5165 14.8122 10.6569 14.8122 10.7866 14.8478C10.9015 14.8792 11.0098 14.931 11.1065 15.0006C11.2157 15.0791 11.3039 15.1883 11.4803 15.4066L13.1555 17.4797C14.0288 18.5604 14.4655 19.1008 14.848 19.1596C15.1792 19.2105 15.5138 19.0922 15.7394 18.8444C16 18.5583 16 17.8635 16 16.4741V14.9997M16 10.4997V6.97735C16 6.04105 16 5.57291 15.8776 5.3488C15.6329 4.90109 15.0905 4.70931 14.6188 4.90379C14.3827 5.00113 14.0885 5.36526 13.5 6.0935L12.875 6.86693M6 4.99975L20 18.9997" stroke="currentColor" stroke-width="2" stroke-linecap="round" stroke-linejoin="round"/>
</g>
</svg>
