<svg width="24" height="24" viewBox="0 0 24 24" fill="none" xmlns="http://www.w3.org/2000/svg">
<g id="Media / Volume_Off">
<path id="Vector" d="M16.1716 9.17117L21.8284 14.828M16.1716 14.828L21.8284 9.17117M7.4803 15.4065L9.15553 17.4796C10.0288 18.5603 10.4655 19.1006 10.848 19.1594C11.1792 19.2104 11.5138 19.092 11.7394 18.8443C12 18.5581 12 17.8634 12 16.4739V7.52526C12 6.13581 12 5.44109 11.7394 5.1549C11.5138 4.90715 11.1792 4.78884 10.848 4.83975C10.4655 4.89858 10.0288 5.43893 9.15553 6.51963L7.4803 8.59273C7.30388 8.81105 7.21567 8.92021 7.10652 8.99876C7.00982 9.06835 6.90147 9.1201 6.78656 9.15158C6.65687 9.1871 6.51652 9.1871 6.23583 9.1871H4.8125C4.0563 9.1871 3.6782 9.1871 3.37264 9.28804C2.77131 9.4867 2.2996 9.95841 2.10094 10.5597C2 10.8653 2 11.2434 2 11.9996C2 12.7558 2 13.1339 2.10094 13.4395C2.2996 14.0408 2.77131 14.5125 3.37264 14.7112C3.6782 14.8121 4.0563 14.8121 4.8125 14.8121H6.23583C6.51652 14.8121 6.65687 14.8121 6.78656 14.8476C6.90147 14.8791 7.00982 14.9308 7.10652 15.0004C7.21567 15.079 7.30388 15.1881 7.4803 15.4065Z" stroke="currentColor" stroke-width="2" stroke-linecap="round" stroke-linejoin="round"/>
</g>
</svg>
