<svg width="24" height="24" viewBox="0 0 24 24" fill="none" xmlns="http://www.w3.org/2000/svg">
<path d="M11.999 22C7.05569 21.9348 3.06417 17.9433 2.99902 13C3.06417 8.05668 7.05569 4.06516 11.999 4C16.9423 4.06516 20.9339 8.05668 20.999 13C20.9339 17.9433 16.9423 21.9348 11.999 22ZM11.999 6C8.15418 6.05062 5.04963 9.15517 4.99902 13C5.04963 16.8448 8.15418 19.9494 11.999 20C15.8438 19.9494 18.9484 16.8448 18.999 13C18.9484 9.15517 15.8438 6.05062 11.999 6ZM16.999 14H10.999V8H12.999V12H16.999V14ZM20.291 6.708L17.282 3.708L18.691 2.291L21.701 5.291L20.291 6.707V6.708ZM3.70602 6.708L2.29102 5.291L5.28202 2.291L6.69702 3.708L3.70802 6.708H3.70602Z" fill="black"/>
</svg>
