<svg width="24" height="24" viewBox="0 0 24 24" fill="none" xmlns="http://www.w3.org/2000/svg">
<path d="M11.9999 4C7.12093 4 2.99993 8.121 2.99993 13C2.99993 17.879 7.12093 22 11.9999 22C16.8789 22 20.9999 17.879 20.9999 13C20.9999 8.121 16.8789 4 11.9999 4ZM11.9999 20C8.20593 20 4.99993 16.794 4.99993 13C4.99993 9.206 8.20593 6 11.9999 6C15.7939 6 18.9999 9.206 18.9999 13C18.9999 16.794 15.7939 20 11.9999 20Z" fill="black"/>
<path d="M12.9999 8H10.9999V12H6.99993V14H10.9999V18H12.9999V14H16.9999V12H12.9999V8Z" fill="black"/>
<path d="M20.2923 6.70771L17.2822 3.70739L18.6941 2.29088L21.7042 5.2912L20.2923 6.70771Z" fill="black"/>
<path d="M5.28235 2.29413L6.69856 3.70634L3.7082 6.70517L2.29199 5.29295L5.28235 2.29413Z" fill="black"/>
</svg>
