<svg width="24" height="24" viewBox="0 0 24 24" fill="none" xmlns="http://www.w3.org/2000/svg">
<path d="M10.7501 22H4.91705C3.76655 21.9989 2.83415 21.0665 2.83305 19.916V10.216C2.01626 9.63638 1.76196 8.53753 2.24105 7.658C3.14105 6.05 4.05905 4.465 4.96205 2.946C5.32422 2.353 5.97123 1.9938 6.66605 1.99992C7.08957 2.00423 7.50154 2.13864 7.84605 2.385L7.87005 2.4C8.28205 2.64 12.2621 5.009 15.4611 6.912L18.3001 8.6L18.4301 8.677C20.6481 9.988 21.1471 10.286 21.1751 10.305C21.9916 10.8831 22.2427 11.9828 21.7581 12.858C20.8751 14.435 19.9581 16.02 19.0371 17.57C18.6796 18.1566 18.044 18.5164 17.3571 18.521C17.2225 18.5211 17.0883 18.506 16.9571 18.476C16.8411 18.545 16.2011 18.956 15.3901 19.476C13.9471 20.401 11.9751 21.666 11.7471 21.783C11.4394 21.9413 11.0956 22.0162 10.7501 22ZM4.50005 13.03V19.916C4.50005 20.1463 4.68675 20.333 4.91705 20.333H8.74005C7.28705 17.88 5.86105 15.422 4.50005 13.03ZM5.85805 12.03C6.25805 12.717 10.5741 20.162 10.6101 20.212C10.6669 20.2859 10.7549 20.3291 10.8481 20.329C10.8972 20.329 10.9456 20.317 10.9891 20.294C11.1241 20.218 15.1831 17.61 15.2231 17.584C14.9091 17.399 12.6371 16.045 10.2311 14.612L5.83805 12L5.84505 12.011L5.85505 12.028V12.034L5.85805 12.03ZM6.33205 3.9C5.52405 5.2 3.71605 8.428 3.69205 8.487C3.63276 8.62865 3.68536 8.79238 3.81605 8.873C3.94905 8.952 17.1701 16.829 17.2961 16.849C17.312 16.8502 17.3281 16.8502 17.3441 16.849C17.4527 16.8494 17.5536 16.7929 17.6101 16.7C18.4241 15.333 20.2991 12.043 20.3041 12.033C20.362 11.8908 20.3092 11.7275 20.1791 11.646C20.0521 11.57 6.85605 3.728 6.77105 3.691C6.73242 3.67474 6.69097 3.66624 6.64905 3.666C6.54374 3.66657 6.44574 3.7199 6.38805 3.808L6.38105 3.82L6.37305 3.832L6.36105 3.852V3.857L6.34605 3.881L6.33105 3.9H6.33205ZM7.68505 9.39C6.7656 9.38945 6.02042 8.64412 6.02006 7.72467C6.01969 6.80521 6.76427 6.05929 7.68372 6.058C8.60318 6.05672 9.34984 6.80055 9.35205 7.72C9.35095 8.6402 8.60525 9.3859 7.68505 9.387V9.39Z" fill="black"/>
</svg>
