<svg width="24" height="24" viewBox="0 0 24 24" fill="none" xmlns="http://www.w3.org/2000/svg">
<path d="M12 22.0001C6.47967 21.9939 2.00606 17.5203 2 12C2.39375 12.1112 2.80085 12.1681 3.21 12.169C4.56351 12.1789 5.83512 11.5218 6.61 10.412C7.30276 9.41158 7.44914 8.13094 7 7C7.28718 7.05122 7.57828 7.07732 7.87 7.078C9.16687 7.08767 10.3977 6.507 11.215 5.5C12.0147 4.52275 12.3274 3.2352 12.065 2C17.5878 2.01795 22.0504 6.50965 22.0326 12.0325C22.0146 17.5553 17.5228 22.0179 12 22.0001ZM12.763 18.568C12.9168 18.6341 13.0826 18.6682 13.25 18.668C13.7554 18.6675 14.2108 18.363 14.4044 17.8962C14.598 17.4294 14.4917 16.892 14.135 16.534C13.8999 16.2999 13.5818 16.1683 13.25 16.168C12.6566 16.1694 12.1459 16.5878 12.0279 17.1694C11.9098 17.751 12.217 18.3354 12.763 18.568ZM6.92 16.875C7.12038 16.9579 7.33516 17.0003 7.552 17C8.22855 16.9998 8.83791 16.5908 9.09427 15.9647C9.35063 15.3386 9.20315 14.6196 8.721 14.145C8.40933 13.8381 7.98944 13.666 7.552 13.666C6.63196 13.6671 5.88655 14.413 5.886 15.333C5.88617 16.0018 6.28508 16.606 6.9 16.869H6.905H6.916L6.92 16.875ZM16.351 14.368C17.0232 14.6503 17.8008 14.4627 18.2704 13.9051C18.74 13.3475 18.7925 12.5493 18.4 11.935C18.2771 11.7436 18.1165 11.5793 17.928 11.452C17.4103 11.1024 16.7407 11.0716 16.1931 11.3721C15.6455 11.6726 15.3119 12.254 15.3287 12.8784C15.3455 13.5028 15.71 14.0654 16.273 14.336H16.261L16.291 14.349L16.311 14.357H16.305C16.3193 14.3616 16.3333 14.3669 16.347 14.373L16.351 14.368ZM12 10.333C11.6012 10.3323 11.2577 10.6142 11.1804 11.0055C11.1032 11.3968 11.3138 11.788 11.6829 11.9389C12.0521 12.0899 12.4765 11.9584 12.6956 11.6251C12.9146 11.2918 12.867 10.85 12.582 10.571C12.5077 10.4978 12.4201 10.4394 12.324 10.399L12.306 10.391L12.279 10.381C12.1895 10.349 12.0951 10.3328 12 10.333ZM15.75 6.167C15.1101 6.16541 14.5731 6.64875 14.5075 7.28525C14.4419 7.92175 14.8691 8.50447 15.4958 8.63343C16.1225 8.76239 16.7451 8.39566 16.9361 7.78497C17.1271 7.17428 16.8245 6.51817 16.236 6.267H16.226C16.0755 6.2027 15.9137 6.16871 15.75 6.167ZM4.5 9.5C4.03995 9.5 3.667 9.12705 3.667 8.667C3.667 8.20695 4.03995 7.834 4.5 7.834C4.96005 7.834 5.333 8.20695 5.333 8.667C5.33245 9.12682 4.95982 9.49945 4.5 9.5ZM3.25 7C2.55964 7 2 6.44036 2 5.75C2 5.05964 2.55964 4.5 3.25 4.5C3.94036 4.5 4.5 5.05964 4.5 5.75C4.4989 6.4399 3.9399 6.9989 3.25 7ZM8.25 5.333C7.55964 5.333 7 4.77336 7 4.083C7 3.39264 7.55964 2.833 8.25 2.833C8.94036 2.833 9.5 3.39264 9.5 4.083C9.5 4.77352 8.94052 5.33345 8.25 5.334V5.333ZM5.334 3.667C4.87408 3.667 4.50118 3.29426 4.501 2.83433C4.50082 2.37441 4.87341 2.00137 5.33333 2.001C5.79326 2.00063 6.16645 2.37308 6.167 2.833C6.167 3.29322 5.79422 3.66645 5.334 3.667Z" fill="black"/>
</svg>
