<svg width="24" height="24" viewBox="0 0 24 24" fill="none" xmlns="http://www.w3.org/2000/svg">
<path d="M12 2C6.486 2 2 6.486 2 12C2 17.514 6.486 22 12 22C17.514 22 22 17.514 22 12C22 6.486 17.514 2 12 2ZM12 20C7.589 20 4 16.411 4 12C4 7.589 7.589 4 12 4C16.411 4 20 7.589 20 12C20 16.411 16.411 20 12 20Z" fill="black"/>
<path d="M8.5 12C9.32843 12 10 11.3284 10 10.5C10 9.67157 9.32843 9 8.5 9C7.67157 9 7 9.67157 7 10.5C7 11.3284 7.67157 12 8.5 12Z" fill="black"/>
<path d="M15.493 11.986C16.3176 11.986 16.986 11.3176 16.986 10.493C16.986 9.66844 16.3176 9 15.493 9C14.6684 9 14 9.66844 14 10.493C14 11.3176 14.6684 11.986 15.493 11.986Z" fill="black"/>
<path d="M12 18C16 18 17 14 17 14H7C7 14 8 18 12 18Z" fill="black"/>
</svg>
