<svg width="24" height="24" viewBox="0 0 24 24" fill="none" xmlns="http://www.w3.org/2000/svg">
<path d="M12 22C6.47967 21.9939 2.00606 17.5203 2 12V11.8C2.10993 6.30452 6.63459 1.92794 12.1307 2.00087C17.6268 2.07379 22.0337 6.56887 21.9978 12.0653C21.9619 17.5618 17.4966 21.9989 12 22ZM11.984 20H12C16.4167 19.9956 19.9942 16.4127 19.992 11.996C19.9898 7.57928 16.4087 3.99999 11.992 3.99999C7.57528 3.99999 3.99421 7.57928 3.992 11.996C3.98979 16.4127 7.56729 19.9956 11.984 20ZM13 18H11V16H13V18ZM13 15H11C10.9684 13.6977 11.6461 12.4808 12.77 11.822C13.43 11.316 14 10.88 14 9.99999C14 8.89542 13.1046 7.99999 12 7.99999C10.8954 7.99999 10 8.89542 10 9.99999H8V9.90999C8.01608 8.48093 8.79333 7.16899 10.039 6.46839C11.2846 5.76778 12.8094 5.78493 14.039 6.51339C15.2685 7.24184 16.0161 8.57093 16 9.99999C15.9284 11.079 15.3497 12.0602 14.44 12.645C13.6177 13.1612 13.0847 14.0328 13 15Z" fill="black"/>
</svg>
