<svg width="24" height="24" viewBox="0 0 24 24" fill="none" xmlns="http://www.w3.org/2000/svg">
<path d="M12.707 15.5355L14.1212 16.9497L11.9999 19.0711C10.0473 21.0237 6.88147 21.0237 4.92884 19.0711C2.97622 17.1184 2.97622 13.9526 4.92884 12L7.05016 9.87867L8.46438 11.2929L6.34306 13.4142C5.17149 14.5858 5.17149 16.4853 6.34306 17.6568C7.51463 18.8284 9.41413 18.8284 10.5857 17.6568L12.707 15.5355Z" fill="black"/>
<path d="M11.2928 8.46445L9.87859 7.05024L11.9999 4.92892C13.9525 2.9763 17.1184 2.9763 19.071 4.92892C21.0236 6.88154 21.0236 10.0474 19.071 12L16.9497 14.1213L15.5354 12.7071L17.6568 10.5858C18.8283 9.4142 18.8283 7.51471 17.6568 6.34313C16.4852 5.17156 14.5857 5.17156 13.4141 6.34313L11.2928 8.46445Z" fill="black"/>
<path d="M14.8283 7.75735L7.75727 14.8284L9.17149 16.2426L16.2426 9.17156L14.8283 7.75735Z" fill="black"/>
</svg>
