<svg width="24" height="24" viewBox="0 0 24 24" fill="none" xmlns="http://www.w3.org/2000/svg">
<path d="M11.9998 22.0001C7.95337 22.0024 4.30431 19.5659 2.75548 15.8276C1.20665 12.0893 2.06336 7.78609 4.92581 4.92601C7.45311 2.39871 11.1367 1.41169 14.5891 2.33675C18.0414 3.2618 20.738 5.9584 21.6631 9.41075C22.5881 12.8631 21.6011 16.5467 19.0738 19.074C17.2013 20.955 14.654 22.0087 11.9998 22.0001ZM3.99981 12.172C4.04713 16.5733 7.64092 20.1096 12.0424 20.086C16.4438 20.0622 19.9994 16.4875 19.9994 12.086C19.9994 7.68452 16.4438 4.10978 12.0424 4.08601C7.64092 4.06247 4.04713 7.59877 3.99981 12V12.172ZM9.40881 16L7.99981 14.59L10.5898 12L7.99981 9.41001L9.40981 8.00001L11.9998 10.59L14.5898 8.00001L15.9998 9.41001L13.4098 12L15.9998 14.59L14.5908 16L11.9998 13.41L9.40981 16H9.40881Z" fill="black"/>
</svg>
