<svg width="24" height="24" viewBox="0 0 24 24" fill="none" xmlns="http://www.w3.org/2000/svg">
<path d="M17.7071 12.293C17.3161 11.902 16.6841 11.902 16.2931 12.293L14.6991 13.887C13.9601 13.667 12.5811 13.167 11.7071 12.293C10.8331 11.419 10.3331 10.04 10.1131 9.30101L11.7071 7.70701C12.0981 7.31601 12.0981 6.68401 11.7071 6.29301L7.70709 2.29301C7.31609 1.90201 6.68409 1.90201 6.29309 2.29301L3.58109 5.00501C3.20109 5.38501 2.98709 5.90701 2.99509 6.44001C3.01809 7.86401 3.39509 12.81 7.29309 16.708C11.1911 20.606 16.1371 20.982 17.5621 21.006C17.5671 21.006 17.5851 21.006 17.5901 21.006C18.1181 21.006 18.6171 20.798 18.9951 20.42L21.7071 17.708C22.0981 17.317 22.0981 16.685 21.7071 16.294L17.7071 12.293ZM17.5801 19.005C16.3321 18.984 12.0621 18.649 8.70709 15.293C5.34109 11.927 5.01509 7.64201 4.99509 6.41901L7.00009 4.41401L9.58609 7.00001L8.29309 8.29301C8.05409 8.53101 7.95209 8.87501 8.02109 9.20501C8.04509 9.32001 8.63209 12.047 10.2921 13.707C11.9521 15.367 14.6791 15.954 14.7941 15.978C15.1271 16.049 15.4681 15.946 15.7061 15.707L17.0001 14.414L19.5861 17L17.5801 19.005Z" fill="black"/>
</svg>
