<svg width="24" height="24" viewBox="0 0 24 24" fill="none" xmlns="http://www.w3.org/2000/svg">
<path d="M17.5949 21.006H17.5669C13.7252 20.9114 10.0591 19.3775 7.29486 16.708C4.62437 13.9462 3.08955 10.2816 2.99474 6.441C2.98908 5.903 3.20032 5.38536 3.58085 5.005L6.29486 2.293C6.68535 1.90262 7.31836 1.90262 7.70886 2.293L11.7089 6.293C12.0992 6.6835 12.0992 7.3165 11.7089 7.707L10.1129 9.3C10.4089 10.4059 10.9541 11.4294 11.7069 12.292C12.5679 13.045 13.5901 13.5906 14.6949 13.887L16.2949 12.293C16.6854 11.9026 17.3184 11.9026 17.7089 12.293L21.7089 16.293C22.0992 16.6835 22.0992 17.3165 21.7089 17.707L18.9949 20.42C18.6248 20.7939 18.1209 21.0048 17.5949 21.006ZM6.99986 4.415H6.99485L4.99486 6.419C5.0764 9.73766 6.40118 12.9047 8.70686 15.293C11.0953 17.5979 14.2617 18.9225 17.5799 19.005L19.5869 17L16.9949 14.415L15.7019 15.707C15.5169 15.894 15.2649 15.9995 15.0019 16C14.9316 16 14.8616 15.9927 14.7929 15.978C13.1265 15.6094 11.5792 14.8285 10.2929 13.707C9.17131 12.4206 8.39047 10.8734 8.02185 9.207C7.95232 8.87577 8.05504 8.53184 8.29486 8.293L9.58685 7L6.99986 4.415Z" fill="black"/>
</svg>
