<svg width="24" height="24" viewBox="0 0 24 24" fill="none" xmlns="http://www.w3.org/2000/svg">
<path fill-rule="evenodd" clip-rule="evenodd" d="M3.06815 11.98C3.02337 12.5621 3.2352 13.1347 3.64805 13.5476L11.4829 21.3824C12.2639 22.1635 13.5303 22.1635 14.3113 21.3824L21.3824 14.3113C22.1634 13.5303 22.1634 12.264 21.3824 11.4829L13.5475 3.64808C13.1347 3.23524 12.5621 3.02341 11.9799 3.06819L5.41395 3.57326C4.43039 3.64892 3.64889 4.43042 3.57323 5.41398L3.06815 11.98ZM10.0687 10.0687C10.8497 9.28765 10.8497 8.02132 10.0687 7.24028C9.28762 6.45923 8.02129 6.45923 7.24024 7.24028C6.4592 8.02132 6.4592 9.28765 7.24024 10.0687C8.02129 10.8498 9.28762 10.8498 10.0687 10.0687Z" fill="black"/>
</svg>
