<svg width="24" height="24" viewBox="0 0 24 24" fill="none" xmlns="http://www.w3.org/2000/svg">
<path d="M21.7071 20.2929L3.70711 2.29291L2.29289 3.70712L5.74467 7.1589C3.59084 7.7158 2 9.67212 2 12C2 14.7614 4.23858 17 7 17H10V15H7C5.34315 15 4 13.6569 4 12C4 10.3431 5.34315 9 7 9H7.58577L9.58577 11H7V13H11.5858L20.2929 21.7071L21.7071 20.2929Z" fill="black"/>
<path d="M18.7077 14.4669L20.1356 15.8948C21.2726 14.9783 22 13.5741 22 12C22 9.23858 19.7614 7 17 7H14V9H17C18.6569 9 20 10.3431 20 12C20 13.0224 19.4886 13.9253 18.7077 14.4669Z" fill="black"/>
</svg>
