<svg width="24" height="24" viewBox="0 0 24 24" fill="none" xmlns="http://www.w3.org/2000/svg">
<path d="M5.99997 22C4.31411 21.9996 2.80947 20.9422 2.23787 19.3562C1.66627 17.7702 2.15043 15.9961 3.44843 14.9203C4.74643 13.8445 6.5796 13.698 8.03197 14.554L14.554 8.03199C13.5337 6.29851 13.9613 4.07679 15.5521 2.84588C17.143 1.61498 19.4009 1.75882 20.8228 3.18164C22.2446 4.60446 22.3868 6.86249 21.1548 8.45248C19.9228 10.0425 17.7007 10.4685 15.968 9.44699L9.44697 15.968C10.1764 17.2049 10.1869 18.7379 9.47448 19.9846C8.76202 21.2314 7.43593 22.0006 5.99997 22ZM5.99997 16C4.8954 16 3.99997 16.8954 3.99997 18C3.99997 19.1046 4.8954 20 5.99997 20C7.10454 20 7.99997 19.1046 7.99997 18C7.99997 16.8954 7.10454 16 5.99997 16ZM18 3.99999C16.9074 4.0011 16.0179 4.87884 16.0022 5.97133C15.9865 7.06382 16.8505 7.96669 17.9427 7.99911C19.0348 8.03153 19.9508 7.18149 20 6.08999V6.48999V5.99999C20 4.89542 19.1045 3.99999 18 3.99999Z" fill="black"/>
</svg>
