<svg width="24" height="24" viewBox="0 0 24 24" fill="none" xmlns="http://www.w3.org/2000/svg">
<path d="M6.00021 22C4.31435 21.9996 2.80971 20.9422 2.23812 19.3562C1.66652 17.7702 2.15068 15.9961 3.44868 14.9203C4.74667 13.8445 6.57984 13.698 8.03221 14.554L14.5542 8.03199C13.5339 6.29851 13.9615 4.07679 15.5524 2.84588C17.1433 1.61498 19.4012 1.75882 20.823 3.18164C22.2448 4.60446 22.3871 6.86249 21.155 8.45248C19.923 10.0425 17.701 10.4685 15.9682 9.44699L9.44721 15.968C10.1767 17.2049 10.1872 18.7379 9.47472 19.9846C8.76226 21.2314 7.43618 22.0006 6.00021 22ZM6.00021 16C4.89565 16 4.00021 16.8954 4.00021 18C4.00021 19.1046 4.89565 20 6.00021 20C7.10478 20 8.00021 19.1046 8.00021 18C8.00021 16.8954 7.10478 16 6.00021 16ZM18.0002 3.99999C16.9076 4.0011 16.0181 4.87884 16.0024 5.97133C15.9868 7.06382 16.8508 7.96669 17.9429 7.99911C19.035 8.03153 19.951 7.18149 20.0002 6.08999V6.48999V5.99999C20.0002 4.89542 19.1048 3.99999 18.0002 3.99999Z" fill="black"/>
</svg>
