<svg width="24" height="24" viewBox="0 0 24 24" fill="none" xmlns="http://www.w3.org/2000/svg">
<path d="M4 20V13H11L7.783 16.22C8.89296 17.355 10.4125 17.9964 12 18C14.5394 17.9962 16.8015 16.3942 17.648 14H17.666C17.7805 13.6746 17.8672 13.3401 17.925 13H19.937C19.4331 16.9999 16.0315 19.9999 12 20H11.99C9.86876 20.0063 7.83316 19.1637 6.337 17.66L4 20ZM6.074 11H4.062C4.56575 7.0016 7.965 4.00213 11.995 3.99995H12C14.1216 3.99316 16.1577 4.83583 17.654 6.33999L20 3.99995V11H13L16.222 7.77999C15.1109 6.64364 13.5893 6.00213 12 5.99999C9.46055 6.00374 7.19848 7.60577 6.352 9.99999H6.334C6.21856 10.3251 6.13189 10.6597 6.075 11H6.074Z" fill="black"/>
</svg>
