<svg width="24" height="24" viewBox="0 0 24 24" fill="none" xmlns="http://www.w3.org/2000/svg">
<path d="M20 3H4C3.447 3 3 3.447 3 4V6.59C3 7.113 3.213 7.627 3.583 7.997L9 13.414V21C9 21.347 9.18 21.668 9.475 21.851C9.635 21.95 9.817 22 10 22C10.153 22 10.306 21.965 10.447 21.895L14.447 19.895C14.786 19.725 15 19.379 15 19V13.414L20.417 7.997C20.787 7.627 21 7.113 21 6.59V4C21 3.447 20.553 3 20 3ZM13.293 12.293C13.105 12.48 13 12.734 13 13V18.382L11 19.382V13C11 12.734 10.895 12.48 10.707 12.293L5 6.59V5H19.001L19.003 6.583L13.293 12.293Z" fill="black"/>
</svg>
