<svg width="24" height="24" viewBox="0 0 24 24" fill="none" xmlns="http://www.w3.org/2000/svg">
<path d="M8.41417 0.414185L6.99995 1.8284L8.17162 3.00006H4C3.447 3.00006 3 3.44706 3 4.00006V6.59006C3 7.11306 3.213 7.62706 3.583 7.99706L9 13.4141L9 21.0001C9 21.3471 9.18 21.6681 9.475 21.8511C9.635 21.9501 9.817 22.0001 10 22.0001C10.153 22.0001 10.306 21.9651 10.447 21.8951L14.447 19.8951C14.786 19.7251 15 19.3791 15 19.0001L15 13.4141L16.7928 11.6213L19.7279 14.5563L21.1421 13.1421L8.41417 0.414185ZM15.3788 10.2073L13.293 12.2931C13.105 12.4801 13 12.7341 13 13.0001L13 18.3821L11 19.3821V13.0001C11 12.7341 10.895 12.4801 10.707 12.2931L5 6.59006V5.00006L10.1716 5.00006L15.3788 10.2073Z" fill="black"/>
<path d="M20 3.00006H13.8284L15.8284 5.00006H19.001L19.003 6.58306L18.2072 7.37885L19.6212 8.79285L20.417 7.99706C20.787 7.62706 21 7.11306 21 6.59006V4.00006C21 3.44706 20.553 3.00006 20 3.00006Z" fill="black"/>
</svg>
