<svg width="24" height="24" viewBox="0 0 24 24" fill="none" xmlns="http://www.w3.org/2000/svg">
<g id="Edit / Path">
<path id="Vector" d="M8.12132 15.8787C7.57843 15.3358 6.82843 15 6 15C4.34315 15 3 16.3431 3 18C3 19.6569 4.34315 21 6 21C7.65685 21 9 19.6569 9 18C9 17.1716 8.66421 16.4216 8.12132 15.8787ZM8.12132 15.8787L15.8787 8.12132M15.8787 8.12132C16.4216 8.66421 17.1716 9 18 9C19.6569 9 21 7.65685 21 6C21 4.34315 19.6569 3 18 3C16.3431 3 15 4.34315 15 6C15 6.82843 15.3358 7.57843 15.8787 8.12132ZM15.8787 8.12132L15.8828 8.11719" stroke="currentColor" stroke-width="2" stroke-linecap="round" stroke-linejoin="round"/>
</g>
</svg>
