<svg width="24" height="24" viewBox="0 0 24 24" fill="none" xmlns="http://www.w3.org/2000/svg">
<g id="Edit / Strikethrough">
<path id="Vector" d="M12.0005 12.0001C12.8959 12.0001 13.7749 12.1925 14.5457 12.5571C14.8939 12.7218 15.2146 12.9192 15.5009 13.1437C15.8484 13.4162 16.1457 13.729 16.3822 14.0732C16.8136 14.7009 17.0263 15.4096 16.9982 16.1256C16.97 16.8416 16.702 17.5385 16.2222 18.1433C15.7424 18.7481 15.0684 19.2386 14.2705 19.5638C13.4727 19.889 12.5802 20.0373 11.6865 19.9923C10.7928 19.9473 9.93104 19.7108 9.19043 19.3082C8.44982 18.9055 7.85782 18.3514 7.47656 17.7032M12.0005 12.0001H4M12.0005 12.0001H20M16.5243 6.29718C16.143 5.649 15.5512 5.09462 14.8105 4.69197C14.0699 4.28932 13.2076 4.05287 12.314 4.00789C11.4203 3.96291 10.5278 4.11091 9.72998 4.43613C8.93213 4.76135 8.25812 5.25205 7.77832 5.85689C7.29852 6.46173 7.03057 7.15885 7.00244 7.87485C6.9942 8.08463 7.00669 8.29345 7.03924 8.50014" stroke="currentColor" stroke-width="2" stroke-linecap="round" stroke-linejoin="round"/>
</g>
</svg>
