<svg width="24" height="24" viewBox="0 0 24 24" fill="none" xmlns="http://www.w3.org/2000/svg">
<path fill-rule="evenodd" clip-rule="evenodd" d="M3.41421 3.58582L2 5.00003L5.04463 8.04466L5.02529 8.0788C2.17514 8.54442 0 11.0182 0 14C0 17.3137 2.68629 20 6 20H17L18.9706 21.9706L20.3847 20.5564L3.41421 3.58582ZM6.81341 9.81344L15 18H6C3.79086 18 2 16.2092 2 14C2 12.0141 3.44924 10.3628 5.34774 10.0526L6.81341 9.81344Z" fill="black"/>
<path d="M7.82891 5.17212L9.29793 6.64114C10.1104 6.23074 11.0285 6.00003 12 6.00003C14.8087 6.00003 17.1711 7.93174 17.822 10.5418L18.1442 11.8334L19.4601 12.0348C20.898 12.2549 22 13.5006 22 15C22 16.1748 21.3247 17.1919 20.3411 17.6843L21.799 19.1422L21.7939 19.1472C23.1248 18.2488 24 16.7266 24 15C24 12.4979 22.1621 10.425 19.7626 10.0578C18.8948 6.57808 15.7485 4.00003 12 4.00003C10.4717 4.00003 9.04343 4.4286 7.82891 5.17212Z" fill="black"/>
</svg>
