<svg width="24" height="24" viewBox="0 0 24 24" fill="none" xmlns="http://www.w3.org/2000/svg">
<path d="M8.00006 2V2L8.00006 8H10L6 13L2 8H4L4 2H8.00006Z" fill="black"/>
<path d="M10.5847 16.4004H9.9393V14.8413H10.5942C10.7625 14.8436 10.8967 14.9192 10.9968 15.068C11.0969 15.2145 11.147 15.4125 11.147 15.6621C11.147 15.9025 11.098 16.0856 11 16.2115C10.902 16.3375 10.7636 16.4004 10.5847 16.4004Z" fill="black"/>
<path d="M13.6645 18.1621V14.8413H14.0064C14.2982 14.8505 14.5048 14.9478 14.6262 15.1332C14.7476 15.3164 14.8083 15.6415 14.8083 16.1085V16.9773C14.8019 17.4123 14.7348 17.7191 14.607 17.8977C14.4792 18.0739 14.2588 18.1621 13.9457 18.1621H13.6645Z" fill="black"/>
<path fill-rule="evenodd" clip-rule="evenodd" d="M6.00006 14.6008L12.0807 7H9.00006L9.00006 2H15C15.0113 2 15.0221 2.0032 15.033 2.00647C15.0424 2.00925 15.0519 2.01208 15.062 2.013C15.151 2.018 15.237 2.036 15.321 2.064C15.331 2.06742 15.3409 2.07056 15.3508 2.07367C15.3727 2.08056 15.3943 2.08736 15.415 2.097C15.521 2.146 15.622 2.207 15.708 2.293L21.708 8.293C21.794 8.379 21.855 8.48 21.904 8.586C21.9132 8.60784 21.9203 8.62967 21.9276 8.65186L21.937 8.68C21.965 8.764 21.982 8.85 21.987 8.938C21.9879 8.94812 21.9907 8.95761 21.9935 8.96694C21.9968 8.9779 22 8.98867 22 9V20C22 21.103 21.103 22 20 22H8C6.897 22 6 21.103 6 20L6.00006 14.6008ZM15 9V4L20 9H15ZM9.9393 19V17.2418H10.5655C11.0447 17.2418 11.4196 17.0998 11.6901 16.8159C11.9606 16.5321 12.0958 16.1451 12.0958 15.6552C12.0958 15.1653 11.9585 14.7669 11.6837 14.4602C11.4111 14.1534 11.0447 14 10.5847 14H9V19H9.9393ZM12.7252 14V19H13.9297C14.4963 19 14.9404 18.8134 15.262 18.4402C15.5857 18.0648 15.7476 17.5485 15.7476 16.8915V16.081C15.7412 15.4354 15.5761 14.9272 15.2524 14.5563C14.9308 14.1854 14.4984 14 13.9553 14H12.7252ZM18.8243 16.9602H17.3642V19H16.4249V14H19V14.8413H17.3642V16.1223H18.8243V16.9602Z" fill="black"/>
</svg>
