<svg width="24" height="24" viewBox="0 0 24 24" fill="none" xmlns="http://www.w3.org/2000/svg">
<path fill-rule="evenodd" clip-rule="evenodd" d="M19.937 8.68L19.9276 8.65196C19.9204 8.62974 19.9132 8.60787 19.904 8.586C19.855 8.48 19.794 8.379 19.708 8.293L13.708 2.293C13.622 2.207 13.521 2.146 13.415 2.097C13.3943 2.08736 13.3727 2.08056 13.3508 2.07367C13.3409 2.07056 13.331 2.06742 13.321 2.064C13.237 2.036 13.151 2.018 13.062 2.013C13.0519 2.01208 13.0424 2.00925 13.033 2.00647C13.0221 2.0032 13.0113 2 13 2H6C4.897 2 4 2.897 4 4V20C4 21.103 4.897 22 6 22H18C19.103 22 20 21.103 20 20V9C20 8.98867 19.9968 8.97792 19.9935 8.96697C19.9907 8.95762 19.9879 8.94813 19.987 8.938C19.982 8.85 19.965 8.764 19.937 8.68ZM13 4V9H18L13 4ZM13.9643 17.2086C14.0569 17.3088 14.1032 17.4581 14.1032 17.6564C14.1032 18.0196 13.9482 18.2012 13.6381 18.2012C13.4147 18.2012 13.2536 18.1377 13.155 18.0107C13.0564 17.8837 13.007 17.6798 13.007 17.3991H12.1163C12.1163 17.7266 12.1817 18.0107 12.3125 18.2513C12.4454 18.492 12.6286 18.6769 12.8621 18.8062C13.0956 18.9354 13.3543 19 13.6381 19C14.0569 19 14.388 18.8808 14.6316 18.6424C14.8752 18.404 14.997 18.0731 14.997 17.6497C14.997 17.2643 14.8993 16.9467 14.7041 16.6972C14.5108 16.4476 14.1998 16.2371 13.771 16.0655C13.5254 15.9496 13.3543 15.8382 13.2577 15.7313C13.161 15.6221 13.1127 15.5007 13.1127 15.367C13.1127 15.1954 13.156 15.0595 13.2426 14.9592C13.3291 14.8567 13.4499 14.8055 13.6049 14.8055C13.77 14.8055 13.8958 14.8656 13.9824 14.986C14.071 15.1041 14.1152 15.2767 14.1152 15.504H15C15 15.2121 14.9426 14.9514 14.8279 14.7219C14.7151 14.4924 14.5531 14.3153 14.3417 14.1905C14.1303 14.0635 13.8898 14 13.62 14C13.2154 14 12.8812 14.1248 12.6175 14.3743C12.3558 14.6217 12.225 14.9503 12.225 15.3603C12.225 15.699 12.3216 15.9931 12.5148 16.2426C12.7081 16.49 13.0252 16.7061 13.466 16.891C13.7076 17.0002 13.8737 17.1061 13.9643 17.2086ZM11.5486 14.0668H10.6608V17.389C10.6608 17.9193 10.532 18.1845 10.2743 18.1845C10.0186 18.1845 9.89079 17.955 9.89079 17.496H9C9 17.9684 9.11173 18.3371 9.33518 18.6023C9.55863 18.8674 9.87167 19 10.2743 19C10.6487 19 10.9547 18.8574 11.1922 18.5722C11.4298 18.287 11.5486 17.9082 11.5486 17.4358V14.0668Z" fill="black"/>
</svg>
