<svg width="24" height="24" viewBox="0 0 24 24" fill="none" xmlns="http://www.w3.org/2000/svg">
<g id="Warning / Shield_Check">
<path id="Vector" d="M15 9L11 13L9 11M20 10.165C20 16.7333 15.0319 19.6781 12.9258 20.6314L12.9231 20.6325C12.7016 20.7328 12.5906 20.7831 12.3389 20.8263C12.1795 20.8537 11.8215 20.8537 11.6621 20.8263C11.4094 20.7829 11.2972 20.7325 11.074 20.6314C8.9678 19.6781 4 16.7333 4 10.165V6.2002C4 5.08009 4 4.51962 4.21799 4.0918C4.40973 3.71547 4.71547 3.40973 5.0918 3.21799C5.51962 3 6.08009 3 7.2002 3H16.8002C17.9203 3 18.4796 3 18.9074 3.21799C19.2837 3.40973 19.5905 3.71547 19.7822 4.0918C20 4.5192 20 5.07899 20 6.19691V10.165Z" stroke="currentColor" stroke-width="2" stroke-linecap="round" stroke-linejoin="round"/>
</g>
</svg>
