<svg width="24" height="24" viewBox="0 0 24 24" fill="none" xmlns="http://www.w3.org/2000/svg">
<g id="Warning / Square_Help">
<path id="Vector" d="M9.14648 9.07361C9.31728 8.54732 9.63015 8.07896 10.0508 7.71948C10.4714 7.36001 10.9838 7.12378 11.5303 7.03708C12.0768 6.95038 12.6362 7.0164 13.1475 7.22803C13.6587 7.43966 14.1014 7.78875 14.4268 8.23633C14.7521 8.68391 14.9469 9.21256 14.9904 9.76416C15.0339 10.3158 14.9238 10.8688 14.6727 11.3618C14.4215 11.8548 14.0394 12.2685 13.5676 12.5576C13.0958 12.8467 12.5533 12.9998 12 12.9998V14.0002M12.0498 17V17.1L11.9502 17.1002V17H12.0498ZM3 17.8002V6.2002C3 5.08009 3 4.51962 3.21799 4.0918C3.40973 3.71547 3.71547 3.40973 4.0918 3.21799C4.51962 3 5.08009 3 6.2002 3H17.8002C18.9203 3 19.4796 3 19.9074 3.21799C20.2837 3.40973 20.5905 3.71547 20.7822 4.0918C21 4.5192 21 5.07899 21 6.19691V17.8036C21 18.9215 21 19.4805 20.7822 19.9079C20.5905 20.2842 20.2837 20.5905 19.9074 20.7822C19.48 21 18.921 21 17.8031 21H6.19691C5.07899 21 4.5192 21 4.0918 20.7822C3.71547 20.5905 3.40973 20.2842 3.21799 19.9079C3 19.4801 3 18.9203 3 17.8002Z" stroke="currentColor" stroke-width="2" stroke-linecap="round" stroke-linejoin="round"/>
</g>
</svg>
