<svg width="24" height="24" viewBox="0 0 24 24" fill="none" xmlns="http://www.w3.org/2000/svg">
<path d="M18 22H6C3.79086 22 2 20.2091 2 18V6C2 3.79086 3.79086 2 6 2H18C20.2091 2 22 3.79086 22 6V18C22 20.2091 20.2091 22 18 22ZM6 4C4.89543 4 4 4.89543 4 6V18C4 19.1046 4.89543 20 6 20H18C19.1046 20 20 19.1046 20 18V6C20 4.89543 19.1046 4 18 4H6ZM15.762 16.776C14.8881 16.8112 14.038 16.4858 13.411 15.876C12.7614 15.1354 12.4282 14.1696 12.483 13.186C12.4629 12.23 12.8039 11.3017 13.438 10.586C14.1085 9.87714 15.0497 9.48822 16.025 9.517C16.116 9.517 16.187 9.517 16.258 9.517V7.517C16.258 7.36054 16.3845 7.23355 16.541 7.233H17.858C17.9311 7.23027 18.0026 7.25527 18.058 7.303C18.1127 7.35483 18.1426 7.42766 18.14 7.503V15.182C18.1353 15.4469 18.1486 15.7119 18.18 15.975V15.989V16C18.1815 16.0636 18.1618 16.1259 18.124 16.177C18.0913 16.2171 18.05 16.2493 18.003 16.271C17.309 16.6023 16.55 16.7751 15.781 16.777L15.762 16.776ZM14.846 11.66L14.841 11.666C14.5243 12.0828 14.3649 12.5981 14.391 13.121C14.3499 13.6658 14.5073 14.2071 14.834 14.645C15.1012 14.9392 15.486 15.0985 15.883 15.079C16.009 15.0806 16.1348 15.0679 16.258 15.041V11.192C16.1647 11.172 16.0694 11.1623 15.974 11.163C15.5419 11.1514 15.1276 11.3351 14.846 11.663V11.66ZM12.225 16.66H10.774C10.6211 16.67 10.4787 16.5815 10.42 16.44L10.21 16L10.205 15.989L10 15.58L9.936 15.447C9.617 14.789 9.288 14.111 8.958 13.413C8.499 14.43 8.009 15.478 7.541 16.444V16.454L7.536 16.463C7.50253 16.5191 7.45584 16.5661 7.4 16.6C7.34323 16.6339 7.27811 16.6512 7.212 16.65H5.841C5.72319 16.6558 5.61584 16.5827 5.578 16.471C5.5536 16.3871 5.56948 16.2966 5.621 16.226L7.85 11.965L5.694 7.651C5.6348 7.56534 5.63013 7.45328 5.682 7.363C5.7317 7.28139 5.82045 7.23171 5.916 7.232H7.35C7.41966 7.22828 7.48897 7.24422 7.55 7.278C7.6119 7.31604 7.65966 7.37328 7.686 7.441C8.222 8.566 8.674 9.541 9.069 10.406C9.56 9.306 10.082 8.188 10.432 7.447L10.437 7.436L10.443 7.426V7.42V7.415C10.4681 7.37222 10.4994 7.33345 10.536 7.3C10.5979 7.24836 10.6764 7.22099 10.757 7.223H12.1C12.2049 7.2202 12.3017 7.27935 12.347 7.374C12.3828 7.46015 12.3743 7.55838 12.324 7.637L10.167 11.824L12.449 16.224C12.4976 16.3014 12.5083 16.3968 12.478 16.483C12.4394 16.5891 12.3379 16.6593 12.225 16.658V16.66Z" fill="black"/>
</svg>
