<svg width="24" height="24" viewBox="0 0 24 24" fill="none" xmlns="http://www.w3.org/2000/svg">
<path d="M9.0941 21.006C8.46533 20.9719 7.87364 20.6977 7.4411 20.24C6.9237 19.7422 6.46199 19.1897 6.0641 18.592C5.44259 17.702 4.95131 16.7279 4.6051 15.699C4.21297 14.5922 4.00652 13.4282 3.9941 12.254C3.96397 11.1019 4.24961 9.96346 4.8201 8.96202C5.23768 8.24012 5.83329 7.63728 6.5501 7.21102C7.25899 6.78659 8.06792 6.55813 8.8941 6.54902C9.51692 6.58587 10.129 6.72823 10.7041 6.97002C11.1627 7.17178 11.6453 7.31362 12.1401 7.39202C12.6861 7.27763 13.2197 7.11017 13.7331 6.89202C14.3408 6.65474 14.9842 6.52187 15.6361 6.49902C15.7231 6.49902 15.8091 6.49902 15.8921 6.50902C17.3216 6.55048 18.6512 7.25221 19.4921 8.40902C18.1551 9.12387 17.3341 10.5303 17.3691 12.046C17.3559 13.1956 17.8352 14.2959 18.6861 15.069C19.069 15.4339 19.5149 15.7262 20.0021 15.932C19.9021 16.232 19.7871 16.522 19.6651 16.814C19.3878 17.4593 19.0457 18.0748 18.6441 18.651C18.265 19.2282 17.8237 19.7621 17.3281 20.243C16.8757 20.6919 16.2727 20.9567 15.6361 20.986C15.0965 20.9621 14.5663 20.8355 14.0741 20.613C13.5433 20.3818 12.9729 20.2551 12.3941 20.24C11.799 20.2517 11.2117 20.3777 10.6641 20.611C10.1911 20.8244 9.68585 20.9572 9.1691 21.004L9.0941 21.006ZM12.2441 6.49902C12.1691 6.49902 12.0941 6.49902 12.0191 6.49002C12.0033 6.37099 11.995 6.25109 11.9941 6.13102C12.0268 5.13216 12.4172 4.17826 13.0941 3.44302C13.4724 3.0206 13.931 2.67762 14.4431 2.43402C14.921 2.18802 15.4432 2.04012 15.9791 1.99902C15.9941 2.13002 15.9941 2.25802 15.9941 2.38002C15.98 3.36317 15.6106 4.308 14.9541 5.04002C14.3106 5.9028 13.3186 6.43689 12.2441 6.49902Z" fill="black"/>
</svg>
