<svg width="24" height="24" viewBox="0 0 24 24" fill="none" xmlns="http://www.w3.org/2000/svg">
<path d="M18 22H6C4.89543 22 4 21.1046 4 20V4.00001C4 2.89544 4.89543 2.00001 6 2.00001H13C13.2654 1.99907 13.5201 2.10462 13.707 2.29301L19.707 8.29301C19.8954 8.47994 20.0009 8.73462 20 9.00001V20C20 21.1046 19.1046 22 18 22ZM6 4.00001V20H16.586L14.02 17.434C13.4101 17.8017 12.7121 17.9973 12 18C10.1612 18.0199 8.54049 16.7967 8.05545 15.0229C7.57041 13.2491 8.34318 11.3714 9.93625 10.4529C11.5293 9.53434 13.5415 9.80626 14.8337 11.1147C16.1258 12.4231 16.3724 14.4386 15.434 16.02L18 18.588V9.41401L12.586 4.00001H6ZM12 12C10.8954 12 10 12.8954 10 14C10 15.1046 10.8954 16 12 16C13.1046 16 14 15.1046 14 14C14 12.8954 13.1046 12 12 12Z" fill="black"/>
</svg>
