<svg width="24" height="24" viewBox="0 0 24 24" fill="none" xmlns="http://www.w3.org/2000/svg">
<path d="M18 22H6C4.89543 22 4 21.1046 4 20V3.99999C4 2.89542 4.89543 1.99999 6 1.99999H13C13.009 1.99882 13.018 1.99882 13.027 1.99999H13.033C13.0424 2.00294 13.0522 2.00495 13.062 2.00599C13.1502 2.01164 13.2373 2.02878 13.321 2.05699H13.336H13.351H13.363C13.3815 2.06991 13.3988 2.08429 13.415 2.09999C13.5239 2.14841 13.6232 2.21617 13.708 2.29999L19.708 8.29999C19.7918 8.38477 19.8596 8.48404 19.908 8.59299C19.917 8.61499 19.924 8.63599 19.931 8.65899L19.941 8.68699C19.9689 8.77038 19.9854 8.85717 19.99 8.94499C19.9909 8.95495 19.9932 8.96472 19.997 8.97399V8.97999C19.9986 8.98654 19.9996 8.99324 20 8.99999V20C20 20.5304 19.7893 21.0391 19.4142 21.4142C19.0391 21.7893 18.5304 22 18 22ZM16.261 15V19H18.5V18.33H17.074V15H16.261ZM14.861 16.258L14.787 17.917V19H15.602V15H14.545L13.788 17.894L13.028 15H11.967V19H12.78V17.917L12.7 16.25L13.5 19H14.054L14.861 16.258ZM8.712 15V15.673H9.69V19H10.505V15.673H11.5V15H8.712ZM6.312 17.289H7.512V19H8.322V15H7.512V16.618H6.312V15H5.5V19H6.312V17.289ZM13 3.99999V8.99999H18L13 3.99999Z" fill="black"/>
</svg>
