<svg width="24" height="24" viewBox="0 0 24 24" fill="none" xmlns="http://www.w3.org/2000/svg">
<path d="M8 18H20C21.1046 18 22 17.1046 22 16V4C22 2.89543 21.1046 2 20 2H8C6.89543 2 6 2.89543 6 4V16C6 17.1046 6.89543 18 8 18ZM8 16V4H20V16H8Z" fill="black"/>
<path d="M2 8H4V20H16V22H4C2.89543 22 2 21.1046 2 20V8Z" fill="black"/>
<path d="M10 14H19L15.25 8.55556L13 11.6667L12.25 10.8889L10 14Z" fill="black"/>
<path d="M10.75 8.16667C10.75 8.811 11.2537 9.33333 11.875 9.33333C12.4963 9.33333 13 8.811 13 8.16667C13 7.52233 12.4963 7 11.875 7C11.2537 7 10.75 7.52233 10.75 8.16667Z" fill="black"/>
</svg>
