<svg width="24" height="24" viewBox="0 0 24 24" fill="none" xmlns="http://www.w3.org/2000/svg">
<path d="M8.05135 17.8285L8.70486 18.1778C9.71761 18.7193 10.8486 19.0017 11.997 19L12 19C15.8661 19 19 15.8661 19 12C19 8.13387 15.8661 5 12 5C8.13388 5 5.00001 8.13387 5.00001 12V12.003C4.99828 13.1514 5.28073 14.2824 5.82217 15.2951L6.17155 15.9486L5.63433 18.3657L8.05135 17.8285ZM3.00001 21L4.05841 16.2381C3.36139 14.9343 2.99778 13.4784 3.00001 12C3.00001 7.0293 7.02931 3 12 3C16.9707 3 21 7.0293 21 12C21 16.9707 16.9707 21 12 21C10.5216 21.0022 9.06566 20.6386 7.76191 19.9416L3.00001 21Z" fill="black"/>
</svg>
