<svg width="24" height="24" viewBox="0 0 24 24" fill="none" xmlns="http://www.w3.org/2000/svg">
<path d="M17.5001 22C16.418 22.0125 15.3925 21.5181 14.7283 20.6637C14.0642 19.8094 13.838 18.6935 14.1171 17.648L7.85709 14.07C6.77538 15.061 5.18977 15.2708 3.88758 14.5951C2.58538 13.9194 1.84397 12.5022 2.03146 11.0472C2.21895 9.59217 3.29542 8.40923 4.72637 8.08574C6.15732 7.76224 7.63795 8.36711 8.43309 9.59999L14.1161 6.35099C14.0426 6.07318 14.0036 5.78735 14.0001 5.49999C13.9858 3.8267 15.1479 2.37313 16.7833 2.01881C18.4187 1.66449 20.0782 2.50673 20.7577 4.03591C21.4372 5.56508 20.9501 7.36122 19.5911 8.3375C18.232 9.31378 16.3744 9.20208 15.1421 8.06999L8.99109 11.585C8.985 11.8443 8.94876 12.102 8.88309 12.353L15.1421 15.93C16.2944 14.8725 18.0089 14.7093 19.34 15.5303C20.6711 16.3513 21.2947 17.9567 20.8669 19.461C20.4391 20.9653 19.064 22.0023 17.5001 22ZM17.5001 17C16.6717 17 16.0001 17.6716 16.0001 18.5C16.0001 19.3284 16.6717 20 17.5001 20C18.3285 20 19.0001 19.3284 19.0001 18.5C19.0001 17.6716 18.3285 17 17.5001 17ZM5.50009 9.99999C4.67166 9.99999 4.00009 10.6716 4.00009 11.5C4.00009 12.3284 4.67166 13 5.50009 13C6.32852 13 7.00009 12.3284 7.00009 11.5C7.00009 10.6716 6.32852 9.99999 5.50009 9.99999ZM17.5001 3.99999C16.6717 3.99999 16.0001 4.67156 16.0001 5.49999C16.0001 6.32842 16.6717 6.99999 17.5001 6.99999C18.3285 6.99999 19.0001 6.32842 19.0001 5.49999C19.0001 4.67156 18.3285 3.99999 17.5001 3.99999Z" fill="black"/>
</svg>
