<svg width="24" height="24" viewBox="0 0 24 24" fill="none" xmlns="http://www.w3.org/2000/svg">
<path d="M6 4H8V6.55709C9.19001 5.622 10.6906 5.0643 12.3214 5.0643C16.1874 5.0643 19.3214 8.19831 19.3214 12.0643C19.3214 15.9303 16.1874 19.0643 12.3214 19.0643C10.171 19.0643 8.24696 18.0946 6.96289 16.5685L8.58221 15.3837C9.49811 16.4147 10.8339 17.0643 12.3214 17.0643C15.0829 17.0643 17.3214 14.8257 17.3214 12.0643C17.3214 9.30288 15.0829 7.0643 12.3214 7.0643C11.2346 7.0643 10.2288 7.41107 9.4085 8L12 8V10H6V4Z" fill="black"/>
</svg>
