<svg width="24" height="24" viewBox="0 0 24 24" fill="none" xmlns="http://www.w3.org/2000/svg">
<path d="M20.2921 21.707L11.5861 13H7.0001V11H9.5861L7.5861 9H7.0001C5.34324 9 4.0001 10.3431 4.0001 12C4.0001 13.6569 5.34324 15 7.0001 15H10.0001V17H7.0001C4.48165 17.0021 2.35474 15.1307 2.03615 12.6325C1.71756 10.1343 3.30674 7.78905 5.7451 7.159L2.2921 3.707L3.7071 2.293L21.7071 20.293L20.2931 21.706L20.2921 21.707ZM20.1361 15.893L18.7081 14.466C19.7866 13.7188 20.2544 12.3575 19.8631 11.1052C19.4718 9.85294 18.3121 9.0002 17.0001 9H14.0001V7H17.0001C19.1201 7.00025 21.0095 8.33744 21.7147 10.3367C22.42 12.336 21.7877 14.5627 20.1371 15.893H20.1361Z" fill="black"/>
</svg>
