<svg width="24" height="24" viewBox="0 0 24 24" fill="none" xmlns="http://www.w3.org/2000/svg">
<path d="M4 19H2C2 15.6863 4.68629 13 8 13C11.3137 13 14 15.6863 14 19H12C12 16.7909 10.2091 15 8 15C5.79086 15 4 16.7909 4 19ZM15.994 15.41L13.288 12.71L14.7 11.292L15.992 12.584L20.292 8.292L21.704 9.708L15.992 15.408L15.994 15.41ZM8 12C5.79086 12 4 10.2091 4 8C4 5.79086 5.79086 4 8 4C10.2091 4 12 5.79086 12 8C11.9972 10.208 10.208 11.9972 8 12ZM8 6C6.9074 6.00111 6.01789 6.87885 6.00223 7.97134C5.98658 9.06383 6.85057 9.9667 7.94269 9.99912C9.03481 10.0315 9.95083 9.1815 10 8.09V8.49V8C10 6.89543 9.10457 6 8 6Z" fill="black"/>
</svg>
