<svg width="24" height="24" viewBox="0 0 24 24" fill="none" xmlns="http://www.w3.org/2000/svg">
<g id="File / Archive">
<path id="Vector" d="M6.60035 9H17.4003M6.60035 9C6.04029 9 5.75957 9 5.54566 9.10899C5.3575 9.20487 5.20463 9.35774 5.10875 9.5459C4.99976 9.75981 4.99976 10.04 4.99976 10.6001V15.8001C4.99976 16.9202 4.99976 17.4804 5.21775 17.9082C5.40949 18.2845 5.71523 18.5905 6.09156 18.7822C6.51896 19 7.07875 19 8.19667 19H15.8025C16.9204 19 17.4794 19 17.9068 18.7822C18.2831 18.5905 18.5902 18.2844 18.782 17.9081C18.9998 17.4807 18.9998 16.9216 18.9998 15.8037V10.591C18.9998 10.037 18.9998 9.75865 18.8914 9.5459C18.7955 9.35774 18.6419 9.20487 18.4538 9.10899C18.2398 9 17.9604 9 17.4003 9M6.60035 9H4.97507C4.12597 9 3.70168 9 3.4607 8.85156C3.13911 8.65347 2.95678 8.29079 2.98902 7.91447C3.0132 7.63223 3.26593 7.29089 3.77222 6.60739C3.91866 6.40971 3.99189 6.31084 4.08152 6.23535C4.20104 6.1347 4.34286 6.06322 4.49488 6.02709C4.60889 6 4.73126 6 4.9773 6H19.0217C19.2677 6 19.3904 6 19.5044 6.02709C19.6564 6.06322 19.7982 6.1347 19.9177 6.23535C20.0074 6.31084 20.0809 6.40924 20.2273 6.60693C20.7336 7.29042 20.9867 7.63218 21.0109 7.91442C21.0432 8.29074 20.8602 8.65347 20.5386 8.85156C20.2976 9 19.8723 9 19.0232 9H17.4003M9.99976 14H13.9998" stroke="currentColor" stroke-width="2" stroke-linecap="round" stroke-linejoin="round"/>
</g>
</svg>
