<svg width="24" height="24" viewBox="0 0 24 24" fill="none" xmlns="http://www.w3.org/2000/svg">
<g id="File / Files">
<path id="Vector" d="M9 6H9.33687C9.58146 6 9.70385 6 9.81893 6.02763C9.92097 6.05213 10.0189 6.09263 10.1084 6.14746C10.2093 6.20928 10.2959 6.29591 10.4688 6.46875L13.5315 9.53149C13.7044 9.70444 13.7904 9.79044 13.8523 9.89135C13.9071 9.98082 13.9482 10.0786 13.9727 10.1807C14 10.2946 14 10.4155 14 10.6552V18M9 6H4.59961C4.03956 6 3.75981 6 3.5459 6.10899C3.35774 6.20487 3.20487 6.35774 3.10899 6.5459C3 6.75981 3 7.04004 3 7.6001V19.4001C3 19.9601 3 20.2398 3.10899 20.4537C3.20487 20.6419 3.35774 20.7952 3.5459 20.8911C3.7596 21 4.03902 21 4.598 21L12.4011 21C12.96 21 13.2405 21 13.4542 20.8911C13.6423 20.7952 13.7948 20.6421 13.8906 20.4539C13.9996 20.24 14 19.9599 14 19.3999V18M9 6V9.4C9 9.96005 9 10.2399 9.10899 10.4538C9.20487 10.642 9.35774 10.7952 9.5459 10.8911C9.7596 11 10.039 11 10.598 11H13.9996M10 6.0001V4.6001C10 4.04005 10 3.75981 10.109 3.5459C10.2049 3.35774 10.3577 3.20487 10.5459 3.10899C10.7598 3 11.0396 3 11.5996 3H16M16 3H16.3369C16.5815 3 16.7038 3 16.8189 3.02763C16.921 3.05213 17.0189 3.09263 17.1084 3.14746C17.2093 3.20928 17.2959 3.29592 17.4688 3.46875L20.5315 6.53149C20.7044 6.70444 20.7904 6.79044 20.8523 6.89135C20.9071 6.98082 20.9482 7.07863 20.9727 7.18066C21 7.29458 21 7.41552 21 7.65515V16.3999C21 16.9599 20.9996 17.24 20.8906 17.4539C20.7948 17.6421 20.6429 17.7952 20.4548 17.8911C20.2411 18 19.961 18 19.402 18H14M16 3V6.4C16 6.96005 16 7.23988 16.109 7.4538C16.2049 7.64196 16.3577 7.79524 16.5459 7.89111C16.7596 8 17.039 8 17.598 8H20.9996" stroke="currentColor" stroke-width="2" stroke-linecap="round" stroke-linejoin="round"/>
</g>
</svg>
