<svg width="24" height="24" viewBox="0 0 24 24" fill="none" xmlns="http://www.w3.org/2000/svg">
<g id="File / File_Edit">
<path id="Vector" d="M6 11.0002V6.2002C6 5.08009 6 4.51962 6.21799 4.0918C6.40973 3.71547 6.71547 3.40973 7.0918 3.21799C7.51962 3 8.08009 3 9.2002 3H13.6747C13.7973 3 13.9045 3 14 3.00087M19.9991 9C20 9.09561 20 9.20296 20 9.32568V17.8036C20 18.9215 20 19.4805 19.7822 19.9079C19.5905 20.2842 19.2839 20.5905 18.9076 20.7822C18.4802 21 17.921 21 16.8031 21L13 21M19.9991 9C19.9963 8.71451 19.9857 8.53376 19.9443 8.36133C19.8953 8.15726 19.8142 7.96214 19.7046 7.7832C19.5809 7.58136 19.4089 7.40889 19.063 7.06298L15.9375 3.9375C15.5918 3.59182 15.4186 3.41857 15.2168 3.29492C15.0379 3.18526 14.8429 3.10425 14.6388 3.05526C14.4663 3.01385 14.2856 3.00347 14 3.00087M19.9991 9H20.0002M19.9991 9H17.1969C16.079 9 15.5192 9 15.0918 8.78223C14.7155 8.59048 14.4097 8.28392 14.218 7.90759C14 7.47977 14 6.9201 14 5.8V3.00087M9 14L11 16M4 21V18.5L11.5 11L14 13.5L6.5 21H4Z" stroke="currentColor" stroke-width="2" stroke-linecap="round" stroke-linejoin="round"/>
</g>
</svg>
