<svg width="24" height="24" viewBox="0 0 24 24" fill="none" xmlns="http://www.w3.org/2000/svg">
<g id="File / Folder_Document">
<path id="Vector" d="M9 15H15M9 12H15M3 6V16.8C3 17.9201 3 18.4796 3.21799 18.9074C3.40973 19.2837 3.71547 19.5905 4.0918 19.7822C4.5192 20 5.07899 20 6.19691 20H17.8037C18.9216 20 19.4806 20 19.908 19.7822C20.2843 19.5905 20.5905 19.2841 20.7822 18.9078C21.0002 18.48 21.0002 17.9199 21.0002 16.7998L21.0002 9.19978C21.0002 8.07967 21.0002 7.51962 20.7822 7.0918C20.5905 6.71547 20.2837 6.40973 19.9074 6.21799C19.4796 6 18.9201 6 17.8 6H12M3 6H12M3 6C3 4.89543 3.89543 4 5 4H8.67452C9.1637 4 9.40915 4 9.63933 4.05526C9.8434 4.10425 10.0379 4.18526 10.2168 4.29492C10.4186 4.41856 10.5918 4.59183 10.9375 4.9375L12 6" stroke="currentColor" stroke-width="2" stroke-linecap="round" stroke-linejoin="round"/>
</g>
</svg>
