<svg width="24" height="24" viewBox="0 0 24 24" fill="none" xmlns="http://www.w3.org/2000/svg">
<g id="File / Folder_Open">
<path id="Vector" d="M17.8031 20L19.793 20C20.2255 20 20.4419 20 20.6236 19.9258C20.784 19.8603 20.9251 19.7538 21.0322 19.6175C21.1535 19.4631 21.2132 19.2555 21.332 18.8395L22.4177 15.0396C22.6156 14.3472 22.714 14.0009 22.6363 13.7271C22.5682 13.4871 22.4131 13.2813 22.2011 13.15C21.9731 13.0087 21.64 13.0005 21.0002 13M17.8031 20H6.19691M17.8031 20C18.921 20 19.48 20 19.9074 19.7822C20.2837 19.5905 20.5905 19.2841 20.7822 18.9078C21.0002 18.48 21.0002 17.9199 21.0002 16.7998V13M6.19691 20H5.12109C4.40152 20 4.04075 20 3.79883 19.8501C3.58683 19.7187 3.43144 19.5129 3.36338 19.2729C3.34904 19.2224 3.34073 19.1694 3.33796 19.1122M6.19691 20C5.07899 20 4.5192 20 4.0918 19.7822C3.78624 19.6265 3.52721 19.3952 3.33796 19.1122M21.0002 13C20.9608 13 20.9203 13 20.8786 13H5.00028L3.58301 17.9604L3.58096 17.9674C3.42083 18.5278 3.32578 18.8605 3.33796 19.1122M21.0002 13L21.0002 9.19978C21.0002 8.07967 21.0002 7.51962 20.7822 7.0918C20.5905 6.71547 20.2839 6.40973 19.9076 6.21799C19.4798 6 18.9201 6 17.8 6H12M3.33796 19.1122C3.29413 19.0467 3.25404 18.9784 3.21799 18.9076C3 18.4798 3 17.9201 3 16.8V6M3 6H12M3 6C3 4.89543 3.89543 4 5 4H8.67452C9.1637 4 9.40886 4 9.63904 4.05526C9.84311 4.10425 10.0379 4.18526 10.2168 4.29492C10.4186 4.41857 10.5918 4.59182 10.9375 4.9375L12 6" stroke="currentColor" stroke-width="2" stroke-linecap="round" stroke-linejoin="round"/>
</g>
</svg>
