<svg width="24" height="24" viewBox="0 0 24 24" fill="none" xmlns="http://www.w3.org/2000/svg">
<path d="M18 22H6C4.89543 22 4 21.1046 4 20V3.99999C4 2.89542 4.89543 1.99999 6 1.99999H13C13.009 1.99882 13.018 1.99882 13.027 1.99999H13.033C13.0424 2.00294 13.0522 2.00495 13.062 2.00599C13.1502 2.01164 13.2373 2.02878 13.321 2.05699H13.336H13.351H13.363C13.3815 2.06991 13.3988 2.08429 13.415 2.09999C13.5239 2.14841 13.6232 2.21617 13.708 2.29999L19.708 8.29999C19.7918 8.38477 19.8596 8.48404 19.908 8.59299C19.917 8.61499 19.924 8.63599 19.931 8.65899L19.941 8.68699C19.9689 8.77038 19.9854 8.85717 19.99 8.94499C19.9909 8.95495 19.9932 8.96472 19.997 8.97399V8.97999C19.9986 8.98654 19.9996 8.99324 20 8.99999V20C20 20.5304 19.7893 21.0391 19.4142 21.4142C19.0391 21.7893 18.5304 22 18 22ZM15.542 14C15.0982 13.9773 14.6735 14.1828 14.416 14.545C14.1329 15.0093 13.9989 15.5492 14.032 16.092V16.968C14.0038 17.5047 14.1509 18.0361 14.451 18.482C14.728 18.83 15.1559 19.0229 15.6 19C15.8714 19.0029 16.1405 18.9505 16.391 18.846L16.412 18.837C16.642 18.7353 16.8438 18.5791 17 18.382V16.373H15.531V17.115H16.131V18.008L16.055 18.068C15.933 18.1502 15.788 18.1912 15.641 18.185C15.4081 18.2014 15.1857 18.0854 15.066 17.885C14.931 17.5807 14.8716 17.2482 14.893 16.916V16.033C14.8767 15.7161 14.9331 15.3997 15.058 15.108C15.1545 14.9191 15.3532 14.8046 15.565 14.816C15.7251 14.8031 15.8819 14.8664 15.988 14.987C16.1007 15.1784 16.1594 15.3968 16.158 15.619H17C17.003 15.1759 16.8588 14.7443 16.59 14.392C16.3148 14.115 15.9324 13.9719 15.543 14H15.542ZM11.284 15.746L12.543 18.933H13.4V14.067H12.545V17.262L11.282 14.067H10.42V18.933H11.282V15.746H11.284ZM7 14.067V18.933H7.862V17.222H8.437C8.82511 17.2423 9.2025 17.0909 9.469 16.808C9.73086 16.4915 9.86402 16.0881 9.842 15.678C9.86019 15.257 9.72559 14.8436 9.463 14.514C9.21393 14.2169 8.84137 14.0519 8.454 14.067H7ZM13 3.99999V8.99999H18L13 3.99999ZM8.454 16.4H7.862V14.885H8.462C8.6159 14.8875 8.75684 14.9717 8.832 15.106C8.93217 15.2816 8.98005 15.4821 8.97 15.684C8.98212 15.8721 8.9349 16.0592 8.835 16.219C8.74612 16.3391 8.60324 16.407 8.454 16.4Z" fill="black"/>
</svg>
