<svg width="24" height="24" viewBox="0 0 24 24" fill="none" xmlns="http://www.w3.org/2000/svg">
<path d="M18 22H6C4.89543 22 4 21.1046 4 20V3.99999C4 2.89542 4.89543 1.99999 6 1.99999H13C13.009 1.99882 13.018 1.99882 13.027 1.99999H13.033C13.0424 2.00294 13.0522 2.00495 13.062 2.00599C13.1502 2.01164 13.2373 2.02878 13.321 2.05699H13.336H13.351H13.363C13.3815 2.06991 13.3988 2.08429 13.415 2.09999C13.5239 2.14841 13.6232 2.21617 13.708 2.29999L19.708 8.29999C19.7918 8.38477 19.8596 8.48404 19.908 8.59299C19.917 8.61499 19.924 8.63599 19.931 8.65899L19.941 8.68699C19.9689 8.77038 19.9854 8.85717 19.99 8.94499C19.9909 8.95495 19.9932 8.96472 19.997 8.97399V8.97999C19.9986 8.98654 19.9996 8.99324 20 8.99999V20C20 20.5304 19.7893 21.0391 19.4142 21.4142C19.0391 21.7893 18.5304 22 18 22ZM14.027 17.4C14.0191 17.6965 14.088 17.99 14.227 18.252C14.359 18.4871 14.5554 18.6796 14.793 18.807C15.0395 18.9368 15.3144 19.0032 15.593 19C15.9679 19.0194 16.3354 18.8913 16.617 18.643C16.8795 18.3812 17.0187 18.0203 17 17.65C17.0137 17.3071 16.9076 16.9702 16.7 16.697C16.4393 16.4068 16.1079 16.1891 15.738 16.065C15.5428 15.9869 15.3635 15.8737 15.209 15.731C15.1143 15.6334 15.0609 15.503 15.06 15.367C15.0528 15.2191 15.1005 15.0738 15.194 14.959C15.2888 14.8542 15.4258 14.7976 15.567 14.805C15.7188 14.7966 15.8647 14.8645 15.956 14.986C16.0568 15.1388 16.1049 15.3203 16.093 15.503H17C17.0048 15.2319 16.9441 14.9636 16.823 14.721C16.7127 14.4983 16.5386 14.3135 16.323 14.19C15.7489 13.8797 15.0434 13.9527 14.545 14.374C14.2748 14.629 14.1288 14.9888 14.145 15.36C14.1396 15.6799 14.2456 15.9917 14.445 16.242C14.7136 16.5358 15.0505 16.7587 15.426 16.891C15.6158 16.9626 15.79 17.0702 15.939 17.208C16.0425 17.3334 16.0937 17.4938 16.082 17.656C16.082 18.017 15.921 18.2 15.603 18.2C15.4158 18.2186 15.2307 18.1482 15.103 18.01C14.9862 17.8283 14.9325 17.6132 14.95 17.398L14.027 17.4ZM10.584 17.4C10.5761 17.6965 10.645 17.99 10.784 18.252C10.916 18.4871 11.1124 18.6796 11.35 18.807C11.5965 18.9366 11.8715 19.003 12.15 19C12.5249 19.0194 12.8924 18.8913 13.174 18.643C13.434 18.38 13.5706 18.0192 13.55 17.65C13.5637 17.3071 13.4576 16.9702 13.25 16.697C12.9893 16.4068 12.6579 16.1891 12.288 16.065C12.0928 15.9869 11.9135 15.8737 11.759 15.731C11.6647 15.6331 11.6113 15.5029 11.61 15.367C11.6028 15.2191 11.6505 15.0738 11.744 14.959C11.8391 14.8539 11.9765 14.7973 12.118 14.805C12.2698 14.7966 12.4157 14.8645 12.507 14.986C12.6081 15.1386 12.6563 15.3203 12.644 15.503H13.557C13.5612 15.2319 13.5005 14.9638 13.38 14.721C13.2693 14.4986 13.0953 14.3139 12.88 14.19C12.6531 14.0611 12.3959 13.9955 12.135 14C11.7554 13.9871 11.3854 14.121 11.102 14.374C10.8318 14.629 10.6858 14.9888 10.702 15.36C10.6962 15.68 10.8023 15.9919 11.002 16.242C11.27 16.536 11.6067 16.759 11.982 16.891C12.1721 16.9626 12.3466 17.0703 12.496 17.208C12.5995 17.3334 12.6507 17.4938 12.639 17.656C12.639 18.017 12.478 18.2 12.159 18.2C11.9718 18.2186 11.7867 18.1482 11.659 18.01C11.5405 17.8296 11.4847 17.6153 11.5 17.4H10.584ZM8.6 14C8.14278 13.98 7.70432 14.1832 7.424 14.545C7.11486 14.9982 6.96566 15.5415 7 16.089V16.908C6.9663 17.4553 7.10932 17.9991 7.408 18.459C7.68871 18.8215 8.12912 19.0236 8.587 19C9.0081 19.0246 9.41986 18.8694 9.72 18.573C9.98969 18.2524 10.1411 17.8489 10.149 17.43V17.483V17.41V17.4C10.149 17.385 10.149 17.371 10.149 17.356V17.31H9.241C9.25219 17.5498 9.19829 17.7883 9.085 18C8.95843 18.1396 8.77211 18.2093 8.585 18.187C8.3739 18.2045 8.17154 18.0991 8.065 17.916C7.94178 17.5978 7.89088 17.2562 7.916 16.916V16C7.90068 15.6899 7.95608 15.3805 8.078 15.095C8.18209 14.9086 8.38523 14.8 8.598 14.817C8.78628 14.7951 8.97278 14.8704 9.093 15.017C9.20475 15.2355 9.25618 15.4799 9.242 15.725H10.16C10.1571 15.2628 10.0029 14.8142 9.721 14.448C9.43372 14.1377 9.02202 13.9731 8.6 14ZM13 3.99999V8.99999H18L13 3.99999Z" fill="black"/>
</svg>
