<svg width="24" height="24" viewBox="0 0 24 24" fill="none" xmlns="http://www.w3.org/2000/svg">
<path d="M6 4H12.5C13.381 4.00004 14.2425 4.25865 14.9779 4.74378C15.7132 5.2289 16.29 5.9192 16.6367 6.72907C16.9834 7.53894 17.0847 8.43276 16.9282 9.29969C16.7716 10.1666 16.3641 10.9685 15.756 11.606C16.4386 12.0013 17.0053 12.5692 17.3992 13.2526C17.7931 13.9361 18.0003 14.7112 18 15.5C18 16.0909 17.8836 16.6761 17.6575 17.2221C17.4313 17.768 17.0998 18.2641 16.682 18.682C16.2641 19.0998 15.768 19.4313 15.2221 19.6575C14.6761 19.8836 14.0909 20 13.5 20H6V18H7V6H6V4ZM9 11H12.5C13.163 11 13.7989 10.7366 14.2678 10.2678C14.7366 9.79893 15 9.16304 15 8.5C15 7.83696 14.7366 7.20107 14.2678 6.73223C13.7989 6.26339 13.163 6 12.5 6H9V11ZM9 13V18H13.5C14.163 18 14.7989 17.7366 15.2678 17.2678C15.7366 16.7989 16 16.163 16 15.5C16 14.837 15.7366 14.2011 15.2678 13.7322C14.7989 13.2634 14.163 13 13.5 13H9Z" fill="black"/>
</svg>
