<svg width="24" height="24" viewBox="0 0 24 24" fill="none" xmlns="http://www.w3.org/2000/svg">
<g id="Communication / Bell_Close">
<path id="Vector" d="M15 17V18C15 19.6569 13.6569 21 12 21C10.3431 21 9 19.6569 9 18V17M15 17H9M15 17H18.59C18.9725 17 19.1647 17 19.3196 16.9478C19.6155 16.848 19.848 16.6156 19.9478 16.3198C20.0002 16.1643 20.0002 15.9715 20.0002 15.5859C20.0002 15.4172 20 15.3329 19.9868 15.2524C19.9619 15.1004 19.9024 14.9563 19.8126 14.8312C19.7651 14.7651 19.7048 14.7048 19.5858 14.5858L19.1963 14.1963C19.0706 14.0706 19 13.9001 19 13.7224V10C19 6.134 15.866 2.99999 12 3C8.13401 3.00001 5 6.13401 5 10V13.7224C5 13.9002 4.92924 14.0706 4.80357 14.1963L4.41406 14.5858C4.29476 14.7051 4.23504 14.765 4.1875 14.8312C4.09766 14.9564 4.03815 15.1004 4.0132 15.2524C4 15.3329 4 15.4172 4 15.586C4 15.9715 4 16.1642 4.05245 16.3197C4.15225 16.6156 4.38431 16.848 4.68018 16.9478C4.83507 17 5.02701 17 5.40956 17H9M10 12L12 9.99998M12 9.99998L14 8M12 9.99998L10 8M12 9.99998L14 12" stroke="currentColor" stroke-width="2" stroke-linecap="round" stroke-linejoin="round"/>
</g>
</svg>
