<svg width="24" height="24" viewBox="0 0 24 24" fill="none" xmlns="http://www.w3.org/2000/svg">
<g id="Communication / Paper_Plane">
<path id="Vector" d="M10.3078 13.6923L15.1539 8.84619M20.1113 5.88867L16.0207 19.1833C15.6541 20.3747 15.4706 20.9707 15.1544 21.1683C14.8802 21.3396 14.5406 21.3683 14.2419 21.2443C13.8975 21.1014 13.618 20.5433 13.0603 19.428L10.4694 14.2461C10.3809 14.0691 10.3366 13.981 10.2775 13.9043C10.225 13.8363 10.1645 13.7749 10.0965 13.7225C10.0215 13.6647 9.93486 13.6214 9.76577 13.5369L4.57192 10.9399C3.45662 10.3823 2.89892 10.1032 2.75601 9.75879C2.63207 9.4601 2.66033 9.12023 2.83169 8.84597C3.02928 8.52974 3.62523 8.34603 4.81704 7.97932L18.1116 3.88867C19.0486 3.60038 19.5173 3.45635 19.8337 3.57253C20.1094 3.67373 20.3267 3.89084 20.4279 4.16651C20.544 4.48283 20.3999 4.95126 20.1119 5.88729L20.1113 5.88867Z" stroke="currentColor" stroke-width="2" stroke-linecap="round" stroke-linejoin="round"/>
</g>
</svg>
