<svg width="24" height="24" viewBox="0 0 24 24" fill="none" xmlns="http://www.w3.org/2000/svg">
<path d="M9.09386 21.006C8.46508 20.9719 7.8734 20.6977 7.44086 20.24C6.92346 19.7422 6.46174 19.1897 6.06386 18.592C5.44235 17.702 4.95106 16.7279 4.60486 15.699C4.21272 14.5922 4.00627 13.4282 3.99386 12.254C3.96373 11.1019 4.24937 9.96346 4.81986 8.96202C5.23743 8.24012 5.83305 7.63728 6.54986 7.21102C7.25874 6.78659 8.06767 6.55813 8.89386 6.54902C9.51668 6.58587 10.1287 6.72823 10.7039 6.97002C11.1624 7.17178 11.6451 7.31362 12.1399 7.39202C12.6859 7.27763 13.2194 7.11017 13.7329 6.89202C14.3405 6.65474 14.9839 6.52187 15.6359 6.49902C15.7229 6.49902 15.8089 6.49902 15.8919 6.50902C17.3214 6.55048 18.651 7.25221 19.4919 8.40902C18.1548 9.12387 17.3339 10.5303 17.3689 12.046C17.3556 13.1956 17.835 14.2959 18.6859 15.069C19.0688 15.4339 19.5146 15.7262 20.0019 15.932C19.9019 16.232 19.7869 16.522 19.6649 16.814C19.3875 17.4593 19.0455 18.0748 18.6439 18.651C18.2647 19.2282 17.8234 19.7621 17.3279 20.243C16.8755 20.6919 16.2725 20.9567 15.6359 20.986C15.0962 20.9621 14.5661 20.8355 14.0739 20.613C13.5431 20.3818 12.9726 20.2551 12.3939 20.24C11.7987 20.2517 11.2114 20.3777 10.6639 20.611C10.1909 20.8244 9.68561 20.9572 9.16886 21.004L9.09386 21.006ZM12.2439 6.49902C12.1689 6.49902 12.0939 6.49902 12.0189 6.49002C12.0031 6.37099 11.9947 6.25109 11.9939 6.13102C12.0266 5.13216 12.4169 4.17826 13.0939 3.44302C13.4722 3.0206 13.9308 2.67762 14.4429 2.43402C14.9207 2.18802 15.443 2.04012 15.9789 1.99902C15.9939 2.13002 15.9939 2.25802 15.9939 2.38002C15.9797 3.36317 15.6103 4.308 14.9539 5.04002C14.3104 5.9028 13.3184 6.43689 12.2439 6.49902Z" fill="black"/>
</svg>
