<svg width="24" height="24" viewBox="0 0 24 24" fill="none" xmlns="http://www.w3.org/2000/svg">
<path d="M19.625 22L17.583 20.2L16.432 19.13L15.215 18L15.715 19.759H4.94701C3.86863 19.7551 2.99725 18.8784 3.00001 17.8V4.957C2.99835 3.87939 3.86941 3.00386 4.94701 3H17.678C18.7556 3.00386 19.6267 3.87939 19.625 4.957V22ZM15.1 13.508C14.6784 14.0735 14.0713 14.4728 13.385 14.636C13.667 14.996 14.007 15.403 14.01 15.407C15.1571 15.4312 16.2433 14.8917 16.917 13.963C16.8825 12.0377 16.4149 10.1449 15.549 8.425C14.7866 7.82677 13.8586 7.47763 12.891 7.425H12.88L12.747 7.577C13.6113 7.80915 14.4173 8.22 15.113 8.783C14.2278 8.29641 13.2565 7.98665 12.253 7.871C11.6152 7.80017 10.9713 7.80654 10.335 7.89C10.29 7.89089 10.2452 7.89557 10.201 7.904H10.173C9.42736 7.98985 8.69982 8.19232 8.01701 8.504C7.67501 8.661 7.46501 8.775 7.45601 8.779C7.44701 8.783 7.45601 8.779 7.45601 8.772C8.1939 8.19164 9.04518 7.7723 9.95501 7.541L9.85501 7.427H9.84901C8.88141 7.47976 7.95344 7.82888 7.19101 8.427C6.32192 10.1457 5.85417 12.0393 5.82301 13.965C6.48835 14.8999 7.57601 15.4415 8.72301 15.409C8.72301 15.409 9.08101 14.973 9.36001 14.62C8.69101 14.4519 8.10153 14.0558 7.69301 13.5C7.70001 13.505 7.79901 13.572 7.95901 13.66C7.96976 13.6726 7.98305 13.6829 7.99801 13.69C8.01068 13.6988 8.02406 13.7065 8.03801 13.713C8.05383 13.7202 8.0689 13.7289 8.08301 13.739C8.30612 13.862 8.53771 13.9689 8.77601 14.059C9.22909 14.2384 9.69774 14.3756 10.176 14.469C10.5948 14.5479 11.0199 14.5881 11.446 14.589C11.8455 14.589 12.2442 14.5521 12.637 14.479C13.1101 14.3959 13.5721 14.259 14.014 14.071C14.3958 13.9242 14.76 13.7353 15.1 13.508ZM13.062 13.081C12.6269 13.1189 12.2132 12.8859 12.0201 12.4942C11.8271 12.1025 11.8942 11.6324 12.1893 11.3104C12.4844 10.9885 12.9469 10.8807 13.3539 11.039C13.7609 11.1973 14.029 11.5893 14.029 12.026C14.051 12.5839 13.6188 13.0551 13.061 13.081H13.062ZM9.59401 13.081C9.04686 13.0333 8.62697 12.5752 8.62697 12.026C8.62697 11.4768 9.04686 11.0187 9.59401 10.971C9.84606 10.9718 10.087 11.0746 10.262 11.256C10.4606 11.4621 10.5686 11.7389 10.562 12.025C10.5852 12.5839 10.1518 13.0561 9.59301 13.081H9.59401Z" fill="black"/>
</svg>
