<svg width="24" height="24" viewBox="0 0 24 24" fill="none" xmlns="http://www.w3.org/2000/svg">
<path d="M3 3H21V21H3V3ZM19.525 16.707C19.394 15.886 18.859 15.196 17.273 14.552C16.721 14.293 16.108 14.114 15.924 13.698C15.856 13.45 15.846 13.316 15.89 13.169C16.003 12.685 16.577 12.54 17.027 12.674C17.32 12.764 17.59 12.989 17.759 13.35C18.534 12.843 18.534 12.843 19.075 12.506C18.872 12.192 18.771 12.055 18.636 11.92C18.163 11.392 17.533 11.122 16.51 11.145L15.982 11.212C15.475 11.336 14.991 11.607 14.699 11.966C13.844 12.934 14.091 14.621 15.126 15.32C16.149 16.085 17.647 16.253 17.838 16.973C18.018 17.851 17.186 18.132 16.363 18.031C15.756 17.895 15.418 17.592 15.047 17.029L13.675 17.817C13.832 18.176 14.012 18.334 14.282 18.649C15.587 19.965 18.85 19.898 19.435 17.895C19.456 17.828 19.615 17.367 19.491 16.658L19.525 16.707ZM12.788 11.273H11.102C11.102 12.726 11.095 14.171 11.095 15.627C11.095 16.551 11.142 17.399 10.991 17.66C10.744 18.177 10.105 18.111 9.816 18.019C9.519 17.873 9.368 17.67 9.193 17.378C9.146 17.3 9.111 17.232 9.098 17.232L7.73 18.076C7.959 18.549 8.293 18.955 8.724 19.213C9.365 19.596 10.226 19.72 11.128 19.518C11.716 19.348 12.223 18.999 12.486 18.459C12.87 17.762 12.788 16.906 12.785 15.95C12.793 14.409 12.785 12.867 12.785 11.315L12.788 11.273Z" fill="black"/>
</svg>
