<svg width="24" height="24" viewBox="0 0 24 24" fill="none" xmlns="http://www.w3.org/2000/svg">
<path d="M21 21H3V3H21V21ZM9.1 17.232L7.732 18.076C7.9452 18.5439 8.29075 18.9392 8.726 19.213C9.19884 19.484 9.7361 19.6222 10.281 19.613C10.5668 19.611 10.8515 19.5775 11.13 19.513C11.7126 19.3697 12.2065 18.9849 12.488 18.455C12.7685 17.795 12.8719 17.0732 12.788 16.361C12.788 16.225 12.788 16.086 12.788 15.946C12.793 14.919 12.788 13.874 12.788 12.862C12.788 12.346 12.788 11.829 12.788 11.311V11.269H11.1C11.1 11.995 11.1 12.7193 11.1 13.442C11.1 14.169 11.1 14.895 11.1 15.623C11.1 15.809 11.1 15.991 11.1 16.166C11.1502 16.6651 11.114 17.1692 10.993 17.656C10.8477 17.9364 10.5488 18.1026 10.234 18.078C10.093 18.0776 9.95281 18.0564 9.818 18.015C9.54717 17.8734 9.32884 17.6488 9.195 17.374L9.162 17.318C9.131 17.265 9.11 17.228 9.1 17.228V17.232ZM15.049 17.032L13.676 17.819C13.7884 18.065 13.9435 18.2891 14.134 18.481C14.181 18.533 14.234 18.589 14.283 18.651C14.9544 19.2514 15.8318 19.5692 16.732 19.538C17.8969 19.6528 18.9975 18.9839 19.432 17.897V17.889C19.5458 17.4895 19.564 17.0688 19.485 16.661L19.519 16.71C19.371 15.781 18.698 15.136 17.267 14.555C17.156 14.503 17.041 14.455 16.929 14.405C16.484 14.213 16.064 14.033 15.918 13.705C15.8529 13.5363 15.8411 13.3517 15.884 13.176C15.9875 12.8241 16.3271 12.5959 16.692 12.633C16.8034 12.633 16.9142 12.6492 17.021 12.681C17.3501 12.7919 17.6163 13.0378 17.753 13.357C18.528 12.85 18.528 12.85 19.069 12.513C18.9452 12.3017 18.798 12.1052 18.63 11.927C18.1167 11.3767 17.3801 11.0909 16.63 11.151H16.51L15.982 11.218C15.4861 11.3293 15.0375 11.5929 14.699 11.972C14.3011 12.4696 14.1219 13.1073 14.2023 13.7394C14.2828 14.3715 14.6161 14.9439 15.126 15.326C15.564 15.6258 16.0364 15.8718 16.533 16.059C17.174 16.329 17.727 16.559 17.839 16.98C17.9068 17.2238 17.8568 17.4853 17.704 17.687C17.4325 17.9551 17.057 18.0903 16.677 18.057C16.5724 18.0567 16.4678 18.05 16.364 18.037C15.7985 17.9103 15.317 17.5418 15.047 17.029L15.049 17.032Z" fill="black"/>
</svg>
