<svg width="24" height="24" viewBox="0 0 24 24" fill="none" xmlns="http://www.w3.org/2000/svg">
<path d="M12.954 11.616L15.911 8.65901L6.36 3.29101C5.727 2.94901 5.134 2.90101 4.614 3.27501L12.954 11.616ZM16.415 15.078L19.489 13.349C20.089 13.013 20.418 12.537 20.418 12.009C20.418 11.482 20.089 11.005 19.49 10.669L16.707 9.10601L13.574 12.238L16.415 15.078ZM4.1 4.00201C4.036 4.19901 4 4.41901 4 4.66001V19.365C4 19.746 4.084 20.074 4.236 20.335L12.333 12.237L4.1 4.00201ZM12.954 12.857L4.902 20.91C5.056 20.969 5.222 21 5.397 21C5.709 21 6.034 20.908 6.365 20.724L15.62 15.527L12.954 12.857Z" fill="black"/>
</svg>
