<svg width="24" height="24" viewBox="0 0 24 24" fill="none" xmlns="http://www.w3.org/2000/svg">
<path d="M12 21H11.949C11.8 20.9888 11.6583 20.9311 11.544 20.835C11.5126 20.8084 11.4839 20.7789 11.458 20.747L2.16797 9.673C2.09553 9.59022 2.04438 9.49102 2.01897 9.384C2.01897 9.371 2.01297 9.358 2.00997 9.345C1.98164 9.17748 2.01733 9.00543 2.10997 8.863L2.12897 8.835L5.75897 3.7C5.77197 3.68 5.78497 3.662 5.79997 3.646C5.90615 3.51982 6.05348 3.43518 6.21597 3.407C6.24378 3.40276 6.27184 3.40042 6.29997 3.4L11.95 3H12H12.049L17.7 3.4C17.7312 3.40177 17.7623 3.40578 17.793 3.412C17.9713 3.44519 18.1297 3.54629 18.235 3.694L21.872 8.838C21.8795 8.84797 21.8865 8.85831 21.893 8.869C21.9762 8.99649 22.0139 9.14838 22 9.3C21.9957 9.33886 21.9884 9.37732 21.978 9.415C21.9506 9.51087 21.9021 9.59938 21.836 9.674L12.543 20.746C12.5275 20.7654 12.5108 20.7838 12.493 20.801C12.4346 20.8577 12.3669 20.9041 12.293 20.938C12.2323 20.9654 12.1679 20.9839 12.102 20.993C12.0682 20.9977 12.0341 21 12 21ZM7.94597 9.911L12 18.663L16.054 9.911H7.94597ZM17.586 9.911L14.824 15.874L19.824 9.911H17.586ZM4.17297 9.911L9.17297 15.874L6.41397 9.911H4.17297ZM18.168 5.994L17.908 8.545H19.97L18.168 5.994ZM12 4.869L8.87197 8.545H15.128L12 4.869ZM5.83197 5.994L4.02997 8.545H6.09197L5.83197 5.994ZM13.477 4.471L16.551 8.084L16.9 4.711L13.477 4.471ZM10.521 4.471L7.09997 4.711L7.44497 8.084L10.521 4.471Z" fill="black"/>
</svg>
