<svg width="24" height="24" viewBox="0 0 24 24" fill="none" xmlns="http://www.w3.org/2000/svg">
<path fill-rule="evenodd" clip-rule="evenodd" d="M11.9502 3.00174C11.9833 2.99942 12.0166 2.99942 12.0497 3.00174L17.7011 3.39702C17.7324 3.39873 17.7634 3.4025 17.7939 3.40826C17.8952 3.4272 17.9882 3.46733 18.0682 3.52349C18.1323 3.56838 18.1893 3.62437 18.2359 3.6903L21.8729 8.83455C21.88 8.84453 21.8869 8.85472 21.8936 8.86512C21.9792 8.99873 22.0119 9.15128 21.9962 9.29822C21.9921 9.33729 21.9845 9.37596 21.9736 9.41377C21.9464 9.50784 21.8987 9.59659 21.8316 9.67293L12.5429 20.7459C12.527 20.7653 12.51 20.7837 12.4921 20.8011C12.4339 20.8578 12.3659 20.904 12.2915 20.9375C12.2314 20.9646 12.1671 20.9834 12.1003 20.9929C12.0674 20.9976 12.0339 21 12 21C11.9829 21 11.9659 20.9994 11.949 20.9982C11.8722 20.9927 11.798 20.9749 11.7289 20.9463C11.6613 20.9184 11.5986 20.8802 11.5432 20.8332C11.512 20.8067 11.4831 20.7775 11.4569 20.7457L2.16838 9.67296C2.09429 9.58862 2.04375 9.4891 2.01856 9.384C2.01537 9.3707 2.01259 9.35731 2.01022 9.34385C1.98175 9.18233 2.01226 9.01074 2.10798 8.86268C2.11413 8.85315 2.1205 8.84379 2.12709 8.83462L5.75949 3.69686C5.77164 3.67928 5.7846 3.66226 5.79834 3.64588C5.90117 3.52319 6.04722 3.43559 6.21575 3.4065C6.24302 3.40175 6.27063 3.39859 6.29846 3.39704L11.9502 3.00174ZM13.4779 4.47145L16.8966 4.71057L16.5521 8.08385L13.4779 4.47145ZM10.5221 4.47145L7.10338 4.71057L7.44787 8.08387L10.5221 4.47145ZM8.87217 8.54453H15.1279L12 4.86913L8.87217 8.54453ZM6.09261 8.54453L5.83219 5.99445L4.02928 8.54453H6.09261ZM6.41389 9.91087L9.17609 15.8742L4.17369 9.91087H6.41389ZM14.8239 15.8742L19.8263 9.91087H17.5861L14.8239 15.8742ZM16.0539 9.91087L12 18.6629L7.94606 9.91087H16.0539ZM17.9074 8.54453H19.9707L18.1678 5.99445L17.9074 8.54453Z" fill="black"/>
</svg>
