<svg width="24" height="24" viewBox="0 0 24 24" fill="none" xmlns="http://www.w3.org/2000/svg">
<path d="M12.006 19.012H11.986C11.924 19.012 5.721 19 4.156 18.575C3.29543 18.3432 2.62335 17.6707 2.392 16.81C2.11058 15.2224 1.97469 13.6123 1.986 12C1.97873 10.385 2.11831 8.77271 2.403 7.183C2.64071 6.32151 3.30983 5.64595 4.169 5.4C5.691 5 11.723 5 11.979 5H12C12.063 5 18.282 5.012 19.831 5.437C20.6898 5.67001 21.3605 6.3411 21.593 7.2C21.8834 8.79354 22.0197 10.4113 22 12.031C22.007 13.644 21.8671 15.2543 21.582 16.842C21.3477 17.7016 20.6752 18.3726 19.815 18.605C18.295 19.008 12.262 19.012 12.006 19.012ZM10.006 9.005L10.001 15.005L15.213 12.005L10.006 9.005Z" fill="black"/>
</svg>
