<svg width="24" height="24" viewBox="0 0 24 24" fill="none" xmlns="http://www.w3.org/2000/svg">
<path d="M8.43832 11.8L10.5283 13.89L15.1283 9.28999L16.5383 10.7L10.5283 16.71L7.02832 13.21L8.43832 11.8Z" fill="#2E3A59"/>
<path fill-rule="evenodd" clip-rule="evenodd" d="M12 4C15.7485 4 18.8948 6.57805 19.7626 10.0578C22.1621 10.425 24 12.4979 24 15C24 17.7614 21.7614 20 19 20H6C2.68629 20 0 17.3137 0 14C0 11.0182 2.17514 8.54439 5.02529 8.07877C6.39696 5.64419 9.00647 4 12 4ZM5.34774 10.0526L6.29608 9.89768L6.76775 9.06051C7.79944 7.22938 9.75746 6 12 6C14.8087 6 17.1711 7.93171 17.822 10.5418L18.1442 11.8334L19.4601 12.0348C20.898 12.2548 22 13.5005 22 15C22 16.6569 20.6569 18 19 18H6C3.79086 18 2 16.2091 2 14C2 12.0141 3.44924 10.3628 5.34774 10.0526Z" fill="#2E3A59"/>
</svg>
