<svg width="24" height="24" viewBox="0 0 24 24" fill="none" xmlns="http://www.w3.org/2000/svg">
<path fill-rule="evenodd" clip-rule="evenodd" d="M10.75 22H4.91667C3.75 22 2.83333 21.05 2.83333 19.9167V10.2167C2.28167 9.8225 2 9.21583 2 8.59917C2 8.28583 2.07417 7.97417 2.24083 7.65833C3.12833 6.07667 4.035 4.50583 4.96167 2.94667C5.34667 2.3325 5.97083 2 6.66583 2C7.195 2 7.47583 2.17 7.87 2.39917C8.42167 2.72083 15.37 6.85917 18.2967 8.6C18.3692 8.64333 21.1017 10.2567 21.1708 10.3042C21.7233 10.7125 22 11.3017 22 11.9158C22 12.2283 21.9233 12.5367 21.7542 12.8575C20.8675 14.44 19.96 16.0108 19.0333 17.57C18.5525 18.3367 17.6875 18.645 16.9533 18.4767C16.6267 18.6717 12.0983 21.6017 11.7433 21.7833C11.3992 21.96 11.1083 22 10.75 22ZM4.5 13.0308V19.9167C4.5 20.145 4.68417 20.3333 4.91667 20.3333H8.74C7.30667 17.9117 5.8925 15.4775 4.5 13.0308ZM5.83833 11.9992C5.8825 12.0758 10.5725 20.1633 10.61 20.215C10.7 20.3308 10.8592 20.3658 10.9892 20.2967C11.1258 20.22 15.2233 17.5875 15.2233 17.5875C14.6908 17.2733 8.43667 13.545 5.83833 11.9992ZM6.3875 3.80833C5.62667 5.02167 3.72167 8.4125 3.69167 8.48333C3.63333 8.62583 3.685 8.78833 3.81583 8.87C3.98333 8.97 17.1683 16.8258 17.2967 16.8458C17.4225 16.8642 17.5442 16.8083 17.6108 16.7008C18.3958 15.3808 20.2825 12.0758 20.3042 12.0333C20.3617 11.89 20.31 11.7275 20.1792 11.6458C20.0117 11.5458 6.86 3.73 6.77083 3.69083C6.62083 3.62917 6.46667 3.68917 6.3875 3.80833ZM7.685 6.05417C8.605 6.05417 9.35167 6.80167 9.35167 7.72083C9.35167 8.64083 8.605 9.3875 7.685 9.3875C6.765 9.3875 6.01833 8.64083 6.01833 7.72083C6.01833 6.80167 6.765 6.05417 7.685 6.05417Z" fill="#2E3A59"/>
</svg>
