<svg width="24" height="24" viewBox="0 0 24 24" fill="none" xmlns="http://www.w3.org/2000/svg">
<path d="M12.7071 15.5355L14.1214 16.9497L12 19.0711C10.0474 21.0237 6.88159 21.0237 4.92897 19.0711C2.97634 17.1184 2.97634 13.9526 4.92897 12L7.05029 9.87867L8.4645 11.2929L6.34318 13.4142C5.17161 14.5858 5.17161 16.4853 6.34318 17.6568C7.51475 18.8284 9.41425 18.8284 10.5858 17.6568L12.7071 15.5355Z" fill="#2E3A59"/>
<path d="M11.2929 8.46445L9.87871 7.05024L12 4.92892C13.9527 2.9763 17.1185 2.9763 19.0711 4.92892C21.0237 6.88154 21.0237 10.0474 19.0711 12L16.9498 14.1213L15.5356 12.7071L17.6569 10.5858C18.8285 9.4142 18.8285 7.51471 17.6569 6.34313C16.4853 5.17156 14.5858 5.17156 13.4142 6.34313L11.2929 8.46445Z" fill="#2E3A59"/>
<path d="M14.8285 7.75735L7.75739 14.8284L9.17161 16.2426L16.2427 9.17156L14.8285 7.75735Z" fill="#2E3A59"/>
</svg>
