<svg width="24" height="24" viewBox="0 0 24 24" fill="none" xmlns="http://www.w3.org/2000/svg">
<path d="M11.971 22C11.6701 22 11.3693 22 11.0684 22C5.55246 21.4975 1.54087 16.5729 2.04232 11.0452C2.44348 6.22111 6.25449 2.40201 11.0684 2C11.4696 2 11.8707 2.20101 12.0713 2.50251C12.2719 2.80402 12.2719 3.30653 11.971 3.60804C10.9681 4.91457 10.6672 6.52261 10.8678 8.13065C11.0684 9.73869 11.971 11.1457 13.2748 12.0503C15.3809 13.6583 18.2893 13.6583 20.3954 12.0503C20.6962 11.8492 21.0974 11.7487 21.4986 11.9497C21.7994 12.1508 22 12.5528 22 12.9548C21.7994 15.6683 20.4957 18.0804 18.3896 19.7889C16.4841 21.196 14.2777 22 11.971 22ZM9.1629 4.31156C6.25449 5.31658 4.24869 7.92965 3.94783 11.1457C3.54667 15.5678 6.75594 19.4874 11.1687 19.8894C13.2748 20.0905 15.3809 19.4874 16.9855 18.0804C18.0887 17.1759 18.891 15.9698 19.3925 14.6633C16.8852 15.5678 14.0771 15.1658 11.8707 13.5578C10.1658 12.2513 9.06261 10.4422 8.66145 8.33166C8.56116 6.92462 8.76174 5.61809 9.1629 4.31156Z" fill="#2E3A59"/>
</svg>
