<svg width="24" height="24" viewBox="0 0 24 24" fill="none" xmlns="http://www.w3.org/2000/svg">
<path d="M20.9987 20.4866L4.02887 3.51674L4.03018 3.51543L4.02945 3.5147L2.61523 4.92891L6.18237 8.49605C6.05841 9.12651 6.00001 9.79982 6.00001 10.5V16L4.00001 17V19H16.6863L19.5858 21.8995L20.9987 20.4866Z" fill="#2E3A59"/>
<path d="M18 14.6595V10.5C18 7.43 16.86 4.86 14 4.18V2H10V4.18C9.3354 4.33747 8.7641 4.59575 8.27853 4.93797L18 14.6595Z" fill="#2E3A59"/>
<path d="M14 20C14 21.1 13.1 22 12 22C10.89 22 10 21.1 10 20H14Z" fill="#2E3A59"/>
</svg>
