<svg width="24" height="24" viewBox="0 0 24 24" fill="none" xmlns="http://www.w3.org/2000/svg">
<path d="M9.67 14.001C10.2228 14.001 10.671 13.5528 10.671 13C10.671 12.4472 10.2228 11.999 9.67 11.999C9.11716 11.999 8.669 12.4472 8.669 13C8.669 13.5528 9.11716 14.001 9.67 14.001Z" fill="#2E3A59"/>
<path d="M14.09 15.391C13.482 15.826 12.746 16.041 12 16C11.256 16.034 10.521 15.811 9.919 15.37C9.82 15.289 9.677 15.289 9.577 15.37C9.462 15.465 9.445 15.635 9.54 15.75C10.25 16.285 11.122 16.559 12.011 16.52C12.898 16.559 13.771 16.287 14.48 15.75V15.79C14.589 15.684 14.591 15.505 14.486 15.394C14.377 15.284 14.2 15.282 14.09 15.391ZM14.299 12.04C13.747 12.04 13.3 12.488 13.3 13.041C13.3 13.593 13.747 14.04 14.299 14.04L14.291 14.079C14.307 14.081 14.324 14.079 14.342 14.079C14.893 14.058 15.321 13.592 15.3 13.041C15.3 12.488 14.854 12.04 14.299 12.04Z" fill="#2E3A59"/>
<path d="M12 2C6.479 2 2 6.477 2 12C2 17.521 6.479 22 12 22C17.521 22 22 17.521 22 12C22 6.477 17.521 2 12 2ZM17.859 13.33C17.871 13.476 17.871 13.623 17.859 13.769C17.859 16.009 15.25 17.831 12.029 17.831C8.808 17.831 6.199 16.011 6.199 13.769C6.187 13.623 6.187 13.476 6.199 13.33C6.054 13.264 5.924 13.175 5.807 13.066C5.22 12.513 5.193 11.588 5.744 11.003C6.296 10.415 7.221 10.387 7.807 10.94C8.959 10.159 10.316 9.731 11.706 9.71L12.449 6.24C12.449 6.24 12.449 6.238 12.449 6.236C12.487 6.069 12.652 5.964 12.82 6L15.269 6.49C15.429 6.215 15.709 6.032 16.027 5.998C16.577 5.939 17.068 6.336 17.129 6.886C17.188 7.435 16.791 7.928 16.24 7.987C15.691 8.046 15.199 7.649 15.138 7.1L13 6.65L12.351 9.77C13.726 9.799 15.062 10.227 16.201 11C16.46 10.752 16.8 10.607 17.158 10.594C17.965 10.565 18.64 11.194 18.67 12C18.68 12.563 18.363 13.08 17.859 13.33Z" fill="#2E3A59"/>
</svg>
