<svg width="24" height="24" viewBox="0 0 24 24" fill="none" xmlns="http://www.w3.org/2000/svg">
<path fill-rule="evenodd" clip-rule="evenodd" d="M14.3764 12.4769C16.0463 10.1337 15.8302 6.85958 13.7279 4.75736C11.3848 2.41421 7.5858 2.41421 5.24265 4.75736C2.8995 7.1005 2.8995 10.8995 5.24265 13.2426C7.34488 15.3449 10.619 15.561 12.9622 13.8911L18.6777 19.6066L20.0919 18.1924L14.3764 12.4769ZM12.3137 6.17157C13.8758 7.73367 13.8758 10.2663 12.3137 11.8284C10.7516 13.3905 8.21896 13.3905 6.65686 11.8284C5.09477 10.2663 5.09477 7.73367 6.65686 6.17157C8.21896 4.60948 10.7516 4.60948 12.3137 6.17157Z" fill="#2E3A59"/>
</svg>
