<svg width="24" height="24" viewBox="0 0 24 24" fill="none" xmlns="http://www.w3.org/2000/svg">
<path d="M6.99305 12C6.99305 14.761 9.23905 17.007 12 17.007C14.761 17.007 17.007 14.761 17.007 12C17.007 9.239 14.761 6.993 12 6.993C9.23905 6.993 6.99305 9.239 6.99305 12ZM12 8.993C13.658 8.993 15.007 10.342 15.007 12C15.007 13.658 13.658 15.007 12 15.007C10.342 15.007 8.99305 13.658 8.99305 12C8.99305 10.342 10.342 8.993 12 8.993ZM10.998 19H12.998V22H10.998V19ZM10.998 2H12.998V5H10.998V2ZM1.99805 11H4.99805V13H1.99805V11ZM18.998 11H21.998V13H18.998V11Z" fill="#2E3A59"/>
<path d="M4.21909 18.3634L6.33978 16.2414L7.75442 17.6552L5.63373 19.7772L4.21909 18.3634Z" fill="#2E3A59"/>
<path d="M16.2403 6.34358L18.3623 4.22152L19.7765 5.63571L17.6545 7.75777L16.2403 6.34358Z" fill="#2E3A59"/>
<path d="M6.34178 7.75858L4.22109 5.63663L5.63573 4.22284L7.75642 6.34479L6.34178 7.75858Z" fill="#2E3A59"/>
<path d="M19.7758 18.3635L18.3616 19.7778L16.2396 17.6558L17.6538 16.2415L19.7758 18.3635Z" fill="#2E3A59"/>
</svg>
