<svg width="24" height="24" viewBox="0 0 24 24" fill="none" xmlns="http://www.w3.org/2000/svg">
<path fill-rule="evenodd" clip-rule="evenodd" d="M22 12C22 17.5228 17.5228 22 12 22C6.47715 22 2 17.5228 2 12C2 6.47715 6.47715 2 12 2C17.5228 2 22 6.47715 22 12ZM18.056 17.2275C19.062 16.0631 19.7379 14.6054 19.9381 13H13.8284L18.056 17.2275ZM16.5683 18.5683C15.2731 19.4708 13.6983 20 12 20C7.58172 20 4 16.4183 4 12C4 7.92038 7.05369 4.55399 11 4.06189V12.3787C11 12.7765 11.158 13.158 11.4393 13.4393L16.5683 18.5683ZM13 11H19.9381C19.4869 7.38128 16.6187 4.51314 13 4.06189V11Z" fill="black"/>
</svg>
