<svg width="24" height="24" viewBox="0 0 24 24" fill="none" xmlns="http://www.w3.org/2000/svg">
<path d="M18.75 3H5.25C4.007 3 3 4.007 3 5.25V18.75C3 19.992 4.007 21 5.25 21H18.75C19.992 21 21 19.992 21 18.75V5.25C21 4.007 19.992 3 18.75 3ZM10.83 16.635C10.83 17.231 10.346 17.715 9.75 17.715H6.42C5.823 17.715 5.34 17.231 5.34 16.635V6.42C5.34 5.823 5.823 5.34 6.42 5.34H9.75C10.346 5.34 10.83 5.823 10.83 6.42V16.635ZM18.66 12.135C18.66 12.731 18.177 13.215 17.58 13.215H14.25C13.654 13.215 13.17 12.731 13.17 12.135V6.42C13.17 5.823 13.654 5.34 14.25 5.34H17.58C18.177 5.34 18.66 5.823 18.66 6.42V12.135Z" fill="#2E3A59"/>
</svg>
