<svg width="24" height="24" viewBox="0 0 24 24" fill="none" xmlns="http://www.w3.org/2000/svg">
<path d="M11.26 17.379C11.5253 17.5957 11.7783 17.8023 12 18C12.2161 17.8087 12.4616 17.6086 12.7191 17.3988C13.9018 16.4347 15.3375 15.2645 15.3375 13.7984C15.3375 12.7913 14.5298 12 13.5019 12C12.9212 12 12.3638 12.2481 12 12.6667C11.6362 12.2481 11.0789 12 10.4982 12C9.47021 12 8.66254 12.7913 8.66254 13.7984C8.66254 15.2578 10.0824 16.4173 11.26 17.379Z" fill="black"/>
<path fill-rule="evenodd" clip-rule="evenodd" d="M4 11.4142C4 11.149 4.10536 10.8946 4.29289 10.7071L11.2929 3.70708C11.6834 3.31655 12.3166 3.31655 12.7071 3.70708L19.7071 10.7071C19.8946 10.8946 20 11.149 20 11.4142V21C20 21.5523 19.5523 22 19 22H5C4.44772 22 4 21.5523 4 21V11.4142ZM12 5.8284L18 11.8284V20H6V11.8284L12 5.8284Z" fill="black"/>
</svg>
