<svg width="24" height="24" viewBox="0 0 24 24" fill="none" xmlns="http://www.w3.org/2000/svg">
<path d="M18.8401 20.999H4.3811V14.599H5.9811V19.399H17.2401V14.599H18.8401V20.999ZM15.6401 17.799H7.5811V16.199H15.6361V17.799H15.6401ZM15.6401 15.799L7.7811 14.16L8.1191 12.608L15.9801 14.25L15.6371 15.799H15.6401ZM16.0791 13.762L8.7991 10.362V10.356L9.4731 8.89902L16.7541 12.299L16.0811 13.763L16.0791 13.762ZM17.0021 11.917L10.8321 6.77702H10.8411L11.8541 5.56302L18.0161 10.699L16.9991 11.918L17.0021 11.917ZM18.3101 10.417L13.5031 3.96802L14.8131 2.99902L19.6191 9.45002L18.3071 10.421L18.3101 10.417Z" fill="black"/>
</svg>
