<svg width="24" height="24" viewBox="0 0 24 24" fill="none" xmlns="http://www.w3.org/2000/svg">
<path d="M10 2H13.6458C12.9333 2.79613 12.5 3.84747 12.5 5C12.5 7.48528 14.5147 9.5 17 9.5C17.3252 9.5 17.6423 9.46551 17.9479 9.39998C17.983 9.75751 18 10.125 18 10.5V16L20 17V19H4V17L6 16V10.5C6 7.42 7.13 4.86 10 4.18V2Z" fill="#2E3A59"/>
<path d="M14 5C14 4.72524 14.0369 4.45911 14.1061 4.2063C14.4541 2.93461 15.6179 2 17 2C18.6569 2 20 3.34315 20 5C20 6.42292 19.0094 7.61446 17.6802 7.92257C17.4616 7.97322 17.2339 8 17 8C15.3431 8 14 6.65685 14 5Z" fill="#2E3A59"/>
<path d="M14 20C14 21.1 13.1 22 12 22C10.89 22 10 21.1 10 20H14Z" fill="#2E3A59"/>
</svg>
