<svg width="24" height="24" viewBox="0 0 24 24" fill="none" xmlns="http://www.w3.org/2000/svg">
<path d="M13 13V9.99997H11V13H8V15H11V18H13V15H16V13H13Z" fill="black"/>
<path fill-rule="evenodd" clip-rule="evenodd" d="M4 11.4142C4 11.149 4.10536 10.8946 4.29289 10.7071L11.2929 3.70708C11.6834 3.31655 12.3166 3.31655 12.7071 3.70708L19.7071 10.7071C19.8946 10.8946 20 11.149 20 11.4142V21C20 21.5523 19.5523 22 19 22H5C4.44772 22 4 21.5523 4 21V11.4142ZM12 5.8284L18 11.8284V20H6V11.8284L12 5.8284Z" fill="black"/>
</svg>
