<svg width="24" height="24" viewBox="0 0 24 24" fill="none" xmlns="http://www.w3.org/2000/svg">
<path d="M11 10H13V15H11V10Z" fill="black"/>
<path d="M12 16C11.4477 16 11 16.4477 11 17C11 17.5523 11.4477 18 12 18C12.5523 18 13 17.5523 13 17C13 16.4477 12.5523 16 12 16Z" fill="black"/>
<path fill-rule="evenodd" clip-rule="evenodd" d="M2.73441 21.0021C1.96407 21.0021 1.48301 20.1677 1.86898 19.501L11.1345 3.49689C11.5197 2.8316 12.4802 2.8316 12.8654 3.49689L22.1309 19.501C22.5169 20.1677 22.0358 21.0021 21.2655 21.0021H2.73441ZM19.5311 19.0021L12 5.99379L4.46885 19.0021H19.5311Z" fill="black"/>
<path d="M11 16H13V18H11V16Z" fill="black"/>
</svg>
