<svg width="24" height="24" viewBox="0 0 24 24" fill="none" xmlns="http://www.w3.org/2000/svg">
<g id="Environment / Coffe_To_Go">
<path id="Vector" d="M6.68604 15H17.3146M6.51465 13H17.4861M7.74316 7H16.2571M7.74316 7C7.13829 7 6.8358 7 6.61279 7.12093C6.41686 7.22718 6.26205 7.3963 6.17292 7.60059C6.07151 7.83303 6.0973 8.13407 6.14893 8.73633L6.94921 18.073C7.0377 19.1053 7.08203 19.6225 7.31149 20.0132C7.51358 20.3572 7.81426 20.6327 8.17432 20.8047C8.58318 21 9.10126 21 10.1377 21H13.8628C14.8992 21 15.4174 21 15.8263 20.8047C16.1864 20.6327 16.4869 20.3572 16.689 20.0132C16.9185 19.6225 16.9628 19.1056 17.0513 18.073L17.8517 8.73471C17.9033 8.13312 17.929 7.8329 17.8276 7.60059C17.7385 7.3963 17.5838 7.22718 17.3878 7.12093C17.1648 7 16.862 7 16.2571 7M7.74316 7H6.7499C5.85031 7 5.40023 7 5.13867 6.81152C4.90778 6.64515 4.75884 6.38816 4.72894 6.10515C4.69504 5.78431 4.91871 5.3929 5.36568 4.6107L5.36621 4.60977C5.70039 4.02496 5.86748 3.73255 6.10197 3.51953C6.31161 3.32909 6.55925 3.18544 6.82861 3.09791C7.12991 3 7.46658 3 8.14014 3H15.8604C16.5339 3 16.8707 3 17.172 3.09791C17.4413 3.18544 17.6888 3.32909 17.8984 3.51953C18.1329 3.73255 18.3 4.02496 18.6342 4.60977C19.0813 5.39224 19.3053 5.78425 19.2714 6.10515C19.2415 6.38816 19.0925 6.64515 18.8616 6.81152C18.6001 7 18.1497 7 17.2501 7H16.2571" stroke="currentColor" stroke-width="2" stroke-linecap="round" stroke-linejoin="round"/>
</g>
</svg>
