<svg width="24" height="24" viewBox="0 0 24 24" fill="none" xmlns="http://www.w3.org/2000/svg">
<g id="Environment / Coffee">
<path id="Vector" d="M4 20H10.9433M10.9433 20H11.0567M10.9433 20C10.9622 20.0002 10.9811 20.0002 11 20.0002C11.0189 20.0002 11.0378 20.0002 11.0567 20M10.9433 20C7.1034 19.9695 4 16.8468 4 12.9998V8.92285C4 8.41305 4.41305 8 4.92285 8H17.0767C17.5865 8 18 8.41305 18 8.92285V9M11.0567 20H18M11.0567 20C14.8966 19.9695 18 16.8468 18 12.9998M18 9H19.5C20.8807 9 22 10.1193 22 11.5C22 12.8807 20.8807 14 19.5 14H18V12.9998M18 9V12.9998M15 3L14 5M12 3L11 5M9 3L8 5" stroke="currentColor" stroke-width="2" stroke-linecap="round" stroke-linejoin="round"/>
</g>
</svg>
