<svg width="24" height="24" viewBox="0 0 24 24" fill="none" xmlns="http://www.w3.org/2000/svg">
<path d="M9.707 18.707L8.293 17.293L10.586 15L8.293 12.707L9.707 11.293L12 13.586L14.293 11.293L15.707 12.707L13.414 15L15.707 17.293L14.293 18.707L12 16.414L9.707 18.707Z" fill="#2E3A59"/>
<path fill-rule="evenodd" clip-rule="evenodd" d="M17 4H19C20.103 4 21 4.897 21 6V20C21 21.103 20.103 22 19 22H5C3.897 22 3 21.103 3 20V6C3 4.897 3.897 4 5 4H7V2H9V4H15V2H17V4ZM5 20H19.002L19.0006 10H5V20ZM5 8H19V6H5V8Z" fill="#2E3A59"/>
</svg>
